{"glyphs":{"0":{"ha":779,"x_min":69,"x_max":710,"o":"m 71 313 q 70 335 71 313 q 69 433 69 358 q 71 554 69 508 q 79 654 72 600 q 99 740 86 708 q 135 803 113 771 q 193 853 158 836 q 390 889 274 889 q 569 860 511 889 q 625 825 601 843 q 665 774 649 807 q 690 710 681 740 q 703 631 699 681 q 708 540 707 581 q 710 433 710 499 q 708 327 710 368 q 703 236 707 286 q 690 157 699 186 q 665 94 681 128 q 625 43 649 61 q 569 8 601 25 q 418 -21 511 -21 q 276 -10 325 -21 q 193 16 228 0 q 135 65 158 32 q 99 128 113 97 q 79 213 86 158 q 71 313 72 267 m 231 675 l 231 119 l 436 119 q 524 133 499 119 q 549 193 549 146 l 549 749 l 336 749 q 253 736 275 749 q 231 675 231 724 z "},"1":{"ha":653,"x_min":56,"x_max":611,"o":"m 611 0 l 56 0 l 56 125 l 289 125 l 289 701 l 56 685 l 56 796 l 361 868 l 442 868 l 442 125 l 611 125 l 611 0 z "},"2":{"ha":726,"x_min":76,"x_max":650,"o":"m 369 889 q 482 881 439 889 q 567 846 525 872 q 650 610 650 794 q 594 432 650 500 q 400 317 554 381 q 281 269 339 290 q 217 244 224 247 l 217 125 l 636 125 l 636 0 l 76 0 l 76 158 q 111 314 76 264 q 138 349 126 333 q 174 381 149 364 q 218 408 200 397 q 273 436 236 419 q 335 463 310 453 q 408 494 360 474 q 490 529 457 515 l 490 736 q 379 740 436 740 q 131 713 243 740 l 96 842 q 369 889 233 889 z "},"3":{"ha":704,"x_min":49,"x_max":628,"o":"m 454 736 q 324 740 421 740 q 101 714 228 740 l 65 836 q 328 889 204 889 q 484 872 436 889 q 554 832 532 856 q 606 668 606 778 q 490 454 606 515 l 490 447 q 593 365 558 417 q 628 239 628 314 q 609 117 628 164 q 562 45 590 71 q 489 4 533 19 q 294 -21 414 -21 q 49 11 175 -21 l 88 147 q 303 118 208 118 q 454 124 397 118 l 454 351 l 229 382 l 229 497 l 454 535 l 454 736 z "},"4":{"ha":742,"x_min":28,"x_max":685,"o":"m 456 0 l 456 181 l 28 181 l 28 299 l 242 868 l 594 868 l 594 308 l 685 308 l 685 181 l 594 181 l 594 0 l 456 0 m 456 308 l 456 743 l 353 743 l 174 308 l 456 308 z "},"5":{"ha":735,"x_min":72,"x_max":665,"o":"m 376 128 q 506 132 442 128 l 506 339 l 401 350 q 164 401 222 369 q 106 526 106 432 q 119 868 106 547 l 613 868 l 592 713 l 263 732 l 263 522 l 344 514 q 599 437 532 494 q 665 256 665 379 q 646 124 665 178 q 600 43 626 71 q 526 0 574 15 q 442 -18 478 -15 q 344 -21 406 -21 q 72 15 197 -21 l 104 156 q 376 128 219 128 z "},"6":{"ha":750,"x_min":76,"x_max":674,"o":"m 514 178 l 514 385 l 318 385 q 254 374 272 385 q 236 326 236 364 l 236 119 l 432 119 q 496 130 478 119 q 514 178 514 140 m 578 475 q 674 257 674 421 q 600 36 674 93 q 375 -21 526 -21 q 219 0 276 -21 q 128 78 161 21 q 86 215 96 136 q 76 433 76 294 q 90 652 76 571 q 144 790 104 733 q 251 867 183 846 q 396 889 319 889 q 642 857 538 889 l 606 724 q 398 739 507 739 q 236 731 289 739 l 236 521 l 333 521 q 473 511 417 521 q 578 475 529 501 z "},"7":{"ha":572,"x_min":7,"x_max":565,"o":"m 565 868 l 565 776 l 288 0 l 126 0 l 389 724 l 24 719 l 7 868 l 565 868 z "},"8":{"ha":750,"x_min":76,"x_max":674,"o":"m 99 638 q 377 889 99 889 q 656 638 656 889 q 579 438 656 504 l 579 428 q 648 351 622 403 q 674 238 674 299 q 599 38 674 96 q 376 -21 524 -21 q 153 38 229 -21 q 76 238 76 97 q 104 351 76 299 q 175 428 132 403 l 175 438 q 99 638 99 503 m 251 403 q 236 379 236 403 l 236 119 l 432 119 q 496 130 478 119 q 514 178 514 140 l 514 293 l 279 394 q 251 403 260 403 m 486 465 q 514 490 514 465 l 514 742 l 318 742 q 254 731 272 742 q 236 683 236 721 l 236 574 l 465 471 q 486 465 476 465 z "},"9":{"ha":750,"x_min":75,"x_max":672,"o":"m 235 690 l 235 481 l 431 481 q 494 491 476 481 q 513 539 513 501 l 513 749 l 317 749 q 253 738 271 749 q 235 690 235 728 m 513 344 l 401 344 q 156 396 236 344 q 75 590 75 447 q 158 836 75 776 q 250 878 200 867 q 386 889 300 889 q 530 868 472 889 q 620 790 588 847 q 663 653 653 732 q 672 435 672 574 q 611 76 672 172 q 375 -21 550 -21 q 101 11 229 -21 l 135 157 q 358 128 257 128 q 513 133 458 128 l 513 344 z "}," ":{"ha":347,"x_min":0,"x_max":0,"o":""},"!":{"ha":375,"x_min":101,"x_max":272,"o":"m 156 868 l 219 868 q 271 831 271 868 l 229 292 l 146 292 l 104 831 q 156 868 104 868 m 187 -10 q 161 -10 187 -10 q 119 10 136 -10 q 101 77 101 29 q 119 145 101 125 q 187 165 136 165 q 255 145 238 165 q 272 77 272 125 q 255 10 272 29 q 187 -10 238 -10 z "},"\"":{"ha":667,"x_min":118,"x_max":549,"o":"m 118 865 q 169 903 118 903 l 233 903 q 285 865 285 903 l 285 785 l 229 500 l 174 500 l 118 785 l 118 865 m 382 865 q 433 903 382 903 l 497 903 q 549 865 549 903 l 549 785 l 493 500 l 438 500 l 382 785 l 382 865 z "},"#":{"ha":953,"x_min":0,"x_max":953,"o":"m 224 649 l 340 649 l 457 889 q 478 916 467 908 q 517 924 489 924 l 574 924 l 440 649 l 719 649 l 836 889 q 857 916 846 908 q 896 924 868 924 l 953 924 l 819 649 l 953 649 l 928 597 q 905 565 917 572 q 871 558 893 558 l 775 558 l 654 307 l 818 307 l 793 256 q 770 224 782 231 q 736 217 758 217 l 610 217 l 496 -21 q 475 -48 486 -40 q 436 -56 464 -56 l 379 -56 l 511 217 l 231 217 l 117 -21 q 96 -48 107 -40 q 57 -56 85 -56 l 0 -56 l 132 217 l 6 217 l 31 268 q 54 300 42 293 q 89 307 67 307 l 175 307 l 297 558 l 140 558 l 165 610 q 189 642 176 635 q 224 649 201 649 m 396 558 l 275 307 l 554 307 l 676 558 l 396 558 z "},"$":{"ha":682,"x_min":76,"x_max":606,"o":"m 354 128 q 457 133 408 128 l 457 338 l 371 349 q 156 425 211 369 q 100 581 100 481 q 152 808 100 735 q 328 888 204 881 l 333 997 l 413 997 l 407 888 q 568 864 476 885 l 542 760 l 324 760 q 256 708 272 760 q 238 526 239 656 l 325 515 q 547 439 489 494 q 606 256 606 383 q 544 66 606 128 q 360 -3 483 4 l 353 -139 l 274 -139 l 281 -3 q 76 35 163 1 l 103 158 q 354 128 222 128 z "},"%":{"ha":1349,"x_min":50,"x_max":1258,"o":"m 482 -56 l 411 -56 l 785 889 q 797 908 792 903 q 844 924 813 924 l 915 924 l 542 -21 q 529 -40 535 -35 q 482 -56 514 -56 m 861 53 q 838 86 861 53 q 815 268 815 119 q 861 483 815 417 q 1037 549 907 549 q 1213 483 1167 549 q 1258 268 1258 417 q 1213 53 1258 119 q 1037 -12 1167 -12 q 861 53 907 -12 m 951 394 l 951 83 l 1040 83 q 1103 94 1085 83 q 1121 140 1121 104 l 1121 451 l 1029 451 q 967 442 983 451 q 951 394 951 432 m 96 369 q 73 402 96 369 q 50 583 50 435 q 96 798 50 732 q 272 864 142 864 q 447 798 401 864 q 493 583 493 732 q 447 369 493 435 q 272 303 401 303 q 96 369 142 303 m 186 710 l 186 399 l 275 399 q 338 409 319 399 q 356 456 356 419 l 356 767 l 264 767 q 202 757 218 767 q 186 710 186 747 z "},"&":{"ha":756,"x_min":63,"x_max":728,"o":"m 272 0 q 63 250 63 0 q 117 469 63 415 q 176 500 140 493 l 176 506 l 117 529 q 203 844 117 790 q 322 868 242 868 q 508 839 401 868 l 482 738 l 333 738 q 268 712 288 738 q 249 610 249 686 l 249 496 l 728 496 l 697 385 l 593 385 l 593 -100 l 528 -118 l 492 71 q 272 0 381 0 m 204 229 q 233 149 204 179 q 301 119 261 119 q 395 131 342 119 q 475 160 449 143 l 433 385 l 204 385 l 204 229 z "},"'":{"ha":403,"x_min":118,"x_max":285,"o":"m 118 865 q 169 903 118 903 l 233 903 q 285 865 285 903 l 285 785 l 229 500 l 174 500 l 118 785 l 118 865 z "},"(":{"ha":404,"x_min":69,"x_max":335,"o":"m 335 810 q 247 686 286 786 q 208 389 208 586 q 247 94 208 192 q 335 -26 286 -3 l 329 -133 q 195 -41 250 -104 q 115 102 140 22 q 79 251 89 182 q 69 392 69 319 q 79 533 69 464 q 115 681 89 601 q 195 824 140 761 q 329 917 250 888 l 335 810 z "},")":{"ha":404,"x_min":69,"x_max":335,"o":"m 69 -26 q 157 97 118 -3 q 196 394 196 197 q 157 689 196 592 q 69 810 118 786 l 75 917 q 209 824 154 888 q 290 681 264 761 q 325 533 315 601 q 335 392 335 464 q 325 251 335 319 q 290 102 315 182 q 209 -41 264 22 q 75 -133 154 -104 l 69 -26 z "},"*":{"ha":744,"x_min":92,"x_max":644,"o":"m 594 779 q 621 754 611 779 l 640 693 q 644 665 644 681 q 624 642 644 649 l 572 625 l 442 608 l 539 519 l 571 475 q 578 453 578 465 q 556 425 578 440 l 510 392 q 479 379 492 379 q 457 392 467 379 l 425 436 l 368 558 l 311 436 l 279 392 q 257 379 269 379 q 226 392 244 379 l 181 425 q 158 453 158 440 q 165 475 158 465 l 197 519 l 293 610 l 164 625 l 113 642 q 92 665 92 649 q 96 693 92 681 l 115 754 q 142 779 125 779 q 157 776 146 779 l 208 760 l 324 696 l 299 824 l 299 878 q 342 910 299 910 l 397 910 q 440 878 440 910 l 440 824 l 415 697 l 528 760 l 579 776 q 594 779 590 779 z "},"+":{"ha":792,"x_min":149,"x_max":642,"o":"m 149 378 l 149 489 l 339 489 l 339 679 l 450 679 l 450 489 l 642 489 l 642 378 l 450 378 l 450 186 l 339 186 l 339 378 l 149 378 z "},",":{"ha":307,"x_min":63,"x_max":244,"o":"m 119 -6 q 74 26 86 1 q 63 108 63 50 q 81 190 63 165 q 153 215 100 215 q 226 190 207 215 q 244 99 244 165 q 208 -43 244 33 l 143 -183 l 83 -164 l 119 -6 z "},"-":{"ha":486,"x_min":46,"x_max":440,"o":"m 46 324 l 46 393 q 61 432 46 424 q 117 440 76 440 l 440 440 l 440 371 q 425 332 440 340 q 369 324 410 324 l 46 324 z "},".":{"ha":307,"x_min":63,"x_max":244,"o":"m 81 16 q 72 28 81 16 q 63 103 63 40 q 81 190 63 165 q 153 215 100 215 q 226 190 207 215 q 244 103 244 165 q 226 16 244 40 q 154 -8 208 -8 q 81 16 100 -8 z "},"/":{"ha":574,"x_min":0,"x_max":574,"o":"m 57 -56 l 0 -56 l 457 889 q 469 908 464 903 q 517 924 485 924 l 574 924 l 117 -21 q 104 -40 110 -35 q 57 -56 89 -56 z "},":":{"ha":307,"x_min":63,"x_max":244,"o":"m 81 16 q 72 28 81 16 q 63 103 63 40 q 81 190 63 165 q 153 215 100 215 q 226 190 207 215 q 244 103 244 165 q 226 16 244 40 q 154 -8 208 -8 q 81 16 100 -8 m 81 502 q 72 514 81 502 q 63 589 63 526 q 81 676 63 651 q 153 701 100 701 q 226 676 207 701 q 244 589 244 651 q 226 502 244 526 q 154 478 208 478 q 81 502 100 478 z "},";":{"ha":307,"x_min":63,"x_max":244,"o":"m 119 -6 q 74 26 86 1 q 63 108 63 50 q 81 190 63 165 q 153 215 100 215 q 226 190 207 215 q 244 99 244 165 q 208 -43 244 33 l 143 -183 l 83 -164 l 119 -6 m 81 502 q 72 514 81 502 q 63 589 63 526 q 81 676 63 651 q 153 701 100 701 q 226 676 207 701 q 244 589 244 651 q 226 502 244 526 q 154 478 208 478 q 81 502 100 478 z "},"<":{"ha":792,"x_min":149,"x_max":649,"o":"m 149 376 l 149 489 l 596 722 l 649 618 l 282 440 l 282 425 l 649 247 l 596 143 l 149 376 z "},"=":{"ha":792,"x_min":149,"x_max":642,"o":"m 149 240 l 149 351 l 642 351 l 642 240 l 149 240 m 149 515 l 149 626 l 642 626 l 642 515 l 149 515 z "},">":{"ha":792,"x_min":149,"x_max":649,"o":"m 649 489 l 649 376 l 201 143 l 149 247 l 515 425 l 515 440 l 149 618 l 201 722 l 649 489 z "},"?":{"ha":581,"x_min":56,"x_max":539,"o":"m 197 306 q 181 507 193 364 q 198 538 181 526 q 267 568 215 550 l 400 614 l 400 760 q 318 763 375 763 q 89 735 181 763 l 56 850 q 256 889 172 889 q 380 883 340 889 q 460 860 419 878 q 539 699 539 824 q 485 552 539 600 q 307 461 432 504 l 300 306 l 197 306 m 173 10 q 164 19 173 10 q 154 79 154 29 q 173 149 154 129 q 245 169 192 169 q 317 149 299 169 q 336 79 336 129 q 318 10 336 29 q 246 -10 300 -10 q 173 10 192 -10 z "},"@":{"ha":1176,"x_min":125,"x_max":1036,"o":"m 649 288 l 649 113 l 803 113 q 881 126 864 113 q 899 163 899 140 l 899 346 l 744 346 q 672 335 694 346 q 649 288 649 325 m 125 247 l 125 360 q 261 715 125 617 q 608 806 385 806 q 933 743 831 806 q 1036 546 1036 681 l 1036 0 l 960 0 l 917 74 q 694 -12 835 -12 q 501 221 501 -12 q 569 400 501 349 q 801 451 638 451 l 899 451 l 899 657 q 699 671 808 671 q 556 669 590 671 q 476 660 522 667 q 400 637 431 653 q 342 596 369 621 q 285 431 285 546 l 285 117 q 303 10 285 54 q 347 -58 321 -35 q 419 -93 374 -81 q 593 -111 483 -111 l 861 -111 l 861 -206 q 631 -229 736 -229 q 245 -124 365 -229 q 125 247 125 -18 z "},"A":{"ha":763,"x_min":25,"x_max":738,"o":"m 590 0 l 543 190 l 218 190 l 172 0 l 25 0 l 250 868 l 513 868 l 738 0 l 590 0 m 353 740 l 249 315 l 513 315 l 410 740 l 353 740 z "},"B":{"ha":739,"x_min":97,"x_max":669,"o":"m 97 0 l 97 868 l 417 868 q 577 813 528 868 q 626 653 626 758 q 608 538 626 585 q 542 458 589 492 l 542 450 q 639 372 608 428 q 669 244 669 315 q 612 67 669 133 q 447 0 554 0 l 97 0 m 449 386 l 236 386 l 236 125 l 447 125 q 505 158 483 125 q 526 253 526 190 q 505 351 526 317 q 449 386 483 386 m 428 743 l 236 743 l 236 504 l 426 504 q 479 536 458 504 q 500 625 500 568 q 480 713 500 682 q 428 743 460 743 z "},"C":{"ha":618,"x_min":69,"x_max":583,"o":"m 381 -14 q 131 77 193 -14 q 69 437 69 168 q 131 797 69 706 q 381 889 193 889 q 569 860 493 889 l 549 738 q 369 757 454 757 q 253 742 283 757 q 222 679 222 726 l 222 136 q 376 115 288 115 q 569 143 465 115 l 583 15 q 381 -14 501 -14 z "},"D":{"ha":779,"x_min":97,"x_max":710,"o":"m 97 0 l 97 868 l 367 868 q 541 852 478 868 q 644 785 604 836 q 697 655 685 735 q 710 434 710 575 q 697 213 710 293 q 644 83 685 133 q 541 16 604 32 q 367 0 478 0 l 97 0 m 449 743 l 236 743 l 236 125 l 449 125 q 531 138 506 125 q 557 199 557 151 l 557 669 q 531 730 557 717 q 449 743 506 743 z "},"E":{"ha":632,"x_min":97,"x_max":576,"o":"m 514 369 l 236 369 l 236 125 l 576 125 l 576 0 l 97 0 l 97 868 l 569 868 l 549 743 l 236 743 l 236 488 l 514 488 l 514 369 z "},"F":{"ha":569,"x_min":97,"x_max":542,"o":"m 486 367 l 236 367 l 236 0 l 97 0 l 97 868 l 542 868 l 521 743 l 236 743 l 236 485 l 486 485 l 486 367 z "},"G":{"ha":736,"x_min":69,"x_max":667,"o":"m 542 197 l 542 339 l 443 339 l 443 464 l 667 464 l 667 42 q 378 -21 528 -21 q 129 69 189 -21 q 69 433 69 160 q 138 798 69 707 q 418 889 206 889 q 625 860 526 889 l 604 738 q 396 757 492 757 q 261 742 300 757 q 222 679 222 726 l 222 114 l 413 114 q 481 118 457 114 q 523 141 504 122 q 542 197 542 160 z "},"H":{"ha":806,"x_min":97,"x_max":708,"o":"m 569 0 l 569 371 l 236 371 l 236 0 l 97 0 l 97 868 l 236 868 l 236 496 l 569 496 l 569 868 l 708 868 l 708 0 l 569 0 z "},"I":{"ha":333,"x_min":97,"x_max":236,"o":"m 97 0 l 97 868 l 236 868 l 236 0 l 97 0 z "},"J":{"ha":439,"x_min":14,"x_max":349,"o":"m 143 125 q 198 137 186 125 q 210 167 210 149 l 210 743 l 53 743 l 53 868 l 349 868 l 349 188 q 297 40 349 81 q 133 0 244 0 l 31 0 l 14 125 l 143 125 z "},"K":{"ha":685,"x_min":97,"x_max":671,"o":"m 236 383 l 236 0 l 97 0 l 97 868 l 236 868 l 236 508 l 353 508 q 367 581 356 557 l 503 868 l 664 868 l 456 442 l 671 0 l 510 0 l 367 311 q 353 383 356 335 l 236 383 z "},"L":{"ha":528,"x_min":97,"x_max":528,"o":"m 528 0 l 97 0 l 97 868 l 236 868 l 236 125 l 528 125 l 528 0 z "},"M":{"ha":974,"x_min":69,"x_max":904,"o":"m 207 0 l 69 0 l 113 868 l 318 868 l 482 371 l 492 371 l 656 868 l 861 868 l 904 0 l 767 0 l 736 671 l 726 671 l 538 111 l 436 111 l 246 671 l 238 671 l 207 0 z "},"N":{"ha":799,"x_min":97,"x_max":701,"o":"m 236 636 l 236 0 l 97 0 l 97 868 l 247 868 l 543 299 q 557 232 554 283 l 563 232 l 563 868 l 701 868 l 701 0 l 551 0 l 256 569 q 242 636 244 585 l 236 636 z "},"O":{"ha":807,"x_min":69,"x_max":738,"o":"m 403 -21 q 303 -21 403 -21 q 136 71 203 -21 q 69 434 69 163 q 136 797 69 706 q 403 889 203 889 q 670 797 603 889 q 738 433 738 704 q 670 71 738 163 q 403 -21 603 -21 m 222 675 l 222 119 l 476 119 q 559 133 533 119 q 585 193 585 146 l 585 749 l 329 749 q 248 735 274 749 q 222 675 222 722 z "},"P":{"ha":681,"x_min":97,"x_max":660,"o":"m 403 272 l 236 272 l 236 0 l 97 0 l 97 868 l 382 868 q 605 800 550 868 q 660 578 660 732 q 652 463 660 508 q 621 369 644 417 q 403 272 574 272 m 236 743 l 236 397 l 411 397 q 484 408 461 397 q 507 456 507 418 l 507 685 q 484 733 507 722 q 411 743 461 743 l 236 743 z "},"Q":{"ha":807,"x_min":69,"x_max":785,"o":"m 69 433 q 136 797 69 706 q 403 889 203 889 q 670 797 603 889 q 738 433 738 704 q 631 90 738 197 l 785 21 l 753 -56 l 510 -3 l 510 33 l 403 0 q 238 17 299 0 q 137 83 176 33 q 83 213 97 132 q 69 433 69 294 m 222 675 l 222 133 l 476 133 q 559 147 533 133 q 585 207 585 160 l 585 749 l 329 749 q 248 735 274 749 q 222 675 222 722 z "},"R":{"ha":736,"x_min":97,"x_max":688,"o":"m 236 307 l 236 0 l 97 0 l 97 868 l 415 868 q 603 794 549 868 q 657 589 657 721 q 528 338 657 403 l 688 0 l 535 0 l 397 307 l 236 307 m 236 743 l 236 432 l 411 432 q 484 442 461 432 q 507 490 507 453 l 507 685 q 484 733 507 722 q 411 743 461 743 l 236 743 z "},"S":{"ha":697,"x_min":63,"x_max":642,"o":"m 88 147 q 321 115 215 115 q 489 124 426 115 l 489 350 l 364 360 q 131 426 188 374 q 75 622 75 479 q 131 826 75 764 q 324 889 186 889 q 594 863 463 889 l 574 736 q 363 757 444 757 q 228 750 282 757 l 228 517 l 369 507 q 594 428 540 496 q 632 348 622 392 q 642 235 642 304 q 626 117 642 165 q 589 44 611 69 q 524 5 567 18 q 446 -11 481 -8 q 306 -14 411 -14 q 63 14 201 -14 l 88 147 z "},"T":{"ha":569,"x_min":14,"x_max":556,"o":"m 556 743 l 354 743 l 354 0 l 215 0 l 215 743 l 14 743 l 14 868 l 556 868 l 556 743 z "},"U":{"ha":788,"x_min":90,"x_max":697,"o":"m 697 868 l 697 313 q 667 89 697 140 q 578 6 631 25 q 418 -21 504 -21 q 286 -13 332 -21 q 208 6 240 -6 q 153 42 175 18 q 119 88 132 65 q 100 150 107 111 q 90 313 90 217 l 90 868 l 229 868 l 229 119 l 400 119 q 524 133 490 119 q 558 193 558 146 l 558 868 l 697 868 z "},"V":{"ha":725,"x_min":28,"x_max":697,"o":"m 550 868 l 697 868 l 471 0 l 253 0 l 28 868 l 175 868 l 356 128 l 368 128 l 550 868 z "},"W":{"ha":1057,"x_min":28,"x_max":1029,"o":"m 460 833 l 597 833 l 744 128 l 757 128 l 882 868 l 1029 868 l 860 0 l 649 0 l 533 540 l 524 540 l 408 0 l 197 0 l 28 868 l 175 868 l 300 128 l 313 128 l 460 833 z "},"X":{"ha":725,"x_min":35,"x_max":690,"o":"m 207 868 l 361 590 l 376 590 l 528 868 l 676 868 l 444 439 l 690 0 l 539 0 l 364 308 l 349 308 l 183 0 l 35 0 l 281 457 l 49 868 l 207 868 z "},"Y":{"ha":653,"x_min":14,"x_max":639,"o":"m 396 0 l 257 0 l 257 278 l 14 868 l 161 868 l 321 438 l 331 438 l 492 868 l 639 868 l 396 278 l 396 0 z "},"Z":{"ha":693,"x_min":42,"x_max":651,"o":"m 651 0 l 42 0 l 42 118 l 457 721 l 453 729 l 97 729 l 81 868 l 646 868 l 646 750 l 235 147 l 239 139 l 651 139 l 651 0 z "},"[":{"ha":388,"x_min":97,"x_max":346,"o":"m 97 13 l 97 771 q 196 906 97 883 q 336 917 250 917 l 346 810 q 231 799 342 810 l 231 -15 l 346 -26 l 336 -133 q 142 -99 185 -133 q 97 13 97 -62 z "},"\\":{"ha":574,"x_min":0,"x_max":574,"o":"m 57 924 q 94 916 83 924 q 117 889 106 908 l 574 -56 l 517 -56 q 479 -48 490 -56 q 457 -21 468 -40 l 0 924 l 57 924 z "},"]":{"ha":388,"x_min":42,"x_max":290,"o":"m 290 771 l 290 13 q 192 -122 290 -100 q 51 -133 138 -133 l 42 -26 q 157 -15 46 -26 l 157 799 l 42 810 l 51 917 q 244 882 203 917 q 290 771 290 846 z "},"^":{"ha":792,"x_min":107,"x_max":686,"o":"m 340 803 l 453 803 l 686 356 l 582 303 l 404 669 l 389 669 l 211 303 l 107 356 l 340 803 z "},"_":{"ha":688,"x_min":35,"x_max":653,"o":"m 35 -110 l 35 -51 q 53 -3 35 -14 q 117 7 71 7 l 653 7 l 653 -51 q 635 -99 653 -89 q 571 -110 617 -110 l 35 -110 z "},"`":{"ha":596,"x_min":101,"x_max":404,"o":"m 107 867 q 101 877 101 872 q 110 893 101 882 l 171 968 q 181 975 176 975 q 193 969 186 975 l 404 817 l 374 769 l 179 818 q 149 832 161 822 l 107 867 z "},"a":{"ha":740,"x_min":76,"x_max":622,"o":"m 217 113 l 375 113 q 460 128 436 113 q 485 193 485 143 l 485 317 l 326 317 q 241 301 265 317 q 217 236 217 286 l 217 113 m 279 -14 q 76 201 76 -14 q 158 380 76 326 q 396 433 239 433 l 485 433 l 485 572 q 381 578 442 578 q 156 549 239 578 l 139 665 q 387 708 268 708 q 564 669 506 708 q 622 513 622 629 l 622 0 l 558 0 l 521 69 q 279 -14 428 -14 z "},"b":{"ha":782,"x_min":125,"x_max":688,"o":"m 463 708 q 638 635 589 708 q 688 351 688 561 q 622 63 688 140 q 389 -14 557 -14 q 125 25 221 -14 l 125 910 l 250 924 l 250 633 q 349 687 289 665 q 463 708 408 708 m 264 113 l 426 113 q 512 128 488 113 q 536 193 536 143 l 536 568 l 374 568 q 288 553 313 568 q 264 488 264 538 l 264 113 z "},"c":{"ha":579,"x_min":94,"x_max":538,"o":"m 538 14 q 353 -14 454 -14 q 199 16 253 -14 q 119 123 144 46 q 94 347 94 200 q 155 635 94 561 q 372 708 215 708 q 535 683 460 708 l 504 567 q 369 582 419 582 q 246 482 246 582 l 246 114 q 369 107 299 107 q 521 132 440 107 l 538 14 z "},"d":{"ha":781,"x_min":94,"x_max":656,"o":"m 554 69 q 347 -21 478 -21 q 156 56 217 -21 q 94 338 94 133 q 164 619 94 543 q 400 694 233 694 l 518 694 l 518 907 l 656 924 l 656 0 l 590 0 l 554 69 m 246 113 l 408 113 q 494 128 469 113 q 518 193 518 143 l 518 567 l 356 567 q 270 551 294 567 q 246 486 246 536 l 246 113 z "},"e":{"ha":740,"x_min":94,"x_max":657,"o":"m 515 583 l 357 583 q 272 568 296 583 q 247 503 247 553 l 247 379 l 406 379 q 491 394 467 379 q 515 460 515 410 l 515 583 m 633 28 q 390 -11 517 -11 q 206 18 264 -11 q 122 124 149 47 q 94 347 94 200 q 158 639 94 563 q 381 715 221 715 q 599 670 542 715 q 657 486 657 625 q 641 366 657 396 q 613 320 625 336 q 572 293 601 304 q 519 276 543 282 q 447 267 494 271 q 247 263 379 263 l 247 125 q 400 110 311 110 q 608 143 489 110 l 633 28 z "},"f":{"ha":463,"x_min":69,"x_max":463,"o":"m 306 694 l 417 694 l 417 583 l 306 583 l 306 0 l 167 0 l 167 583 l 69 583 l 69 694 l 167 694 l 176 778 q 229 905 188 872 q 333 938 271 938 q 463 924 396 938 l 447 811 l 306 822 l 306 694 z "},"g":{"ha":689,"x_min":69,"x_max":661,"o":"m 257 207 q 113 274 156 218 q 69 469 69 331 q 130 661 69 607 q 338 715 190 715 q 496 692 439 715 l 592 767 l 661 699 l 582 606 q 606 458 606 547 q 551 262 606 317 q 365 203 497 207 l 358 117 q 562 78 503 108 q 621 -54 621 47 q 575 -178 621 -142 q 529 -207 551 -196 q 464 -222 507 -218 q 297 -229 410 -229 q 81 -187 183 -229 l 101 -68 q 367 -108 229 -108 q 460 -101 414 -108 l 460 -11 q 231 21 286 -11 q 210 49 210 33 l 257 207 m 213 528 l 213 326 l 367 326 q 440 337 417 326 q 463 385 463 347 l 463 586 l 308 586 q 235 576 258 586 q 213 528 213 565 z "},"h":{"ha":771,"x_min":125,"x_max":653,"o":"m 514 708 q 619 678 585 708 q 653 569 653 649 l 653 0 l 514 0 l 514 567 l 374 567 q 288 551 313 567 q 264 486 264 536 l 264 0 l 125 0 l 125 913 l 257 924 l 257 622 q 514 708 385 708 z "},"i":{"ha":389,"x_min":110,"x_max":281,"o":"m 125 0 l 125 685 l 264 706 l 264 0 l 125 0 m 195 799 q 170 799 195 799 q 127 817 144 799 q 110 881 110 835 q 127 947 110 928 q 195 965 144 965 q 263 947 246 965 q 281 881 281 928 q 263 817 281 835 q 195 799 246 799 z "},"j":{"ha":389,"x_min":-14,"x_max":281,"o":"m -14 -229 l -14 -146 l 58 -132 q 125 -62 125 -119 l 125 685 l 264 706 l 264 -28 q 221 -183 264 -136 q 92 -229 178 -229 l -14 -229 m 195 799 q 170 799 195 799 q 127 817 144 799 q 110 881 110 835 q 127 947 110 928 q 195 965 144 965 q 263 947 246 965 q 281 881 281 928 q 263 817 281 835 q 195 799 246 799 z "},"k":{"ha":708,"x_min":125,"x_max":660,"o":"m 264 315 l 264 0 l 125 0 l 125 903 l 264 924 l 264 426 l 360 426 l 504 694 l 653 694 l 475 371 l 660 0 l 511 0 l 351 315 l 264 315 z "},"l":{"ha":389,"x_min":125,"x_max":328,"o":"m 125 117 l 125 903 l 264 924 l 264 101 q 328 94 311 96 l 319 -15 q 163 10 201 -15 q 125 117 125 35 z "},"m":{"ha":1146,"x_min":125,"x_max":1028,"o":"m 507 708 q 597 690 564 708 q 640 624 629 671 q 889 708 774 708 q 994 678 960 708 q 1028 569 1028 649 l 1028 0 l 889 0 l 889 567 l 756 567 q 672 552 697 567 q 646 496 646 538 l 646 0 l 507 0 l 507 567 l 374 567 q 288 551 313 567 q 264 486 264 536 l 264 0 l 125 0 l 125 694 l 189 694 l 240 611 q 507 708 385 708 z "},"n":{"ha":771,"x_min":125,"x_max":653,"o":"m 514 708 q 619 678 585 708 q 653 569 653 649 l 653 0 l 514 0 l 514 567 l 374 567 q 288 551 313 567 q 264 486 264 536 l 264 0 l 125 0 l 125 694 l 189 694 l 240 611 q 514 708 385 708 z "},"o":{"ha":764,"x_min":94,"x_max":669,"o":"m 154 65 q 124 108 154 65 q 94 347 94 151 q 154 629 94 543 q 382 715 214 715 q 610 629 550 715 q 669 347 669 543 q 610 65 669 151 q 382 -21 550 -21 q 154 65 214 -21 m 246 113 l 408 113 q 494 128 469 113 q 518 193 518 143 l 518 582 l 356 582 q 270 567 294 582 q 246 501 246 551 l 246 113 z "},"p":{"ha":771,"x_min":125,"x_max":676,"o":"m 464 708 q 626 628 576 708 q 676 356 676 549 q 618 81 676 163 q 413 0 560 0 l 264 0 l 264 -229 l 125 -246 l 125 694 l 189 694 l 240 611 q 464 708 322 708 m 265 126 l 415 126 q 501 142 476 126 q 525 207 525 157 l 525 568 l 376 568 q 290 552 315 568 q 265 488 265 536 l 265 126 z "},"q":{"ha":771,"x_min":94,"x_max":646,"o":"m 646 694 l 646 -231 l 507 -246 l 507 36 q 328 -10 421 -10 q 141 69 188 -10 q 94 349 94 147 q 147 630 94 551 q 337 708 199 708 q 553 647 475 708 l 582 694 l 646 694 m 246 126 l 397 126 q 483 142 458 126 q 507 207 507 157 l 507 568 l 356 568 q 270 553 294 568 q 246 488 246 538 l 246 126 z "},"r":{"ha":469,"x_min":125,"x_max":442,"o":"m 125 694 l 189 694 l 238 585 q 428 715 354 689 l 442 579 q 349 545 400 571 q 263 490 297 519 l 263 0 l 125 0 l 125 694 z "},"s":{"ha":633,"x_min":69,"x_max":571,"o":"m 74 501 q 307 715 74 715 q 528 682 422 715 l 503 553 q 300 583 403 583 q 213 578 271 583 l 213 436 q 497 351 422 406 q 571 189 571 296 q 522 33 571 83 q 331 -21 471 -21 q 69 14 192 -21 l 96 147 q 335 111 206 111 q 432 117 382 111 l 432 244 q 144 328 215 275 q 74 501 74 381 z "},"t":{"ha":492,"x_min":69,"x_max":429,"o":"m 306 694 l 429 694 l 429 585 l 306 585 l 306 101 q 383 94 339 97 l 375 -15 q 210 10 254 -15 q 167 117 167 36 l 167 585 l 69 585 l 69 694 l 167 694 l 167 843 l 306 878 l 306 694 z "},"u":{"ha":771,"x_min":118,"x_max":646,"o":"m 646 0 l 581 0 l 544 69 q 286 -14 433 -14 q 162 19 206 -14 q 118 139 118 53 l 118 694 l 257 694 l 257 113 l 351 113 q 467 133 428 113 q 507 221 507 154 l 507 694 l 646 694 l 646 0 z "},"v":{"ha":672,"x_min":28,"x_max":644,"o":"m 226 0 l 28 694 l 169 694 l 329 118 l 343 118 l 503 694 l 644 694 l 446 0 l 226 0 z "},"w":{"ha":978,"x_min":28,"x_max":950,"o":"m 171 0 l 28 694 l 169 694 l 282 118 l 297 118 l 431 653 l 547 653 l 671 118 l 686 118 l 808 694 l 950 694 l 794 0 l 586 0 l 490 410 l 479 410 l 378 0 l 171 0 z "},"x":{"ha":681,"x_min":35,"x_max":646,"o":"m 193 694 l 344 461 l 489 694 l 639 694 l 421 344 l 646 0 l 494 0 l 335 244 l 185 0 l 35 0 l 260 360 l 42 694 l 193 694 z "},"y":{"ha":663,"x_min":22,"x_max":639,"o":"m 304 42 l 221 42 l 22 694 l 164 694 l 324 160 l 338 160 l 497 694 l 639 694 l 424 -21 q 324 -183 389 -136 q 150 -229 258 -229 l 33 -229 l 33 -146 l 164 -121 q 261 -85 229 -108 q 304 -19 293 -61 l 304 42 z "},"z":{"ha":694,"x_min":83,"x_max":597,"o":"m 589 694 l 589 601 l 274 136 l 278 128 l 597 128 l 597 0 l 83 0 l 83 106 l 403 558 l 399 567 l 113 567 l 97 694 l 589 694 z "},"{":{"ha":411,"x_min":56,"x_max":369,"o":"m 279 211 l 254 -17 l 369 -26 l 361 -133 q 175 -109 225 -133 q 125 13 125 -85 l 146 318 l 56 340 l 56 440 l 146 463 l 125 771 q 172 892 125 868 q 361 917 218 917 l 369 810 q 254 800 365 810 l 279 569 q 201 399 279 444 l 201 382 q 279 211 279 336 z "},"|":{"ha":367,"x_min":139,"x_max":228,"o":"m 139 -250 l 139 978 l 228 978 l 228 -250 l 139 -250 z "},"}":{"ha":411,"x_min":42,"x_max":356,"o":"m 132 572 l 157 800 l 42 810 l 50 917 q 236 892 186 917 q 286 771 286 868 l 265 465 l 356 443 l 356 343 l 265 321 l 286 13 q 240 -109 286 -85 q 50 -133 193 -133 l 42 -26 q 157 -17 46 -26 l 132 214 q 210 385 132 339 l 210 401 q 132 572 132 447 z "},"~":{"ha":792,"x_min":149,"x_max":642,"o":"m 642 379 q 542 326 594 326 q 394 378 489 326 q 248 431 300 431 q 149 379 196 431 l 149 490 q 248 542 196 542 q 394 490 300 542 q 542 438 489 438 q 642 490 594 438 l 642 379 z "}," ":{"ha":347,"x_min":0,"x_max":0,"o":""},"¡":{"ha":375,"x_min":103,"x_max":274,"o":"m 219 -162 l 156 -162 q 104 -125 104 -162 l 146 414 l 229 414 l 271 -125 q 219 -162 271 -162 m 188 715 q 214 715 188 715 q 256 696 239 715 q 274 628 274 676 q 256 560 274 581 q 188 540 239 540 q 120 560 138 540 q 103 628 103 581 q 120 696 103 676 q 188 715 138 715 z "},"¢":{"ha":554,"x_min":82,"x_max":492,"o":"m 82 340 q 279 713 82 683 l 286 833 l 365 833 l 360 714 q 492 689 418 710 l 467 585 l 346 585 q 273 561 299 585 q 243 458 247 538 l 229 165 q 332 161 269 161 q 467 182 394 161 l 475 78 q 319 43 410 44 l 314 -89 l 235 -89 l 242 50 q 119 142 156 69 q 82 340 82 214 z "},"£":{"ha":731,"x_min":83,"x_max":661,"o":"m 83 399 l 83 478 l 188 478 l 200 615 q 267 822 213 754 q 424 890 322 890 q 618 864 525 890 l 590 760 l 446 760 q 372 730 397 760 q 339 594 347 700 l 329 478 l 538 478 l 528 399 l 322 399 l 300 125 l 626 125 l 661 0 l 83 0 l 83 67 l 153 90 l 181 399 l 83 399 z "},"¤":{"ha":775,"x_min":28,"x_max":747,"o":"m 156 239 q 124 435 124 293 q 156 629 124 576 l 28 758 l 92 822 l 224 689 q 385 715 281 715 q 550 689 489 715 l 683 822 l 747 758 l 618 629 q 650 434 650 572 q 618 240 650 296 l 747 111 l 683 47 l 550 181 q 388 154 493 154 q 224 179 282 154 l 92 47 l 28 111 l 156 239 m 274 547 l 274 265 l 417 265 q 479 276 461 265 q 497 322 497 286 l 497 604 l 351 604 q 290 594 306 604 q 274 547 274 585 z "},"¥":{"ha":694,"x_min":42,"x_max":653,"o":"m 611 208 l 417 208 l 417 0 l 278 0 l 278 208 l 83 208 l 83 288 l 265 288 l 222 399 l 83 399 l 83 478 l 192 478 l 42 868 l 189 868 l 336 460 l 358 460 l 506 868 l 653 868 l 501 478 l 611 478 l 611 399 l 471 399 l 428 288 l 611 288 l 611 208 z "},"¦":{"ha":367,"x_min":139,"x_max":228,"o":"m 139 511 l 139 978 l 228 978 l 228 511 l 139 511 m 139 -250 l 139 217 l 228 217 l 228 -250 l 139 -250 z "},"§":{"ha":733,"x_min":97,"x_max":636,"o":"m 278 258 l 528 258 l 528 378 q 520 418 528 410 q 481 426 513 426 l 231 426 l 231 308 q 238 267 231 276 q 278 258 246 258 m 500 -40 l 500 146 q 194 192 278 146 q 110 343 110 239 q 142 475 110 425 q 110 592 110 521 q 119 706 110 663 q 148 778 128 750 q 190 822 168 806 q 246 847 211 839 q 400 858 300 858 q 603 824 500 858 l 572 731 l 257 731 l 257 544 q 563 489 481 544 q 619 428 603 463 q 636 331 636 394 q 601 215 636 267 q 636 101 636 165 q 627 -4 636 36 q 604 -72 618 -44 q 566 -117 590 -99 q 520 -146 542 -136 q 464 -161 499 -156 q 344 -168 411 -168 q 97 -126 210 -168 l 128 -40 l 500 -40 z "},"¨":{"ha":536,"x_min":69,"x_max":467,"o":"m 83 815 q 76 824 83 815 q 69 878 69 832 q 83 941 69 924 q 141 958 97 958 q 199 941 185 958 q 213 878 213 924 q 199 815 213 832 q 141 799 185 799 q 83 815 97 799 m 338 815 q 331 824 338 815 q 324 878 324 832 q 338 941 324 924 q 395 958 351 958 q 453 941 439 958 q 467 878 467 924 q 453 815 467 832 q 395 799 439 799 q 338 815 351 799 z "},"©":{"ha":782,"x_min":42,"x_max":740,"o":"m 124 335 q 83 379 124 335 q 42 599 42 422 q 124 861 42 775 q 391 947 207 947 q 658 861 575 947 q 740 599 740 775 q 658 335 740 422 q 391 249 575 249 q 124 335 207 249 m 391 904 q 309 904 391 904 q 158 837 226 904 q 90 598 90 769 q 158 359 90 426 q 391 292 226 292 q 624 359 556 292 q 692 598 692 426 q 624 837 692 769 q 391 904 556 904 m 401 381 q 268 432 304 381 q 232 597 232 483 q 268 763 232 711 q 401 814 304 814 q 513 797 472 814 l 496 714 q 417 724 457 724 q 363 717 376 724 q 349 690 349 710 l 349 479 q 414 474 375 474 q 504 489 453 474 l 513 397 q 401 381 472 381 z "},"ª":{"ha":636,"x_min":79,"x_max":526,"o":"m 122 1039 q 313 1069 210 1069 q 472 1028 417 1069 q 526 882 526 988 l 526 494 l 464 494 l 436 553 q 251 478 369 478 q 79 660 79 478 q 138 792 79 756 q 342 828 197 828 l 417 828 l 417 961 q 306 965 375 965 q 149 942 238 965 l 122 1039 m 196 699 l 196 586 l 350 586 q 385 588 372 586 q 407 601 397 590 q 417 631 417 611 l 417 747 l 260 747 q 225 744 236 747 q 196 699 196 740 m 118 307 l 118 349 q 133 383 118 376 q 185 389 147 389 l 518 389 l 518 350 q 502 315 518 322 q 451 307 486 307 l 118 307 z "},"«":{"ha":600,"x_min":35,"x_max":565,"o":"m 35 403 l 244 617 l 293 579 l 160 347 l 293 115 l 244 78 l 35 290 l 35 403 m 307 403 l 517 617 l 565 579 l 432 347 l 565 115 l 517 78 l 307 290 l 307 403 z "},"¬":{"ha":792,"x_min":149,"x_max":642,"o":"m 149 378 l 149 489 l 642 489 l 642 228 l 532 228 l 532 378 l 149 378 z "},"®":{"ha":782,"x_min":42,"x_max":740,"o":"m 124 335 q 83 379 124 335 q 42 599 42 422 q 124 861 42 775 q 391 947 207 947 q 658 861 575 947 q 740 599 740 775 q 658 335 740 422 q 391 249 575 249 q 124 335 207 249 m 391 904 q 309 904 391 904 q 158 837 226 904 q 90 598 90 769 q 158 359 90 426 q 391 292 226 292 q 624 359 556 292 q 692 598 692 426 q 624 837 692 769 q 391 904 556 904 m 343 525 l 343 390 l 236 390 l 236 807 l 419 807 q 558 667 558 807 q 496 540 558 571 l 574 390 l 453 390 l 394 525 l 343 525 m 343 721 l 343 607 l 400 607 q 435 613 424 607 q 446 636 446 618 l 446 693 q 425 719 446 717 q 400 721 417 721 l 343 721 z "},"¯":{"ha":554,"x_min":108,"x_max":446,"o":"m 446 814 l 171 814 q 119 827 131 814 q 108 878 108 840 l 108 926 l 385 926 q 435 914 425 926 q 446 864 446 901 l 446 814 z "},"°":{"ha":565,"x_min":78,"x_max":488,"o":"m 283 532 q 229 532 283 532 q 126 583 175 532 q 78 737 78 633 q 126 891 78 840 q 283 942 175 942 q 439 891 390 942 q 488 737 488 840 q 439 583 488 633 q 283 532 390 532 m 194 781 l 194 640 l 282 640 q 328 642 314 640 q 356 657 343 644 q 368 694 368 669 l 368 833 l 289 833 q 238 831 254 833 q 208 817 221 829 q 194 781 194 806 z "},"±":{"ha":792,"x_min":149,"x_max":643,"o":"m 150 463 l 150 574 l 340 574 l 340 764 l 451 764 l 451 574 l 643 574 l 643 463 l 451 463 l 451 271 l 340 271 l 340 463 l 150 463 m 149 31 l 149 142 l 642 142 l 642 31 l 149 31 z "},"²":{"ha":518,"x_min":56,"x_max":464,"o":"m 69 999 q 266 1025 168 1025 q 414 994 364 1025 q 464 869 464 963 q 415 736 464 776 q 206 642 365 696 l 206 572 l 456 572 l 456 476 l 56 476 l 56 572 q 114 703 56 658 q 258 781 165 740 l 329 811 l 329 910 q 228 917 292 917 q 89 900 164 917 l 69 999 z "},"³":{"ha":518,"x_min":68,"x_max":469,"o":"m 68 481 q 89 593 81 556 q 219 575 161 575 q 325 581 276 575 l 325 682 l 181 703 l 181 785 l 325 808 l 325 910 q 233 917 290 917 q 97 901 176 917 l 78 994 q 266 1025 172 1025 q 408 1000 360 1025 q 456 896 456 975 q 379 769 456 817 l 379 761 q 469 629 469 713 q 424 504 469 543 q 311 467 386 472 q 215 464 283 464 q 68 481 146 464 z "},"´":{"ha":596,"x_min":150,"x_max":453,"o":"m 361 983 q 373 989 368 989 q 383 982 378 989 l 444 907 q 453 891 453 896 q 447 881 453 886 l 406 846 q 375 832 393 836 l 181 783 l 150 831 l 361 983 z "},"µ":{"ha":778,"x_min":125,"x_max":653,"o":"m 354 0 l 240 0 l 196 -229 l 125 -229 l 125 694 l 264 694 l 264 113 l 379 113 q 478 134 442 113 q 514 221 514 156 l 514 694 l 653 715 l 653 0 l 588 0 l 551 69 q 354 0 486 0 z "},"¶":{"ha":839,"x_min":97,"x_max":728,"o":"m 153 0 l 153 49 l 285 93 l 285 413 q 97 636 97 438 q 357 868 97 868 l 728 868 l 728 743 l 658 743 l 658 0 l 526 0 l 526 743 l 374 743 l 374 0 l 153 0 z "},"·":{"ha":307,"x_min":63,"x_max":244,"o":"m 81 224 q 72 236 81 224 q 63 311 63 249 q 81 399 63 374 q 153 424 100 424 q 226 399 207 424 q 244 311 244 374 q 226 224 244 249 q 154 200 208 200 q 81 224 100 200 z "},"¸":{"ha":369,"x_min":69,"x_max":300,"o":"m 190 -92 l 190 29 l 217 29 q 278 -28 256 11 q 300 -115 300 -68 q 266 -196 300 -162 q 176 -229 232 -229 q 69 -207 119 -229 l 82 -136 l 131 -136 q 176 -128 163 -136 q 190 -92 190 -119 z "},"¹":{"ha":518,"x_min":82,"x_max":471,"o":"m 232 890 l 82 878 l 82 967 l 271 1011 l 363 1011 l 363 572 l 471 572 l 471 476 l 82 476 l 82 572 l 232 572 l 232 890 z "},"º":{"ha":656,"x_min":90,"x_max":557,"o":"m 143 542 q 117 575 143 542 q 90 774 90 607 q 143 1005 90 940 q 324 1069 196 1069 q 504 1005 451 1069 q 557 774 557 940 q 504 542 557 607 q 324 478 451 478 q 143 542 196 478 m 217 942 l 217 572 l 365 572 q 415 578 399 572 q 431 607 431 585 l 431 976 l 281 976 q 232 970 247 976 q 217 942 217 964 m 118 307 l 118 349 q 133 383 118 376 q 185 389 147 389 l 518 389 l 518 350 q 502 315 518 322 q 451 307 486 307 l 118 307 z "},"»":{"ha":600,"x_min":35,"x_max":565,"o":"m 356 617 l 565 403 l 565 290 l 356 78 l 307 115 l 440 347 l 307 579 l 356 617 m 83 617 l 293 403 l 293 290 l 83 78 l 35 115 l 168 347 l 35 579 l 83 617 z "},"¼":{"ha":1349,"x_min":90,"x_max":1265,"o":"m 524 -56 l 453 -56 l 826 889 q 839 908 833 903 q 886 924 854 924 l 957 924 l 583 -21 q 571 -40 576 -35 q 524 -56 556 -56 m 811 179 q 946 535 842 261 l 1207 535 l 1207 194 l 1265 194 l 1265 97 l 1207 97 l 1207 0 l 1086 0 l 1086 97 l 811 97 l 811 179 m 1086 194 l 1086 449 l 1042 449 l 935 194 l 1086 194 m 240 747 l 90 735 l 90 824 l 279 868 l 371 868 l 371 429 l 479 429 l 479 333 l 90 333 l 90 429 l 240 429 l 240 747 z "},"½":{"ha":1349,"x_min":90,"x_max":1238,"o":"m 482 -56 l 411 -56 l 785 889 q 797 908 792 903 q 844 924 813 924 l 915 924 l 542 -21 q 529 -40 535 -35 q 482 -56 514 -56 m 843 522 q 1040 549 942 549 q 1188 517 1138 549 q 1238 393 1238 486 q 1188 260 1238 300 q 979 165 1139 219 l 979 96 l 1229 96 l 1229 0 l 829 0 l 829 96 q 888 225 829 182 q 1032 304 939 264 l 1103 335 l 1103 433 q 1001 440 1064 440 q 863 424 938 440 l 843 522 m 240 747 l 90 735 l 90 824 l 279 868 l 371 868 l 371 429 l 479 429 l 479 333 l 90 333 l 90 429 l 240 429 l 240 747 z "},"¾":{"ha":1349,"x_min":90,"x_max":1265,"o":"m 497 -56 l 426 -56 l 800 889 q 813 908 807 903 q 860 924 828 924 l 931 924 l 557 -21 q 544 -40 550 -35 q 497 -56 529 -56 m 811 179 q 946 535 842 261 l 1207 535 l 1207 194 l 1265 194 l 1265 97 l 1207 97 l 1207 0 l 1086 0 l 1086 97 l 811 97 l 811 179 m 1086 194 l 1086 449 l 1042 449 l 935 194 l 1086 194 m 347 767 q 256 774 313 774 q 119 758 199 774 l 100 851 q 288 882 194 882 q 430 857 382 882 q 478 753 478 832 q 401 626 478 674 l 401 618 q 492 486 492 569 q 446 361 492 400 q 333 322 408 329 q 237 321 306 321 q 90 338 168 321 l 111 450 q 241 432 183 432 q 347 438 299 432 l 347 539 l 203 560 l 203 642 l 347 665 l 347 767 z "},"¿":{"ha":581,"x_min":42,"x_max":525,"o":"m 383 400 q 400 199 388 342 q 383 167 400 179 q 314 138 365 156 l 181 92 l 181 -54 q 263 -57 206 -57 q 492 -29 400 -57 l 525 -144 q 324 -183 408 -183 q 201 -178 240 -183 q 121 -154 161 -172 q 42 7 42 -118 q 95 153 42 106 q 274 244 149 201 l 281 400 l 383 400 m 408 696 q 417 686 408 696 q 426 626 426 676 q 408 556 426 576 q 335 536 389 536 q 263 556 282 536 q 244 626 244 576 q 263 696 244 676 q 335 715 281 715 q 408 696 389 715 z "},"À":{"ha":763,"x_min":25,"x_max":738,"o":"m 590 0 l 543 190 l 218 190 l 172 0 l 25 0 l 250 868 l 513 868 l 738 0 l 590 0 m 353 740 l 249 315 l 513 315 l 410 740 l 353 740 m 190 1040 q 185 1051 185 1046 q 193 1067 185 1056 l 254 1142 q 265 1149 260 1149 q 276 1143 269 1149 l 488 990 l 457 943 l 263 992 q 232 1006 244 996 l 190 1040 z "},"Á":{"ha":763,"x_min":25,"x_max":738,"o":"m 590 0 l 543 190 l 218 190 l 172 0 l 25 0 l 250 868 l 513 868 l 738 0 l 590 0 m 353 740 l 249 315 l 513 315 l 410 740 l 353 740 m 444 1136 q 456 1142 451 1142 q 467 1135 461 1142 l 528 1060 q 536 1044 536 1049 q 531 1033 536 1039 l 489 999 q 458 985 476 989 l 264 936 l 233 983 l 444 1136 z "},"Â":{"ha":763,"x_min":25,"x_max":738,"o":"m 590 0 l 543 190 l 218 190 l 172 0 l 25 0 l 250 868 l 513 868 l 738 0 l 590 0 m 353 740 l 249 315 l 513 315 l 410 740 l 353 740 m 368 1161 l 393 1161 q 407 1153 400 1161 l 565 992 l 510 944 l 381 1033 l 251 944 l 196 992 l 354 1153 q 368 1161 361 1161 z "},"Ã":{"ha":763,"x_min":25,"x_max":738,"o":"m 590 0 l 543 190 l 218 190 l 172 0 l 25 0 l 250 868 l 513 868 l 738 0 l 590 0 m 353 740 l 249 315 l 513 315 l 410 740 l 353 740 m 542 1017 q 457 966 481 976 q 406 956 433 956 q 333 999 378 956 l 313 1015 l 221 969 l 178 1040 l 219 1069 q 304 1120 282 1110 q 353 1131 326 1131 q 428 1088 381 1131 l 449 1071 l 540 1117 l 583 1046 l 542 1017 z "},"Ä":{"ha":763,"x_min":25,"x_max":738,"o":"m 590 0 l 543 190 l 218 190 l 172 0 l 25 0 l 250 868 l 513 868 l 738 0 l 590 0 m 353 740 l 249 315 l 513 315 l 410 740 l 353 740 m 196 988 q 189 996 196 988 q 182 1050 182 1004 q 196 1113 182 1096 q 253 1131 210 1131 q 311 1113 297 1131 q 325 1050 325 1096 q 311 988 325 1004 q 253 971 297 971 q 196 988 210 971 m 450 988 q 443 996 450 988 q 436 1050 436 1004 q 450 1113 436 1096 q 508 1131 464 1131 q 565 1113 551 1131 q 579 1050 579 1096 q 565 988 579 1004 q 508 971 551 971 q 450 988 464 971 z "},"Å":{"ha":763,"x_min":25,"x_max":738,"o":"m 590 0 l 543 190 l 218 190 l 172 0 l 25 0 l 250 868 l 513 868 l 738 0 l 590 0 m 353 740 l 249 315 l 513 315 l 410 740 l 353 740 m 277 955 q 261 972 277 955 q 244 1058 244 989 q 277 1161 244 1128 q 382 1194 310 1194 q 486 1161 454 1194 q 518 1058 518 1128 q 486 955 518 989 q 382 921 454 921 q 277 955 310 921 m 322 1088 l 322 993 l 381 993 q 411 994 401 993 q 439 1029 439 999 l 439 1122 l 385 1122 q 333 1113 343 1122 q 322 1088 322 1103 z "},"Æ":{"ha":1022,"x_min":25,"x_max":988,"o":"m 860 488 l 860 369 l 642 369 l 704 125 l 988 125 l 988 0 l 590 0 l 543 190 l 218 190 l 172 0 l 25 0 l 250 868 l 918 868 l 897 743 l 544 743 l 611 488 l 860 488 m 353 740 l 249 315 l 513 315 l 410 740 l 353 740 z "},"Ç":{"ha":618,"x_min":69,"x_max":583,"o":"m 332 -92 l 332 -12 q 123 90 176 -3 q 69 444 69 183 q 131 797 69 706 q 381 889 193 889 q 569 860 493 889 l 549 738 q 369 757 454 757 q 253 742 283 757 q 222 679 222 726 l 222 136 q 376 115 288 115 q 569 143 465 115 l 583 15 q 410 -14 513 -10 q 442 -110 442 -57 q 408 -196 442 -162 q 317 -229 374 -229 q 211 -207 261 -229 l 224 -136 l 272 -136 q 318 -128 304 -136 q 332 -92 332 -119 z "},"È":{"ha":632,"x_min":97,"x_max":576,"o":"m 514 369 l 236 369 l 236 125 l 576 125 l 576 0 l 97 0 l 97 868 l 569 868 l 549 743 l 236 743 l 236 488 l 514 488 l 514 369 m 183 1040 q 178 1051 178 1046 q 186 1067 178 1056 l 247 1142 q 258 1149 253 1149 q 269 1143 263 1149 l 481 990 l 450 943 l 256 992 q 225 1006 238 996 l 183 1040 z "},"É":{"ha":632,"x_min":97,"x_max":576,"o":"m 514 369 l 236 369 l 236 125 l 576 125 l 576 0 l 97 0 l 97 868 l 569 868 l 549 743 l 236 743 l 236 488 l 514 488 l 514 369 m 403 1136 q 415 1142 410 1142 q 425 1135 419 1142 l 486 1060 q 494 1044 494 1049 q 489 1033 494 1039 l 447 999 q 417 985 435 989 l 222 936 l 192 983 l 403 1136 z "},"Ê":{"ha":632,"x_min":97,"x_max":576,"o":"m 514 369 l 236 369 l 236 125 l 576 125 l 576 0 l 97 0 l 97 868 l 569 868 l 549 743 l 236 743 l 236 488 l 514 488 l 514 369 m 328 1161 l 353 1161 q 367 1153 361 1161 l 525 992 l 469 944 l 340 1033 l 211 944 l 156 992 l 314 1153 q 328 1161 319 1161 z "},"Ë":{"ha":632,"x_min":97,"x_max":576,"o":"m 514 369 l 236 369 l 236 125 l 576 125 l 576 0 l 97 0 l 97 868 l 569 868 l 549 743 l 236 743 l 236 488 l 514 488 l 514 369 m 158 988 q 151 996 158 988 q 144 1050 144 1004 q 158 1113 144 1096 q 216 1131 172 1131 q 274 1113 260 1131 q 288 1050 288 1096 q 274 988 288 1004 q 216 971 260 971 q 158 988 172 971 m 413 988 q 406 996 413 988 q 399 1050 399 1004 q 413 1113 399 1096 q 470 1131 426 1131 q 528 1113 514 1131 q 542 1050 542 1096 q 528 988 542 1004 q 470 971 514 971 q 413 988 426 971 z "},"Ì":{"ha":333,"x_min":-29,"x_max":274,"o":"m 97 0 l 97 868 l 236 868 l 236 0 l 97 0 m -24 1040 q -29 1051 -29 1046 q -21 1067 -29 1056 l 40 1142 q 51 1149 46 1149 q 63 1143 56 1149 l 274 990 l 243 943 l 49 992 q 18 1006 31 996 l -24 1040 z "},"Í":{"ha":333,"x_min":19,"x_max":322,"o":"m 97 0 l 97 868 l 236 868 l 236 0 l 97 0 m 231 1136 q 242 1142 238 1142 q 253 1135 247 1142 l 314 1060 q 322 1044 322 1049 q 317 1033 322 1039 l 275 999 q 244 985 263 989 l 50 936 l 19 983 l 231 1136 z "},"Î":{"ha":333,"x_min":-18,"x_max":351,"o":"m 97 0 l 97 868 l 236 868 l 236 0 l 97 0 m 154 1161 l 179 1161 q 193 1153 186 1161 l 351 992 l 296 944 l 167 1033 l 38 944 l -18 992 l 140 1153 q 154 1161 146 1161 z "},"Ï":{"ha":333,"x_min":-32,"x_max":365,"o":"m 97 0 l 97 868 l 236 868 l 236 0 l 97 0 m -18 988 q -25 996 -18 988 q -32 1050 -32 1004 q -18 1113 -32 1096 q 40 1131 -4 1131 q 97 1113 83 1131 q 111 1050 111 1096 q 97 988 111 1004 q 40 971 83 971 q -18 988 -4 971 m 236 988 q 229 996 236 988 q 222 1050 222 1004 q 236 1113 222 1096 q 294 1131 250 1131 q 351 1113 338 1131 q 365 1050 365 1096 q 351 988 365 1004 q 294 971 338 971 q 236 988 250 971 z "},"Ð":{"ha":779,"x_min":17,"x_max":710,"o":"m 97 0 l 97 375 l 17 375 l 17 453 q 69 488 17 488 l 97 488 l 97 868 l 367 868 q 541 852 478 868 q 644 785 604 836 q 697 655 685 735 q 710 434 710 575 q 697 213 710 293 q 644 83 685 133 q 541 16 604 32 q 367 0 478 0 l 97 0 m 449 743 l 236 743 l 236 488 l 358 488 l 358 411 q 325 378 358 382 q 289 375 313 375 l 236 375 l 236 125 l 449 125 q 531 138 506 125 q 557 199 557 151 l 557 669 q 531 730 557 717 q 449 743 506 743 z "},"Ñ":{"ha":799,"x_min":97,"x_max":701,"o":"m 236 636 l 236 0 l 97 0 l 97 868 l 247 868 l 543 299 q 557 232 554 283 l 563 232 l 563 868 l 701 868 l 701 0 l 551 0 l 256 569 q 242 636 244 585 l 236 636 m 560 1017 q 475 966 499 976 q 424 956 451 956 q 351 999 396 956 l 331 1015 l 239 969 l 196 1040 l 238 1069 q 322 1120 300 1110 q 372 1131 344 1131 q 446 1088 399 1131 l 467 1071 l 558 1117 l 601 1046 l 560 1017 z "},"Ò":{"ha":807,"x_min":69,"x_max":738,"o":"m 403 -21 q 303 -21 403 -21 q 136 71 203 -21 q 69 434 69 163 q 136 797 69 706 q 403 889 203 889 q 670 797 603 889 q 738 433 738 704 q 670 71 738 163 q 403 -21 603 -21 m 222 675 l 222 119 l 476 119 q 559 133 533 119 q 585 193 585 146 l 585 749 l 329 749 q 248 735 274 749 q 222 675 222 722 m 211 1040 q 206 1051 206 1046 q 214 1067 206 1056 l 275 1142 q 285 1149 281 1149 q 297 1143 290 1149 l 508 990 l 478 943 l 283 992 q 253 1006 265 996 l 211 1040 z "},"Ó":{"ha":807,"x_min":69,"x_max":738,"o":"m 403 -21 q 303 -21 403 -21 q 136 71 203 -21 q 69 434 69 163 q 136 797 69 706 q 403 889 203 889 q 670 797 603 889 q 738 433 738 704 q 670 71 738 163 q 403 -21 603 -21 m 222 675 l 222 119 l 476 119 q 559 133 533 119 q 585 193 585 146 l 585 749 l 329 749 q 248 735 274 749 q 222 675 222 722 m 467 1136 q 478 1142 474 1142 q 489 1135 483 1142 l 550 1060 q 558 1044 558 1049 q 553 1033 558 1039 l 511 999 q 481 985 499 989 l 286 936 l 256 983 l 467 1136 z "},"Ô":{"ha":807,"x_min":69,"x_max":738,"o":"m 403 -21 q 303 -21 403 -21 q 136 71 203 -21 q 69 434 69 163 q 136 797 69 706 q 403 889 203 889 q 670 797 603 889 q 738 433 738 704 q 670 71 738 163 q 403 -21 603 -21 m 222 675 l 222 119 l 476 119 q 559 133 533 119 q 585 193 585 146 l 585 749 l 329 749 q 248 735 274 749 q 222 675 222 722 m 390 1161 l 415 1161 q 429 1153 422 1161 l 588 992 l 532 944 l 403 1033 l 274 944 l 218 992 l 376 1153 q 390 1161 383 1161 z "},"Õ":{"ha":807,"x_min":69,"x_max":738,"o":"m 403 -21 q 303 -21 403 -21 q 136 71 203 -21 q 69 434 69 163 q 136 797 69 706 q 403 889 203 889 q 670 797 603 889 q 738 433 738 704 q 670 71 738 163 q 403 -21 603 -21 m 222 675 l 222 119 l 476 119 q 559 133 533 119 q 585 193 585 146 l 585 749 l 329 749 q 248 735 274 749 q 222 675 222 722 m 564 1017 q 479 966 503 976 q 428 956 456 956 q 356 999 400 956 l 335 1015 l 243 969 l 200 1040 l 242 1069 q 326 1120 304 1110 q 376 1131 349 1131 q 450 1088 403 1131 l 471 1071 l 563 1117 l 606 1046 l 564 1017 z "},"Ö":{"ha":807,"x_min":69,"x_max":738,"o":"m 403 -21 q 303 -21 403 -21 q 136 71 203 -21 q 69 434 69 163 q 136 797 69 706 q 403 889 203 889 q 670 797 603 889 q 738 433 738 704 q 670 71 738 163 q 403 -21 603 -21 m 222 675 l 222 119 l 476 119 q 559 133 533 119 q 585 193 585 146 l 585 749 l 329 749 q 248 735 274 749 q 222 675 222 722 m 218 988 q 211 996 218 988 q 204 1050 204 1004 q 218 1113 204 1096 q 276 1131 232 1131 q 333 1113 319 1131 q 347 1050 347 1096 q 333 988 347 1004 q 276 971 319 971 q 218 988 232 971 m 472 988 q 465 996 472 988 q 458 1050 458 1004 q 472 1113 458 1096 q 530 1131 486 1131 q 588 1113 574 1131 q 601 1050 601 1096 q 588 988 601 1004 q 530 971 574 971 q 472 988 486 971 z "},"×":{"ha":792,"x_min":151,"x_max":638,"o":"m 231 190 l 151 268 l 315 432 l 151 597 l 231 675 l 394 511 l 560 676 l 638 597 l 472 432 l 638 268 l 560 189 l 394 354 l 231 190 z "},"Ø":{"ha":807,"x_min":69,"x_max":738,"o":"m 738 433 q 670 71 738 163 q 403 -21 603 -21 q 242 -1 301 -21 l 233 -21 q 221 -40 226 -35 q 174 -56 206 -56 l 117 -56 l 164 42 q 90 179 111 88 q 69 433 69 271 q 136 797 69 706 q 403 889 203 889 q 564 869 504 889 l 574 889 q 586 908 581 903 q 633 924 601 924 l 690 924 l 643 826 q 716 687 694 779 q 738 433 738 594 m 222 675 l 222 163 l 506 749 l 329 749 q 248 735 274 749 q 222 675 222 722 m 476 119 q 559 133 533 119 q 585 193 585 146 l 585 706 l 301 119 l 476 119 z "},"Ù":{"ha":788,"x_min":90,"x_max":697,"o":"m 697 868 l 697 313 q 667 89 697 140 q 578 6 631 25 q 418 -21 504 -21 q 286 -13 332 -21 q 208 6 240 -6 q 153 42 175 18 q 119 88 132 65 q 100 150 107 111 q 90 313 90 217 l 90 868 l 229 868 l 229 119 l 400 119 q 524 133 490 119 q 558 193 558 146 l 558 868 l 697 868 m 203 1040 q 197 1051 197 1046 q 206 1067 197 1056 l 267 1142 q 277 1149 272 1149 q 289 1143 282 1149 l 500 990 l 469 943 l 275 992 q 244 1006 257 996 l 203 1040 z "},"Ú":{"ha":788,"x_min":90,"x_max":697,"o":"m 697 868 l 697 313 q 667 89 697 140 q 578 6 631 25 q 418 -21 504 -21 q 286 -13 332 -21 q 208 6 240 -6 q 153 42 175 18 q 119 88 132 65 q 100 150 107 111 q 90 313 90 217 l 90 868 l 229 868 l 229 119 l 400 119 q 524 133 490 119 q 558 193 558 146 l 558 868 l 697 868 m 457 1136 q 469 1142 464 1142 q 479 1135 474 1142 l 540 1060 q 549 1044 549 1049 q 543 1033 549 1039 l 501 999 q 471 985 489 989 l 276 936 l 246 983 l 457 1136 z "},"Û":{"ha":788,"x_min":90,"x_max":697,"o":"m 697 868 l 697 313 q 667 89 697 140 q 578 6 631 25 q 418 -21 504 -21 q 286 -13 332 -21 q 208 6 240 -6 q 153 42 175 18 q 119 88 132 65 q 100 150 107 111 q 90 313 90 217 l 90 868 l 229 868 l 229 119 l 400 119 q 524 133 490 119 q 558 193 558 146 l 558 868 l 697 868 m 381 1161 l 406 1161 q 419 1153 414 1161 l 578 992 l 522 944 l 393 1033 l 264 944 l 208 992 l 367 1153 q 381 1161 372 1161 z "},"Ü":{"ha":788,"x_min":90,"x_max":697,"o":"m 697 868 l 697 313 q 667 89 697 140 q 578 6 631 25 q 418 -21 504 -21 q 286 -13 332 -21 q 208 6 240 -6 q 153 42 175 18 q 119 88 132 65 q 100 150 107 111 q 90 313 90 217 l 90 868 l 229 868 l 229 119 l 400 119 q 524 133 490 119 q 558 193 558 146 l 558 868 l 697 868 m 208 988 q 201 996 208 988 q 194 1050 194 1004 q 208 1113 194 1096 q 266 1131 222 1131 q 324 1113 310 1131 q 338 1050 338 1096 q 324 988 338 1004 q 266 971 310 971 q 208 988 222 971 m 463 988 q 456 996 463 988 q 449 1050 449 1004 q 463 1113 449 1096 q 520 1131 476 1131 q 578 1113 564 1131 q 592 1050 592 1096 q 578 988 592 1004 q 520 971 564 971 q 463 988 476 971 z "},"Ý":{"ha":653,"x_min":14,"x_max":639,"o":"m 396 0 l 257 0 l 257 278 l 14 868 l 161 868 l 321 438 l 331 438 l 492 868 l 639 868 l 396 278 l 396 0 m 411 1156 q 423 1161 418 1161 q 433 1154 428 1161 l 494 1079 q 503 1063 503 1068 q 497 1053 503 1058 l 456 1018 q 425 1004 443 1008 l 231 956 l 200 1003 l 411 1156 z "},"Þ":{"ha":728,"x_min":97,"x_max":658,"o":"m 401 136 l 235 136 l 235 0 l 97 0 l 97 868 l 235 868 l 235 732 l 381 732 q 603 664 549 732 q 658 442 658 596 q 651 326 658 372 q 619 233 643 281 q 401 136 572 136 m 235 607 l 235 261 l 410 261 q 483 272 460 261 q 506 319 506 282 l 506 549 q 483 597 506 586 q 410 607 460 607 l 235 607 z "},"ß":{"ha":868,"x_min":69,"x_max":826,"o":"m 667 272 q 447 403 447 272 q 479 481 447 438 q 544 575 511 524 q 576 688 576 626 q 417 819 576 819 q 306 808 367 819 l 306 0 l 167 0 l 167 583 l 69 583 l 69 694 l 167 694 l 171 750 q 253 894 179 850 q 433 938 328 938 q 688 831 633 938 q 711 715 711 785 q 569 422 711 582 q 753 366 681 422 q 826 197 826 310 q 750 32 826 85 q 569 -21 674 -21 q 358 11 464 -21 l 397 147 q 554 114 490 114 q 667 124 618 114 l 667 272 z "},"à":{"ha":740,"x_min":76,"x_max":622,"o":"m 217 113 l 375 113 q 460 128 436 113 q 485 193 485 143 l 485 317 l 326 317 q 241 301 265 317 q 217 236 217 286 l 217 113 m 279 -14 q 76 201 76 -14 q 158 380 76 326 q 396 433 239 433 l 485 433 l 485 572 q 381 578 442 578 q 156 549 239 578 l 139 665 q 387 708 268 708 q 564 669 506 708 q 622 513 622 629 l 622 0 l 558 0 l 521 69 q 279 -14 428 -14 m 219 867 q 214 877 214 872 q 222 893 214 882 l 283 968 q 294 975 289 975 q 306 969 299 975 l 517 817 l 486 769 l 292 818 q 261 832 274 822 l 219 867 z "},"á":{"ha":740,"x_min":76,"x_max":622,"o":"m 217 113 l 375 113 q 460 128 436 113 q 485 193 485 143 l 485 317 l 326 317 q 241 301 265 317 q 217 236 217 286 l 217 113 m 279 -14 q 76 201 76 -14 q 158 380 76 326 q 396 433 239 433 l 485 433 l 485 572 q 381 578 442 578 q 156 549 239 578 l 139 665 q 387 708 268 708 q 564 669 506 708 q 622 513 622 629 l 622 0 l 558 0 l 521 69 q 279 -14 428 -14 m 475 983 q 487 989 482 989 q 497 982 492 989 l 558 907 q 567 891 567 896 q 561 881 567 886 l 519 846 q 489 832 507 836 l 294 783 l 264 831 l 475 983 z "},"â":{"ha":740,"x_min":76,"x_max":622,"o":"m 217 113 l 375 113 q 460 128 436 113 q 485 193 485 143 l 485 317 l 326 317 q 241 301 265 317 q 217 236 217 286 l 217 113 m 279 -14 q 76 201 76 -14 q 158 380 76 326 q 396 433 239 433 l 485 433 l 485 572 q 381 578 442 578 q 156 549 239 578 l 139 665 q 387 708 268 708 q 564 669 506 708 q 622 513 622 629 l 622 0 l 558 0 l 521 69 q 279 -14 428 -14 m 350 989 l 375 989 q 389 981 383 989 l 547 819 l 492 772 l 363 861 l 233 772 l 178 819 l 336 981 q 350 989 342 989 z "},"ã":{"ha":740,"x_min":76,"x_max":622,"o":"m 217 113 l 375 113 q 460 128 436 113 q 485 193 485 143 l 485 317 l 326 317 q 241 301 265 317 q 217 236 217 286 l 217 113 m 279 -14 q 76 201 76 -14 q 158 380 76 326 q 396 433 239 433 l 485 433 l 485 572 q 381 578 442 578 q 156 549 239 578 l 139 665 q 387 708 268 708 q 564 669 506 708 q 622 513 622 629 l 622 0 l 558 0 l 521 69 q 279 -14 428 -14 m 525 844 q 440 794 464 804 q 389 783 417 783 q 317 826 361 783 l 296 843 l 204 797 l 161 868 l 203 897 q 288 948 265 938 q 337 958 310 958 q 411 915 364 958 l 432 899 l 524 944 l 567 874 l 525 844 z "},"ä":{"ha":740,"x_min":76,"x_max":622,"o":"m 217 113 l 375 113 q 460 128 436 113 q 485 193 485 143 l 485 317 l 326 317 q 241 301 265 317 q 217 236 217 286 l 217 113 m 279 -14 q 76 201 76 -14 q 158 380 76 326 q 396 433 239 433 l 485 433 l 485 572 q 381 578 442 578 q 156 549 239 578 l 139 665 q 387 708 268 708 q 564 669 506 708 q 622 513 622 629 l 622 0 l 558 0 l 521 69 q 279 -14 428 -14 m 199 815 q 192 824 199 815 q 185 878 185 832 q 199 941 185 924 q 256 958 213 958 q 314 941 300 958 q 328 878 328 924 q 314 815 328 832 q 256 799 300 799 q 199 815 213 799 m 453 815 q 446 824 453 815 q 439 878 439 832 q 453 941 439 924 q 510 958 467 958 q 568 941 554 958 q 582 878 582 924 q 568 815 582 832 q 510 799 554 799 q 453 815 467 799 z "},"å":{"ha":740,"x_min":76,"x_max":622,"o":"m 217 113 l 375 113 q 460 128 436 113 q 485 193 485 143 l 485 317 l 326 317 q 241 301 265 317 q 217 236 217 286 l 217 113 m 279 -14 q 76 201 76 -14 q 158 380 76 326 q 396 433 239 433 l 485 433 l 485 572 q 381 578 442 578 q 156 549 239 578 l 139 665 q 387 708 268 708 q 564 669 506 708 q 622 513 622 629 l 622 0 l 558 0 l 521 69 q 279 -14 428 -14 m 280 783 q 264 800 280 783 q 247 886 247 817 q 280 989 247 956 q 385 1022 313 1022 q 489 989 457 1022 q 521 886 521 956 q 489 783 521 817 q 385 749 457 749 q 280 783 313 749 m 325 915 l 325 821 l 383 821 q 414 822 404 821 q 442 857 442 826 l 442 950 l 388 950 q 335 940 346 950 q 325 915 325 931 z "},"æ":{"ha":1115,"x_min":76,"x_max":1032,"o":"m 1008 28 q 776 -11 892 -11 q 606 6 660 -11 q 521 69 551 24 q 279 -14 428 -14 q 76 201 76 -14 q 158 380 76 326 q 396 433 239 433 l 485 433 l 485 572 q 381 578 442 578 q 156 549 239 578 l 139 665 q 389 708 268 708 q 564 649 510 708 q 772 715 626 715 q 974 670 917 715 q 1032 486 1032 625 q 1016 366 1032 396 q 988 320 1000 336 q 947 293 976 304 q 894 276 918 282 q 822 267 869 271 q 622 263 754 263 l 622 125 q 775 110 686 110 q 983 143 864 110 l 1008 28 m 890 583 l 732 583 q 648 569 674 583 q 622 513 622 554 l 622 379 l 781 379 q 866 394 842 379 q 890 460 890 410 l 890 583 m 217 113 l 375 113 q 460 128 436 113 q 485 193 485 143 l 485 317 l 326 317 q 241 301 265 317 q 217 236 217 286 l 217 113 z "},"ç":{"ha":579,"x_min":94,"x_max":538,"o":"m 307 -92 l 307 -11 q 140 73 185 -3 q 94 355 94 149 q 155 635 94 561 q 372 708 215 708 q 535 683 460 708 l 504 567 q 369 582 419 582 q 246 482 246 582 l 246 114 q 369 107 299 107 q 521 132 440 107 l 538 14 q 383 -12 474 -8 q 417 -109 417 -56 q 383 -196 417 -162 q 292 -229 349 -229 q 186 -207 236 -229 l 199 -136 l 247 -136 q 293 -128 279 -136 q 307 -92 307 -119 z "},"è":{"ha":740,"x_min":94,"x_max":657,"o":"m 515 583 l 357 583 q 272 568 296 583 q 247 503 247 553 l 247 379 l 406 379 q 491 394 467 379 q 515 460 515 410 l 515 583 m 633 28 q 390 -11 517 -11 q 206 18 264 -11 q 122 124 149 47 q 94 347 94 200 q 158 639 94 563 q 381 715 221 715 q 599 670 542 715 q 657 486 657 625 q 641 366 657 396 q 613 320 625 336 q 572 293 601 304 q 519 276 543 282 q 447 267 494 271 q 247 263 379 263 l 247 125 q 400 110 311 110 q 608 143 489 110 l 633 28 m 222 867 q 217 877 217 872 q 225 893 217 882 l 286 968 q 297 975 292 975 q 308 969 301 975 l 519 817 l 489 769 l 294 818 q 264 832 276 822 l 222 867 z "},"é":{"ha":740,"x_min":94,"x_max":657,"o":"m 515 583 l 357 583 q 272 568 296 583 q 247 503 247 553 l 247 379 l 406 379 q 491 394 467 379 q 515 460 515 410 l 515 583 m 633 28 q 390 -11 517 -11 q 206 18 264 -11 q 122 124 149 47 q 94 347 94 200 q 158 639 94 563 q 381 715 221 715 q 599 670 542 715 q 657 486 657 625 q 641 366 657 396 q 613 320 625 336 q 572 293 601 304 q 519 276 543 282 q 447 267 494 271 q 247 263 379 263 l 247 125 q 400 110 311 110 q 608 143 489 110 l 633 28 m 483 983 q 495 989 490 989 q 506 982 500 989 l 567 907 q 575 891 575 896 q 569 881 575 886 l 528 846 q 497 832 515 836 l 303 783 l 272 831 l 483 983 z "},"ê":{"ha":740,"x_min":94,"x_max":657,"o":"m 515 583 l 357 583 q 272 568 296 583 q 247 503 247 553 l 247 379 l 406 379 q 491 394 467 379 q 515 460 515 410 l 515 583 m 633 28 q 390 -11 517 -11 q 206 18 264 -11 q 122 124 149 47 q 94 347 94 200 q 158 639 94 563 q 381 715 221 715 q 599 670 542 715 q 657 486 657 625 q 641 366 657 396 q 613 320 625 336 q 572 293 601 304 q 519 276 543 282 q 447 267 494 271 q 247 263 379 263 l 247 125 q 400 110 311 110 q 608 143 489 110 l 633 28 m 358 989 l 383 989 q 397 981 392 989 l 556 819 l 500 772 l 371 861 l 242 772 l 186 819 l 344 981 q 358 989 350 989 z "},"ë":{"ha":740,"x_min":94,"x_max":657,"o":"m 515 583 l 357 583 q 272 568 296 583 q 247 503 247 553 l 247 379 l 406 379 q 491 394 467 379 q 515 460 515 410 l 515 583 m 633 28 q 390 -11 517 -11 q 206 18 264 -11 q 122 124 149 47 q 94 347 94 200 q 158 639 94 563 q 381 715 221 715 q 599 670 542 715 q 657 486 657 625 q 641 366 657 396 q 613 320 625 336 q 572 293 601 304 q 519 276 543 282 q 447 267 494 271 q 247 263 379 263 l 247 125 q 400 110 311 110 q 608 143 489 110 l 633 28 m 188 815 q 181 824 188 815 q 174 878 174 832 q 188 941 174 924 q 245 958 201 958 q 303 941 289 958 q 317 878 317 924 q 303 815 317 832 q 245 799 289 799 q 188 815 201 799 m 442 815 q 435 824 442 815 q 428 878 428 832 q 442 941 428 924 q 499 958 456 958 q 557 941 543 958 q 571 878 571 924 q 557 815 571 832 q 499 799 543 799 q 442 815 456 799 z "},"ì":{"ha":389,"x_min":8,"x_max":311,"o":"m 14 867 q 8 877 8 872 q 17 893 8 882 l 78 968 q 88 975 83 975 q 100 969 93 975 l 311 817 l 281 769 l 86 818 q 56 832 68 822 l 14 867 m 125 0 l 125 685 l 264 706 l 264 0 l 125 0 z "},"í":{"ha":389,"x_min":104,"x_max":407,"o":"m 315 983 q 327 989 322 989 q 338 982 332 989 l 399 907 q 407 891 407 896 q 401 881 407 886 l 360 846 q 329 832 347 836 l 135 783 l 104 831 l 315 983 m 125 0 l 125 685 l 264 706 l 264 0 l 125 0 z "},"î":{"ha":389,"x_min":19,"x_max":389,"o":"m 192 989 l 217 989 q 231 981 225 989 l 389 819 l 333 772 l 204 861 l 75 772 l 19 819 l 178 981 q 192 989 183 989 m 125 0 l 125 685 l 264 706 l 264 0 l 125 0 z "},"ï":{"ha":389,"x_min":6,"x_max":403,"o":"m 125 0 l 125 685 l 264 706 l 264 0 l 125 0 m 19 815 q 13 824 19 815 q 6 878 6 832 q 19 941 6 924 q 77 958 33 958 q 135 941 121 958 q 149 878 149 924 q 135 815 149 832 q 77 799 121 799 q 19 815 33 799 m 274 815 q 267 824 274 815 q 260 878 260 832 q 274 941 260 924 q 331 958 288 958 q 389 941 375 958 q 403 878 403 924 q 389 815 403 832 q 331 799 375 799 q 274 815 288 799 z "},"ð":{"ha":714,"x_min":69,"x_max":644,"o":"m 553 817 q 510 779 553 794 l 460 763 l 542 633 q 644 301 644 469 q 585 56 644 132 q 357 -21 525 -21 q 129 56 189 -21 q 69 298 69 132 q 152 541 69 464 q 413 618 235 618 l 344 724 l 221 683 l 200 744 q 197 758 197 756 q 240 796 197 781 l 289 813 l 229 908 l 358 924 l 404 850 l 529 892 l 550 831 q 553 817 553 819 m 221 113 l 383 113 q 469 128 444 113 q 493 193 493 143 l 493 485 l 331 485 q 245 469 269 485 q 221 404 221 454 l 221 113 z "},"ñ":{"ha":771,"x_min":125,"x_max":653,"o":"m 514 708 q 619 678 585 708 q 653 569 653 649 l 653 0 l 514 0 l 514 567 l 374 567 q 288 551 313 567 q 264 486 264 536 l 264 0 l 125 0 l 125 694 l 189 694 l 240 611 q 514 708 385 708 m 546 844 q 461 794 485 804 q 410 783 438 783 q 338 826 382 783 l 317 843 l 225 797 l 182 868 l 224 897 q 308 948 286 938 q 358 958 331 958 q 432 915 385 958 l 453 899 l 544 944 l 588 874 l 546 844 z "},"ò":{"ha":764,"x_min":94,"x_max":669,"o":"m 154 65 q 124 108 154 65 q 94 347 94 151 q 154 629 94 543 q 382 715 214 715 q 610 629 550 715 q 669 347 669 543 q 610 65 669 151 q 382 -21 550 -21 q 154 65 214 -21 m 246 113 l 408 113 q 494 128 469 113 q 518 193 518 143 l 518 582 l 356 582 q 270 567 294 582 q 246 501 246 551 l 246 113 m 190 867 q 185 877 185 872 q 193 893 185 882 l 254 968 q 265 975 260 975 q 276 969 269 975 l 488 817 l 457 769 l 263 818 q 232 832 244 822 l 190 867 z "},"ó":{"ha":764,"x_min":94,"x_max":669,"o":"m 154 65 q 124 108 154 65 q 94 347 94 151 q 154 629 94 543 q 382 715 214 715 q 610 629 550 715 q 669 347 669 543 q 610 65 669 151 q 382 -21 550 -21 q 154 65 214 -21 m 246 113 l 408 113 q 494 128 469 113 q 518 193 518 143 l 518 582 l 356 582 q 270 567 294 582 q 246 501 246 551 l 246 113 m 493 983 q 505 989 500 989 q 515 982 510 989 l 576 907 q 585 891 585 896 q 579 881 585 886 l 538 846 q 507 832 525 836 l 313 783 l 282 831 l 493 983 z "},"ô":{"ha":764,"x_min":94,"x_max":669,"o":"m 154 65 q 124 108 154 65 q 94 347 94 151 q 154 629 94 543 q 382 715 214 715 q 610 629 550 715 q 669 347 669 543 q 610 65 669 151 q 382 -21 550 -21 q 154 65 214 -21 m 246 113 l 408 113 q 494 128 469 113 q 518 193 518 143 l 518 582 l 356 582 q 270 567 294 582 q 246 501 246 551 l 246 113 m 368 989 l 393 989 q 407 981 400 989 l 565 819 l 510 772 l 381 861 l 251 772 l 196 819 l 354 981 q 368 989 361 989 z "},"õ":{"ha":764,"x_min":94,"x_max":669,"o":"m 154 65 q 124 108 154 65 q 94 347 94 151 q 154 629 94 543 q 382 715 214 715 q 610 629 550 715 q 669 347 669 543 q 610 65 669 151 q 382 -21 550 -21 q 154 65 214 -21 m 246 113 l 408 113 q 494 128 469 113 q 518 193 518 143 l 518 582 l 356 582 q 270 567 294 582 q 246 501 246 551 l 246 113 m 543 844 q 458 794 482 804 q 407 783 435 783 q 335 826 379 783 l 314 843 l 222 797 l 179 868 l 221 897 q 306 948 283 938 q 355 958 328 958 q 429 915 382 958 l 450 899 l 542 944 l 585 874 l 543 844 z "},"ö":{"ha":764,"x_min":94,"x_max":669,"o":"m 154 65 q 124 108 154 65 q 94 347 94 151 q 154 629 94 543 q 382 715 214 715 q 610 629 550 715 q 669 347 669 543 q 610 65 669 151 q 382 -21 550 -21 q 154 65 214 -21 m 246 113 l 408 113 q 494 128 469 113 q 518 193 518 143 l 518 582 l 356 582 q 270 567 294 582 q 246 501 246 551 l 246 113 m 197 815 q 190 824 197 815 q 183 878 183 832 q 197 941 183 924 q 255 958 211 958 q 313 941 299 958 q 326 878 326 924 q 313 815 326 832 q 255 799 299 799 q 197 815 211 799 m 451 815 q 444 824 451 815 q 438 878 438 832 q 451 941 438 924 q 509 958 465 958 q 567 941 553 958 q 581 878 581 924 q 567 815 581 832 q 509 799 553 799 q 451 815 465 799 z "},"÷":{"ha":792,"x_min":149,"x_max":642,"o":"m 149 378 l 149 489 l 642 489 l 642 378 l 149 378 m 343 131 q 336 140 343 131 q 329 196 329 149 q 343 262 329 243 q 397 281 357 281 q 451 262 438 281 q 465 196 465 243 q 451 131 465 149 q 397 113 438 113 q 343 131 357 113 m 343 604 q 336 613 343 604 q 329 669 329 622 q 343 735 329 717 q 397 754 357 754 q 451 735 438 754 q 465 669 465 717 q 451 604 465 622 q 397 586 438 586 q 343 604 357 586 z "},"ø":{"ha":764,"x_min":94,"x_max":669,"o":"m 669 347 q 610 65 669 151 q 382 -21 550 -21 q 261 -6 314 -21 l 213 -107 q 200 -126 206 -121 q 153 -142 185 -142 l 96 -142 l 182 36 q 94 347 94 111 q 154 629 94 543 q 382 715 214 715 q 503 700 450 715 l 553 803 q 565 822 560 817 q 613 838 581 838 l 669 838 l 582 657 q 669 347 669 582 m 246 501 l 246 168 l 446 582 l 356 582 q 270 567 294 582 q 246 501 246 551 m 408 113 q 494 128 469 113 q 518 193 518 143 l 518 524 l 318 113 l 408 113 z "},"ù":{"ha":771,"x_min":118,"x_max":646,"o":"m 646 0 l 581 0 l 544 69 q 286 -14 433 -14 q 162 19 206 -14 q 118 139 118 53 l 118 694 l 257 694 l 257 113 l 351 113 q 467 133 428 113 q 507 221 507 154 l 507 694 l 646 694 l 646 0 m 199 867 q 193 877 193 872 q 201 893 193 882 l 263 968 q 273 975 268 975 q 285 969 278 975 l 496 817 l 465 769 l 271 818 q 240 832 253 822 l 199 867 z "},"ú":{"ha":771,"x_min":118,"x_max":646,"o":"m 646 0 l 581 0 l 544 69 q 286 -14 433 -14 q 162 19 206 -14 q 118 139 118 53 l 118 694 l 257 694 l 257 113 l 351 113 q 467 133 428 113 q 507 221 507 154 l 507 694 l 646 694 l 646 0 m 501 983 q 513 989 508 989 q 524 982 518 989 l 585 907 q 593 891 593 896 q 588 881 593 886 l 546 846 q 515 832 533 836 l 321 783 l 290 831 l 501 983 z "},"û":{"ha":771,"x_min":118,"x_max":646,"o":"m 646 0 l 581 0 l 544 69 q 286 -14 433 -14 q 162 19 206 -14 q 118 139 118 53 l 118 694 l 257 694 l 257 113 l 351 113 q 467 133 428 113 q 507 221 507 154 l 507 694 l 646 694 l 646 0 m 376 989 l 401 989 q 415 981 408 989 l 574 819 l 518 772 l 389 861 l 260 772 l 204 819 l 363 981 q 376 989 369 989 z "},"ü":{"ha":771,"x_min":118,"x_max":646,"o":"m 646 0 l 581 0 l 544 69 q 286 -14 433 -14 q 162 19 206 -14 q 118 139 118 53 l 118 694 l 257 694 l 257 113 l 351 113 q 467 133 428 113 q 507 221 507 154 l 507 694 l 646 694 l 646 0 m 206 815 q 199 824 206 815 q 192 878 192 832 q 206 941 192 924 q 263 958 219 958 q 321 941 307 958 q 335 878 335 924 q 321 815 335 832 q 263 799 307 799 q 206 815 219 799 m 460 815 q 453 824 460 815 q 446 878 446 832 q 460 941 446 924 q 517 958 474 958 q 575 941 561 958 q 589 878 589 924 q 575 815 589 832 q 517 799 561 799 q 460 815 474 799 z "},"ý":{"ha":663,"x_min":22,"x_max":639,"o":"m 304 42 l 221 42 l 22 694 l 164 694 l 324 160 l 338 160 l 497 694 l 639 694 l 424 -21 q 324 -183 389 -136 q 150 -229 258 -229 l 33 -229 l 33 -146 l 164 -121 q 261 -85 229 -108 q 304 -19 293 -61 l 304 42 m 394 983 q 406 989 401 989 q 417 982 411 989 l 478 907 q 486 891 486 896 q 481 881 486 886 l 439 846 q 408 832 426 836 l 214 783 l 183 831 l 394 983 z "},"þ":{"ha":771,"x_min":125,"x_max":676,"o":"m 257 629 q 456 708 336 708 q 626 628 576 708 q 676 356 676 549 q 618 81 676 163 q 413 0 560 0 l 264 0 l 264 -229 l 125 -246 l 125 913 l 257 924 l 257 629 m 265 126 l 415 126 q 501 142 476 126 q 525 207 525 157 l 525 568 l 376 568 q 290 552 315 568 q 265 488 265 536 l 265 126 z "},"ÿ":{"ha":663,"x_min":22,"x_max":639,"o":"m 304 42 l 221 42 l 22 694 l 164 694 l 324 160 l 338 160 l 497 694 l 639 694 l 424 -21 q 324 -183 389 -136 q 150 -229 258 -229 l 33 -229 l 33 -146 l 164 -121 q 261 -85 229 -108 q 304 -19 293 -61 l 304 42 m 414 815 q 407 824 414 815 q 400 878 400 832 q 414 941 400 924 q 472 958 428 958 q 529 941 515 958 q 543 878 543 924 q 529 815 543 832 q 472 799 515 799 q 414 815 428 799 m 160 815 q 153 824 160 815 q 146 878 146 832 q 160 941 146 924 q 217 958 174 958 q 275 941 261 958 q 289 878 289 924 q 275 815 289 832 q 217 799 261 799 q 160 815 174 799 z "},"Ā":{"ha":763,"x_min":25,"x_max":738,"o":"m 590 0 l 543 190 l 218 190 l 172 0 l 25 0 l 250 868 l 513 868 l 738 0 l 590 0 m 353 740 l 249 315 l 513 315 l 410 740 l 353 740 m 550 988 l 275 988 q 224 1001 235 988 q 213 1051 213 1014 l 213 1100 l 489 1100 q 540 1088 529 1100 q 550 1038 550 1075 l 550 988 z "},"ā":{"ha":740,"x_min":76,"x_max":622,"o":"m 217 113 l 375 113 q 460 128 436 113 q 485 193 485 143 l 485 317 l 326 317 q 241 301 265 317 q 217 236 217 286 l 217 113 m 279 -14 q 76 201 76 -14 q 158 380 76 326 q 396 433 239 433 l 485 433 l 485 572 q 381 578 442 578 q 156 549 239 578 l 139 665 q 387 708 268 708 q 564 669 506 708 q 622 513 622 629 l 622 0 l 558 0 l 521 69 q 279 -14 428 -14 m 563 814 l 288 814 q 236 827 247 814 q 225 878 225 840 l 225 926 l 501 926 q 552 914 542 926 q 563 864 563 901 l 563 814 z "},"Ă":{"ha":763,"x_min":25,"x_max":738,"o":"m 590 0 l 543 190 l 218 190 l 172 0 l 25 0 l 250 868 l 513 868 l 738 0 l 590 0 m 353 740 l 249 315 l 513 315 l 410 740 l 353 740 m 336 1079 q 347 1071 336 1079 q 381 1063 357 1063 q 425 1079 404 1063 q 454 1126 446 1096 l 544 1111 q 483 999 526 1036 q 381 961 440 961 q 217 1111 249 961 l 307 1126 q 336 1079 315 1096 z "},"ă":{"ha":740,"x_min":76,"x_max":622,"o":"m 217 113 l 375 113 q 460 128 436 113 q 485 193 485 143 l 485 317 l 326 317 q 241 301 265 317 q 217 236 217 286 l 217 113 m 279 -14 q 76 201 76 -14 q 158 380 76 326 q 396 433 239 433 l 485 433 l 485 572 q 381 578 442 578 q 156 549 239 578 l 139 665 q 387 708 268 708 q 564 669 506 708 q 622 513 622 629 l 622 0 l 558 0 l 521 69 q 279 -14 428 -14 m 335 906 q 345 897 335 906 q 379 889 356 889 q 424 906 403 889 q 453 953 444 922 l 543 938 q 482 825 525 863 q 379 788 439 788 q 215 938 247 788 l 306 953 q 335 906 314 922 z "},"Ą":{"ha":763,"x_min":25,"x_max":743,"o":"m 631 -62 l 631 -92 q 671 -139 631 -139 q 690 -136 676 -139 l 717 -129 l 743 -200 q 640 -229 696 -229 q 553 -196 585 -229 q 521 -112 521 -162 q 590 0 521 -32 l 543 190 l 218 190 l 172 0 l 25 0 l 250 868 l 513 868 l 738 0 l 678 -7 q 640 -25 649 -15 q 631 -62 631 -35 m 353 740 l 249 315 l 513 315 l 410 740 l 353 740 z "},"ą":{"ha":740,"x_min":76,"x_max":660,"o":"m 547 -62 l 547 -92 q 588 -139 547 -139 q 607 -136 593 -139 l 633 -129 l 660 -200 q 557 -229 613 -229 q 469 -196 501 -229 q 438 -113 438 -162 q 462 -32 438 -64 q 550 15 486 0 l 521 69 q 279 -14 428 -14 q 76 201 76 -14 q 158 380 76 326 q 396 433 239 433 l 485 433 l 485 572 q 381 578 442 578 q 156 549 239 578 l 139 665 q 387 708 268 708 q 564 669 506 708 q 622 513 622 629 l 622 0 l 594 -7 q 556 -25 565 -15 q 547 -62 547 -35 m 217 113 l 375 113 q 460 128 436 113 q 485 193 485 143 l 485 317 l 326 317 q 241 301 265 317 q 217 236 217 286 l 217 113 z "},"Ć":{"ha":618,"x_min":69,"x_max":583,"o":"m 381 -14 q 131 77 193 -14 q 69 437 69 168 q 131 797 69 706 q 381 889 193 889 q 569 860 493 889 l 549 738 q 369 757 454 757 q 253 742 283 757 q 222 679 222 726 l 222 136 q 376 115 288 115 q 569 143 465 115 l 583 15 q 381 -14 501 -14 m 438 1157 q 449 1163 444 1163 q 460 1156 454 1163 l 521 1081 q 529 1065 529 1069 q 524 1054 529 1060 l 482 1019 q 451 1006 469 1010 l 257 957 l 226 1004 l 438 1157 z "},"ć":{"ha":588,"x_min":94,"x_max":538,"o":"m 538 14 q 353 -14 454 -14 q 199 16 253 -14 q 119 123 144 46 q 94 347 94 200 q 155 635 94 561 q 372 708 215 708 q 535 683 460 708 l 504 567 q 369 582 419 582 q 246 482 246 582 l 246 114 q 369 107 299 107 q 521 132 440 107 l 538 14 m 414 983 q 426 989 421 989 q 436 982 431 989 l 497 907 q 506 891 506 896 q 500 881 506 886 l 458 846 q 428 832 446 836 l 233 783 l 203 831 l 414 983 z "},"Ĉ":{"ha":618,"x_min":69,"x_max":583,"o":"m 381 -14 q 131 77 193 -14 q 69 437 69 168 q 131 797 69 706 q 381 889 193 889 q 569 860 493 889 l 549 738 q 369 757 454 757 q 253 742 283 757 q 222 679 222 726 l 222 136 q 376 115 288 115 q 569 143 465 115 l 583 15 q 381 -14 501 -14 m 360 1163 l 385 1163 q 399 1154 392 1163 l 557 993 l 501 946 l 372 1035 l 243 946 l 188 993 l 346 1154 q 360 1163 353 1163 z "},"ĉ":{"ha":611,"x_min":94,"x_max":538,"o":"m 538 14 q 353 -14 454 -14 q 199 16 253 -14 q 119 123 144 46 q 94 347 94 200 q 155 635 94 561 q 372 708 215 708 q 535 683 460 708 l 504 567 q 369 582 419 582 q 246 482 246 582 l 246 114 q 369 107 299 107 q 521 132 440 107 l 538 14 m 331 990 l 356 990 q 369 982 364 990 l 528 821 l 472 774 l 343 863 l 214 774 l 158 821 l 317 982 q 331 990 322 990 z "},"Ċ":{"ha":618,"x_min":69,"x_max":583,"o":"m 381 -14 q 131 77 193 -14 q 69 437 69 168 q 131 797 69 706 q 381 889 193 889 q 569 860 493 889 l 549 738 q 369 757 454 757 q 253 742 283 757 q 222 679 222 726 l 222 136 q 376 115 288 115 q 569 143 465 115 l 583 15 q 381 -14 501 -14 m 291 986 q 282 996 291 986 q 272 1058 272 1006 q 291 1132 272 1111 q 366 1153 310 1153 q 440 1132 422 1153 q 458 1058 458 1111 q 440 985 458 1004 q 366 967 422 967 q 291 986 310 967 z "},"ċ":{"ha":579,"x_min":94,"x_max":538,"o":"m 538 14 q 353 -14 454 -14 q 199 16 253 -14 q 119 123 144 46 q 94 347 94 200 q 155 635 94 561 q 372 708 215 708 q 535 683 460 708 l 504 567 q 369 582 419 582 q 246 482 246 582 l 246 114 q 369 107 299 107 q 521 132 440 107 l 538 14 m 274 813 q 265 822 274 813 q 256 885 256 832 q 274 958 256 938 q 349 979 293 979 q 424 958 406 979 q 442 884 442 938 q 424 812 442 831 q 349 793 406 793 q 274 813 293 793 z "},"Č":{"ha":618,"x_min":69,"x_max":583,"o":"m 381 -14 q 131 77 193 -14 q 69 437 69 168 q 131 797 69 706 q 381 889 193 889 q 569 860 493 889 l 549 738 q 369 757 454 757 q 253 742 283 757 q 222 679 222 726 l 222 136 q 376 115 288 115 q 569 143 465 115 l 583 15 q 381 -14 501 -14 m 379 951 l 354 951 q 340 960 346 951 l 182 1121 l 238 1168 l 367 1079 l 496 1168 l 551 1121 l 393 960 q 379 951 386 951 z "},"č":{"ha":586,"x_min":94,"x_max":538,"o":"m 538 14 q 353 -14 454 -14 q 199 16 253 -14 q 119 123 144 46 q 94 347 94 200 q 155 635 94 561 q 372 708 215 708 q 535 683 460 708 l 504 567 q 369 582 419 582 q 246 482 246 582 l 246 114 q 369 107 299 107 q 521 132 440 107 l 538 14 m 358 778 l 333 778 q 319 786 325 778 l 161 947 l 217 994 l 346 906 l 475 994 l 531 947 l 372 786 q 358 778 367 778 z "},"Ď":{"ha":779,"x_min":97,"x_max":710,"o":"m 97 0 l 97 868 l 367 868 q 541 852 478 868 q 644 785 604 836 q 697 655 685 735 q 710 434 710 575 q 697 213 710 293 q 644 83 685 133 q 541 16 604 32 q 367 0 478 0 l 97 0 m 449 743 l 236 743 l 236 125 l 449 125 q 531 138 506 125 q 557 199 557 151 l 557 669 q 531 730 557 717 q 449 743 506 743 m 382 951 l 357 951 q 343 960 350 951 l 185 1121 l 240 1168 l 369 1079 l 499 1168 l 554 1121 l 396 960 q 382 951 389 951 z "},"ď":{"ha":781,"x_min":94,"x_max":868,"o":"m 554 69 q 347 -21 478 -21 q 156 56 217 -21 q 94 338 94 133 q 164 619 94 543 q 400 694 233 694 l 518 694 l 518 907 l 656 924 l 656 0 l 590 0 l 554 69 m 246 113 l 408 113 q 494 128 469 113 q 518 193 518 143 l 518 567 l 356 567 q 270 551 294 567 q 246 486 246 536 l 246 113 m 757 736 q 706 756 719 739 q 693 824 693 774 q 711 899 693 875 q 781 924 729 924 q 850 899 832 924 q 868 815 868 875 q 843 700 868 756 l 800 606 l 746 622 l 757 736 z "},"Đ":{"ha":779,"x_min":97,"x_max":710,"o":"m 97 0 l 97 868 l 367 868 q 541 852 478 868 q 644 785 604 836 q 697 655 685 735 q 710 434 710 575 q 697 213 710 293 q 644 83 685 133 q 541 16 604 32 q 367 0 478 0 l 97 0 m 449 743 l 236 743 l 236 125 l 449 125 q 531 138 506 125 q 557 199 557 151 l 557 669 q 531 730 557 717 q 449 743 506 743 m 558 988 l 283 988 q 232 1001 243 988 q 221 1051 221 1014 l 221 1100 l 497 1100 q 548 1088 538 1100 q 558 1038 558 1075 l 558 988 z "},"đ":{"ha":826,"x_min":94,"x_max":757,"o":"m 419 763 l 419 814 q 431 844 419 838 q 472 850 442 850 l 518 850 l 518 907 l 656 924 l 656 850 l 757 850 l 757 797 q 746 768 757 774 q 703 763 735 763 l 656 763 l 656 0 l 590 0 l 554 69 q 347 -21 478 -21 q 156 56 217 -21 q 94 338 94 133 q 164 619 94 543 q 400 694 233 694 l 518 694 l 518 763 l 419 763 m 246 113 l 408 113 q 494 128 469 113 q 518 193 518 143 l 518 567 l 356 567 q 270 551 294 567 q 246 486 246 536 l 246 113 z "},"Ē":{"ha":632,"x_min":97,"x_max":576,"o":"m 514 369 l 236 369 l 236 125 l 576 125 l 576 0 l 97 0 l 97 868 l 569 868 l 549 743 l 236 743 l 236 488 l 514 488 l 514 369 m 513 988 l 238 988 q 186 1001 197 988 q 175 1051 175 1014 l 175 1100 l 451 1100 q 502 1088 492 1100 q 513 1038 513 1075 l 513 988 z "},"ē":{"ha":740,"x_min":94,"x_max":657,"o":"m 515 583 l 357 583 q 272 568 296 583 q 247 503 247 553 l 247 379 l 406 379 q 491 394 467 379 q 515 460 515 410 l 515 583 m 633 28 q 390 -11 517 -11 q 206 18 264 -11 q 122 124 149 47 q 94 347 94 200 q 158 639 94 563 q 381 715 221 715 q 599 670 542 715 q 657 486 657 625 q 641 366 657 396 q 613 320 625 336 q 572 293 601 304 q 519 276 543 282 q 447 267 494 271 q 247 263 379 263 l 247 125 q 400 110 311 110 q 608 143 489 110 l 633 28 m 579 814 l 304 814 q 253 827 264 814 q 242 878 242 840 l 242 926 l 518 926 q 569 914 558 926 q 579 864 579 901 l 579 814 z "},"Ĕ":{"ha":632,"x_min":97,"x_max":576,"o":"m 514 369 l 236 369 l 236 125 l 576 125 l 576 0 l 97 0 l 97 868 l 569 868 l 549 743 l 236 743 l 236 488 l 514 488 l 514 369 m 310 1079 q 320 1071 310 1079 q 354 1063 331 1063 q 399 1079 378 1063 q 428 1126 419 1096 l 518 1111 q 457 999 500 1036 q 354 961 414 961 q 190 1111 222 961 l 281 1126 q 310 1079 289 1096 z "},"ĕ":{"ha":740,"x_min":94,"x_max":657,"o":"m 515 583 l 357 583 q 272 568 296 583 q 247 503 247 553 l 247 379 l 406 379 q 491 394 467 379 q 515 460 515 410 l 515 583 m 633 28 q 390 -11 517 -11 q 206 18 264 -11 q 122 124 149 47 q 94 347 94 200 q 158 639 94 563 q 381 715 221 715 q 599 670 542 715 q 657 486 657 625 q 641 366 657 396 q 613 320 625 336 q 572 293 601 304 q 519 276 543 282 q 447 267 494 271 q 247 263 379 263 l 247 125 q 400 110 311 110 q 608 143 489 110 l 633 28 m 365 906 q 376 897 365 906 q 410 889 386 889 q 454 906 433 889 q 483 953 475 922 l 574 938 q 513 825 556 863 q 410 788 469 788 q 246 938 278 788 l 336 953 q 365 906 344 922 z "},"Ė":{"ha":632,"x_min":97,"x_max":576,"o":"m 514 369 l 236 369 l 236 125 l 576 125 l 576 0 l 97 0 l 97 868 l 569 868 l 549 743 l 236 743 l 236 488 l 514 488 l 514 369 m 278 986 q 269 996 278 986 q 260 1058 260 1006 q 278 1132 260 1111 q 353 1153 297 1153 q 428 1132 410 1153 q 446 1058 446 1111 q 428 985 446 1004 q 353 967 410 967 q 278 986 297 967 z "},"ė":{"ha":740,"x_min":94,"x_max":657,"o":"m 515 583 l 357 583 q 272 568 296 583 q 247 503 247 553 l 247 379 l 406 379 q 491 394 467 379 q 515 460 515 410 l 515 583 m 633 28 q 390 -11 517 -11 q 206 18 264 -11 q 122 124 149 47 q 94 347 94 200 q 158 639 94 563 q 381 715 221 715 q 599 670 542 715 q 657 486 657 625 q 641 366 657 396 q 613 320 625 336 q 572 293 601 304 q 519 276 543 282 q 447 267 494 271 q 247 263 379 263 l 247 125 q 400 110 311 110 q 608 143 489 110 l 633 28 m 337 813 q 327 822 337 813 q 318 885 318 832 q 337 958 318 938 q 412 979 356 979 q 486 958 468 979 q 504 884 504 938 q 486 812 504 831 q 412 793 468 793 q 337 813 356 793 z "},"Ę":{"ha":632,"x_min":97,"x_max":614,"o":"m 501 -62 l 501 -92 q 542 -139 501 -139 q 561 -136 547 -139 l 588 -129 l 614 -200 q 511 -229 567 -229 q 424 -196 456 -229 q 392 -112 392 -162 q 460 0 392 -32 l 97 0 l 97 868 l 569 868 l 549 743 l 236 743 l 236 488 l 514 488 l 514 369 l 236 369 l 236 125 l 576 125 l 576 0 l 549 -7 q 510 -25 519 -15 q 501 -62 501 -35 z "},"ę":{"ha":740,"x_min":94,"x_max":657,"o":"m 374 -11 q 206 18 264 -11 q 122 124 149 47 q 94 347 94 200 q 158 639 94 563 q 381 715 221 715 q 599 670 542 715 q 657 486 657 625 q 641 366 657 396 q 613 320 625 336 q 572 293 601 304 q 519 276 543 282 q 447 267 494 271 q 247 263 379 263 l 247 125 q 400 110 311 110 q 608 143 489 110 l 633 28 q 568 10 599 17 q 540 -40 540 -1 l 540 -69 q 581 -117 540 -117 q 600 -114 586 -117 l 626 -107 l 653 -178 q 550 -207 606 -207 q 463 -174 494 -207 q 431 -87 431 -140 q 457 -7 431 -35 q 374 -11 382 -11 m 515 583 l 357 583 q 272 568 296 583 q 247 503 247 553 l 247 379 l 406 379 q 491 394 467 379 q 515 460 515 410 l 515 583 z "},"Ě":{"ha":632,"x_min":97,"x_max":576,"o":"m 514 369 l 236 369 l 236 125 l 576 125 l 576 0 l 97 0 l 97 868 l 569 868 l 549 743 l 236 743 l 236 488 l 514 488 l 514 369 m 367 951 l 342 951 q 328 960 333 951 l 169 1121 l 225 1168 l 354 1079 l 483 1168 l 539 1121 l 381 960 q 367 951 375 951 z "},"ě":{"ha":740,"x_min":94,"x_max":657,"o":"m 515 583 l 357 583 q 272 568 296 583 q 247 503 247 553 l 247 379 l 406 379 q 491 394 467 379 q 515 460 515 410 l 515 583 m 633 28 q 390 -11 517 -11 q 206 18 264 -11 q 122 124 149 47 q 94 347 94 200 q 158 639 94 563 q 381 715 221 715 q 599 670 542 715 q 657 486 657 625 q 641 366 657 396 q 613 320 625 336 q 572 293 601 304 q 519 276 543 282 q 447 267 494 271 q 247 263 379 263 l 247 125 q 400 110 311 110 q 608 143 489 110 l 633 28 m 425 778 l 400 778 q 386 786 392 778 l 228 947 l 283 994 l 413 906 l 542 994 l 597 947 l 439 786 q 425 778 433 778 z "},"Ĝ":{"ha":833,"x_min":69,"x_max":667,"o":"m 542 197 l 542 339 l 443 339 l 443 464 l 667 464 l 667 42 q 378 -21 528 -21 q 129 69 189 -21 q 69 433 69 160 q 138 798 69 707 q 418 889 206 889 q 625 860 526 889 l 604 738 q 396 757 492 757 q 261 742 300 757 q 222 679 222 726 l 222 114 l 413 114 q 481 118 457 114 q 523 141 504 122 q 542 197 542 160 m 404 1163 l 429 1163 q 443 1154 436 1163 l 601 993 l 546 946 l 417 1035 l 288 946 l 232 993 l 390 1154 q 404 1163 397 1163 z "},"ĝ":{"ha":689,"x_min":69,"x_max":661,"o":"m 257 207 q 113 274 156 218 q 69 469 69 331 q 130 661 69 607 q 338 715 190 715 q 496 692 439 715 l 592 767 l 661 699 l 582 606 q 606 458 606 547 q 551 262 606 317 q 365 203 497 207 l 358 117 q 562 78 503 108 q 621 -54 621 47 q 575 -178 621 -142 q 529 -207 551 -196 q 464 -222 507 -218 q 297 -229 410 -229 q 81 -187 183 -229 l 101 -68 q 367 -108 229 -108 q 460 -101 414 -108 l 460 -11 q 231 21 286 -11 q 210 49 210 33 l 257 207 m 213 528 l 213 326 l 367 326 q 440 337 417 326 q 463 385 463 347 l 463 586 l 308 586 q 235 576 258 586 q 213 528 213 565 m 340 989 l 365 989 q 379 981 372 989 l 538 819 l 482 772 l 353 861 l 224 772 l 168 819 l 326 981 q 340 989 333 989 z "},"Ğ":{"ha":833,"x_min":69,"x_max":667,"o":"m 542 197 l 542 339 l 443 339 l 443 464 l 667 464 l 667 42 q 378 -21 528 -21 q 129 69 189 -21 q 69 433 69 160 q 138 798 69 707 q 418 889 206 889 q 625 860 526 889 l 604 738 q 396 757 492 757 q 261 742 300 757 q 222 679 222 726 l 222 114 l 413 114 q 481 118 457 114 q 523 141 504 122 q 542 197 542 160 m 372 1079 q 383 1071 372 1079 q 417 1063 393 1063 q 461 1079 440 1063 q 490 1126 482 1096 l 581 1111 q 519 999 563 1036 q 417 961 476 961 q 253 1111 285 961 l 343 1126 q 372 1079 351 1096 z "},"ğ":{"ha":689,"x_min":69,"x_max":661,"o":"m 257 207 q 113 274 156 218 q 69 469 69 331 q 130 661 69 607 q 338 715 190 715 q 496 692 439 715 l 592 767 l 661 699 l 582 606 q 606 458 606 547 q 551 262 606 317 q 365 203 497 207 l 358 117 q 562 78 503 108 q 621 -54 621 47 q 575 -178 621 -142 q 529 -207 551 -196 q 464 -222 507 -218 q 297 -229 410 -229 q 81 -187 183 -229 l 101 -68 q 367 -108 229 -108 q 460 -101 414 -108 l 460 -11 q 231 21 286 -11 q 210 49 210 33 l 257 207 m 213 528 l 213 326 l 367 326 q 440 337 417 326 q 463 385 463 347 l 463 586 l 308 586 q 235 576 258 586 q 213 528 213 565 m 307 906 q 317 897 307 906 q 351 889 328 889 q 396 906 375 889 q 425 953 417 922 l 515 938 q 454 825 497 863 q 351 788 411 788 q 188 938 219 788 l 278 953 q 307 906 286 922 z "},"Ġ":{"ha":833,"x_min":69,"x_max":667,"o":"m 542 197 l 542 339 l 443 339 l 443 464 l 667 464 l 667 42 q 378 -21 528 -21 q 129 69 189 -21 q 69 433 69 160 q 138 798 69 707 q 418 889 206 889 q 625 860 526 889 l 604 738 q 396 757 492 757 q 261 742 300 757 q 222 679 222 726 l 222 114 l 413 114 q 481 118 457 114 q 523 141 504 122 q 542 197 542 160 m 341 986 q 332 996 341 986 q 322 1058 322 1006 q 341 1132 322 1111 q 416 1153 360 1153 q 490 1132 472 1153 q 508 1058 508 1111 q 490 985 508 1004 q 416 967 472 967 q 341 986 360 967 z "},"ġ":{"ha":744,"x_min":69,"x_max":661,"o":"m 257 207 q 113 274 156 218 q 69 469 69 331 q 130 661 69 607 q 338 715 190 715 q 496 692 439 715 l 592 767 l 661 699 l 582 606 q 606 458 606 547 q 551 262 606 317 q 365 203 497 207 l 358 117 q 562 78 503 108 q 621 -54 621 47 q 575 -178 621 -142 q 529 -207 551 -196 q 464 -222 507 -218 q 297 -229 410 -229 q 81 -187 183 -229 l 101 -68 q 367 -108 229 -108 q 460 -101 414 -108 l 460 -11 q 231 21 286 -11 q 210 49 210 33 l 257 207 m 213 528 l 213 326 l 367 326 q 440 337 417 326 q 463 385 463 347 l 463 586 l 308 586 q 235 576 258 586 q 213 528 213 565 m 280 813 q 270 822 280 813 q 261 885 261 832 q 280 958 261 938 q 355 979 299 979 q 429 958 411 979 q 447 884 447 938 q 429 812 447 831 q 355 793 411 793 q 280 813 299 793 z "},"Ģ":{"ha":736,"x_min":69,"x_max":667,"o":"m 542 197 l 542 339 l 443 339 l 443 464 l 667 464 l 667 42 q 378 -21 528 -21 q 129 69 189 -21 q 69 433 69 160 q 138 798 69 707 q 418 889 206 889 q 625 860 526 889 l 604 738 q 396 757 492 757 q 261 742 300 757 q 222 679 222 726 l 222 114 l 413 114 q 481 118 457 114 q 523 141 504 122 q 542 197 542 160 m 344 -240 q 294 -220 307 -237 q 281 -152 281 -203 q 299 -77 281 -101 q 368 -53 317 -53 q 438 -77 419 -53 q 456 -161 456 -101 q 431 -276 456 -221 l 388 -371 l 333 -354 l 344 -240 z "},"ģ":{"ha":689,"x_min":69,"x_max":661,"o":"m 257 207 q 113 274 156 218 q 69 469 69 331 q 130 661 69 607 q 338 715 190 715 q 496 692 439 715 l 592 767 l 661 699 l 582 606 q 606 458 606 547 q 551 262 606 317 q 365 203 497 207 l 358 117 q 562 78 503 108 q 621 -54 621 47 q 575 -178 621 -142 q 529 -207 551 -196 q 464 -222 507 -218 q 297 -229 410 -229 q 81 -187 183 -229 l 101 -68 q 367 -108 229 -108 q 460 -101 414 -108 l 460 -11 q 231 21 286 -11 q 210 49 210 33 l 257 207 m 213 528 l 213 326 l 367 326 q 440 337 417 326 q 463 385 463 347 l 463 586 l 308 586 q 235 576 258 586 q 213 528 213 565 m 379 974 q 430 953 417 971 q 443 885 443 936 q 425 810 443 835 q 356 786 407 786 q 286 810 304 786 q 268 894 268 835 q 293 1010 268 954 l 336 1104 l 390 1088 l 379 974 z "},"Ĥ":{"ha":806,"x_min":97,"x_max":708,"o":"m 569 0 l 569 371 l 236 371 l 236 0 l 97 0 l 97 868 l 236 868 l 236 496 l 569 496 l 569 868 l 708 868 l 708 0 l 569 0 m 390 1163 l 415 1163 q 429 1154 422 1163 l 588 993 l 532 946 l 403 1035 l 274 946 l 218 993 l 376 1154 q 390 1163 383 1163 z "},"ĥ":{"ha":771,"x_min":17,"x_max":653,"o":"m 514 708 q 619 678 585 708 q 653 569 653 649 l 653 0 l 514 0 l 514 567 l 374 567 q 288 551 313 567 q 264 486 264 536 l 264 0 l 125 0 l 125 913 l 257 924 l 257 622 q 514 708 385 708 m 189 1188 l 214 1188 q 228 1179 222 1188 l 386 1018 l 331 971 l 201 1060 l 72 971 l 17 1018 l 175 1179 q 189 1188 181 1188 z "},"Ħ":{"ha":806,"x_min":25,"x_max":783,"o":"m 25 650 l 25 701 q 36 731 25 725 q 78 738 47 738 l 97 738 l 97 868 l 236 868 l 236 738 l 569 738 l 569 868 l 708 868 l 708 738 l 783 738 l 783 685 q 772 656 783 661 q 729 650 761 650 l 708 650 l 708 0 l 569 0 l 569 371 l 236 371 l 236 0 l 97 0 l 97 650 l 25 650 m 236 496 l 569 496 l 569 650 l 236 650 l 236 496 z "},"ħ":{"ha":771,"x_min":19,"x_max":653,"o":"m 19 763 l 19 814 q 31 844 19 838 q 72 850 42 850 l 125 850 l 125 913 l 257 924 l 257 850 l 357 850 l 357 797 q 346 768 357 774 q 303 763 335 763 l 257 763 l 257 622 q 514 708 385 708 q 619 678 585 708 q 653 569 653 649 l 653 0 l 514 0 l 514 567 l 374 567 q 288 551 313 567 q 264 486 264 536 l 264 0 l 125 0 l 125 763 l 19 763 z "},"Ĩ":{"ha":333,"x_min":-36,"x_max":369,"o":"m 97 0 l 97 868 l 236 868 l 236 0 l 97 0 m 328 1018 q 243 967 267 978 q 192 957 219 957 q 119 1000 164 957 l 99 1017 l 7 971 l -36 1042 l 6 1071 q 88 1122 64 1111 q 139 1132 111 1132 q 214 1089 167 1132 l 235 1072 l 326 1118 l 369 1047 l 328 1018 z "},"ĩ":{"ha":389,"x_min":-8,"x_max":397,"o":"m 125 0 l 125 685 l 264 706 l 264 0 l 125 0 m 356 844 q 271 794 294 804 q 219 783 247 783 q 147 826 192 783 l 126 843 l 35 797 l -8 868 l 33 897 q 115 948 92 938 q 167 958 139 958 q 242 915 194 958 l 263 899 l 354 944 l 397 874 l 356 844 z "},"Ī":{"ha":333,"x_min":-1,"x_max":336,"o":"m 97 0 l 97 868 l 236 868 l 236 0 l 97 0 m 336 988 l 61 988 q 10 1001 21 988 q -1 1051 -1 1014 l -1 1100 l 275 1100 q 326 1088 315 1100 q 336 1038 336 1075 l 336 988 z "},"ī":{"ha":389,"x_min":26,"x_max":364,"o":"m 125 0 l 125 685 l 264 706 l 264 0 l 125 0 m 364 814 l 89 814 q 38 827 49 814 q 26 878 26 840 l 26 926 l 303 926 q 353 914 343 926 q 364 864 364 901 l 364 814 z "},"Ĭ":{"ha":333,"x_min":3,"x_max":331,"o":"m 97 0 l 97 868 l 236 868 l 236 0 l 97 0 m 122 1079 q 133 1071 122 1079 q 167 1063 143 1063 q 211 1079 190 1063 q 240 1126 232 1096 l 331 1111 q 269 999 313 1036 q 167 961 226 961 q 3 1111 35 961 l 93 1126 q 122 1079 101 1096 z "},"ĭ":{"ha":389,"x_min":31,"x_max":358,"o":"m 125 0 l 125 685 l 264 706 l 264 0 l 125 0 m 150 906 q 160 897 150 906 q 194 889 171 889 q 239 906 218 889 q 268 953 260 922 l 358 938 q 297 825 340 863 q 194 788 254 788 q 31 938 63 788 l 121 953 q 150 906 129 922 z "},"Į":{"ha":333,"x_min":29,"x_max":251,"o":"m 97 868 l 236 868 l 236 0 l 186 -7 q 149 -22 158 -11 q 139 -62 139 -33 l 139 -92 q 179 -139 139 -139 q 199 -136 185 -139 l 225 -129 l 251 -200 q 149 -229 204 -229 q 61 -196 93 -229 q 29 -112 29 -162 q 97 0 29 -32 l 97 868 z "},"į":{"ha":389,"x_min":57,"x_max":281,"o":"m 167 -62 l 167 -92 q 207 -139 167 -139 q 226 -136 213 -139 l 253 -129 l 279 -200 q 176 -229 232 -229 q 89 -196 121 -229 q 57 -112 57 -162 q 125 0 57 -32 l 125 685 l 264 706 l 264 0 l 214 -7 q 176 -22 186 -11 q 167 -62 167 -33 m 195 799 q 170 799 195 799 q 127 817 144 799 q 110 881 110 835 q 127 947 110 928 q 195 965 144 965 q 263 947 246 965 q 281 881 281 928 q 263 817 281 835 q 195 799 246 799 z "},"İ":{"ha":333,"x_min":74,"x_max":260,"o":"m 97 0 l 97 868 l 236 868 l 236 0 l 97 0 m 92 986 q 83 996 92 986 q 74 1058 74 1006 q 92 1132 74 1111 q 167 1153 111 1153 q 242 1132 224 1153 q 260 1058 260 1111 q 242 985 260 1004 q 167 967 224 967 q 92 986 111 967 z "},"ı":{"ha":389,"x_min":125,"x_max":264,"o":"m 125 0 l 125 685 l 264 706 l 264 0 l 125 0 z "},"Ĳ":{"ha":772,"x_min":97,"x_max":682,"o":"m 97 0 l 97 868 l 236 868 l 236 0 l 97 0 m 476 125 q 531 137 519 125 q 543 167 543 149 l 543 743 l 386 743 l 386 868 l 682 868 l 682 188 q 630 40 682 81 q 467 0 578 0 l 364 0 l 347 125 l 476 125 z "},"ĳ":{"ha":778,"x_min":110,"x_max":669,"o":"m 125 0 l 125 685 l 264 706 l 264 0 l 125 0 m 195 799 q 170 799 195 799 q 127 817 144 799 q 110 881 110 835 q 127 947 110 928 q 195 965 144 965 q 263 947 246 965 q 281 881 281 928 q 263 817 281 835 q 195 799 246 799 m 375 -229 l 375 -146 l 447 -132 q 514 -62 514 -119 l 514 685 l 653 706 l 653 -28 q 610 -183 653 -136 q 481 -229 567 -229 l 375 -229 m 584 799 q 559 799 584 799 q 516 817 533 799 q 499 881 499 835 q 516 947 499 928 q 584 965 533 965 q 652 947 635 965 q 669 881 669 928 q 652 817 669 835 q 584 799 635 799 z "},"Ĵ":{"ha":439,"x_min":14,"x_max":453,"o":"m 143 125 q 198 137 186 125 q 210 167 210 149 l 210 743 l 53 743 l 53 868 l 349 868 l 349 188 q 297 40 349 81 q 133 0 244 0 l 31 0 l 14 125 l 143 125 m 256 1163 l 281 1163 q 294 1154 288 1163 l 453 993 l 397 946 l 268 1035 l 139 946 l 83 993 l 242 1154 q 256 1163 247 1163 z "},"ĵ":{"ha":389,"x_min":-14,"x_max":379,"o":"m -14 -229 l -14 -146 l 58 -132 q 125 -62 125 -119 l 125 685 l 264 706 l 264 -28 q 221 -183 264 -136 q 92 -229 178 -229 l -14 -229 m 182 989 l 207 989 q 221 981 214 989 l 379 819 l 324 772 l 194 861 l 65 772 l 10 819 l 168 981 q 182 989 174 989 z "},"Ķ":{"ha":685,"x_min":97,"x_max":671,"o":"m 236 383 l 236 0 l 97 0 l 97 868 l 236 868 l 236 508 l 353 508 q 367 581 356 557 l 503 868 l 664 868 l 456 442 l 671 0 l 510 0 l 367 311 q 353 383 356 335 l 236 383 m 318 -240 q 267 -220 281 -237 q 254 -152 254 -203 q 272 -77 254 -101 q 342 -53 290 -53 q 411 -77 393 -53 q 429 -161 429 -101 q 404 -276 429 -221 l 361 -371 l 307 -354 l 318 -240 z "},"ķ":{"ha":708,"x_min":125,"x_max":660,"o":"m 264 315 l 264 0 l 125 0 l 125 903 l 264 924 l 264 426 l 360 426 l 504 694 l 653 694 l 475 371 l 660 0 l 511 0 l 351 315 l 264 315 m 358 -240 q 308 -220 321 -237 q 294 -152 294 -203 q 313 -77 294 -101 q 382 -53 331 -53 q 451 -77 433 -53 q 469 -161 469 -101 q 444 -276 469 -221 l 401 -371 l 347 -354 l 358 -240 z "},"ĸ":{"ha":708,"x_min":125,"x_max":660,"o":"m 264 315 l 264 0 l 125 0 l 125 694 l 264 694 l 264 426 l 360 426 l 504 694 l 653 694 l 475 371 l 660 0 l 511 0 l 351 315 l 264 315 z "},"Ĺ":{"ha":528,"x_min":57,"x_max":528,"o":"m 528 0 l 97 0 l 97 868 l 236 868 l 236 125 l 528 125 l 528 0 m 268 1157 q 280 1163 275 1163 q 290 1156 285 1163 l 351 1081 q 360 1065 360 1069 q 354 1054 360 1060 l 313 1019 q 282 1006 300 1010 l 88 957 l 57 1004 l 268 1157 z "},"ĺ":{"ha":389,"x_min":67,"x_max":369,"o":"m 125 117 l 125 903 l 264 924 l 264 101 q 328 94 311 96 l 319 -15 q 163 10 201 -15 q 125 117 125 35 m 278 1164 q 290 1169 285 1169 q 300 1163 294 1169 l 361 1088 q 369 1072 369 1076 q 364 1061 369 1067 l 322 1026 q 292 1013 310 1017 l 97 964 l 67 1011 l 278 1164 z "},"Ļ":{"ha":528,"x_min":97,"x_max":528,"o":"m 528 0 l 97 0 l 97 868 l 236 868 l 236 125 l 528 125 l 528 0 m 289 -240 q 238 -220 251 -237 q 225 -152 225 -203 q 243 -77 225 -101 q 313 -53 261 -53 q 382 -77 364 -53 q 400 -161 400 -101 q 375 -276 400 -221 l 332 -371 l 278 -354 l 289 -240 z "},"ļ":{"ha":389,"x_min":113,"x_max":328,"o":"m 125 117 l 125 903 l 264 924 l 264 101 q 328 94 311 96 l 319 -15 q 163 10 201 -15 q 125 117 125 35 m 176 -240 q 126 -220 139 -237 q 113 -152 113 -203 q 131 -77 113 -101 q 200 -53 149 -53 q 269 -77 251 -53 q 288 -161 288 -101 q 263 -276 288 -221 l 219 -371 l 165 -354 l 176 -240 z "},"Ľ":{"ha":528,"x_min":97,"x_max":528,"o":"m 528 0 l 97 0 l 97 868 l 236 868 l 236 125 l 528 125 l 528 0 m 386 736 q 335 756 349 739 q 322 824 322 774 q 340 899 322 875 q 410 924 358 924 q 479 899 461 924 q 497 815 497 875 q 472 700 497 756 l 429 606 l 375 622 l 386 736 z "},"ľ":{"ha":429,"x_min":125,"x_max":517,"o":"m 125 117 l 125 903 l 264 924 l 264 101 q 328 94 311 96 l 319 -15 q 163 10 201 -15 q 125 117 125 35 m 406 736 q 355 756 368 739 q 342 824 342 774 q 360 899 342 875 q 429 924 378 924 q 499 899 481 924 q 517 815 517 875 q 492 700 517 756 l 449 606 l 394 622 l 406 736 z "},"Ŀ":{"ha":528,"x_min":97,"x_max":528,"o":"m 528 0 l 97 0 l 97 868 l 236 868 l 236 125 l 528 125 l 528 0 m 365 367 q 355 380 365 367 q 346 454 346 392 q 365 542 346 517 q 437 567 383 567 q 509 542 490 567 q 528 454 528 517 q 510 367 528 392 q 438 343 492 343 q 365 367 383 343 z "},"ŀ":{"ha":429,"x_min":125,"x_max":500,"o":"m 125 117 l 125 903 l 264 924 l 264 101 q 328 94 311 96 l 319 -15 q 163 10 201 -15 q 125 117 125 35 m 337 367 q 327 380 337 367 q 318 454 318 392 q 337 542 318 517 q 409 567 356 567 q 481 542 463 567 q 500 454 500 517 q 482 367 500 392 q 410 343 464 343 q 337 367 356 343 z "},"Ł":{"ha":528,"x_min":-8,"x_max":528,"o":"m 347 501 q 304 464 347 479 l 236 440 l 236 125 l 528 125 l 528 0 l 97 0 l 97 394 l 15 368 l -6 429 q -8 443 -8 440 q 35 481 -8 465 l 97 501 l 97 868 l 236 868 l 236 547 l 324 576 l 344 515 q 347 501 347 504 z "},"ł":{"ha":389,"x_min":19,"x_max":375,"o":"m 375 501 q 332 464 375 479 l 264 440 l 264 101 q 328 94 311 96 l 319 -15 q 163 10 201 -15 q 125 117 125 35 l 125 394 l 43 368 l 22 429 q 19 443 19 440 q 63 481 19 465 l 125 501 l 125 903 l 264 924 l 264 547 l 351 576 l 372 515 q 375 501 375 504 z "},"Ń":{"ha":799,"x_min":97,"x_max":701,"o":"m 236 636 l 236 0 l 97 0 l 97 868 l 247 868 l 543 299 q 557 232 554 283 l 563 232 l 563 868 l 701 868 l 701 0 l 551 0 l 256 569 q 242 636 244 585 l 236 636 m 518 1157 q 530 1163 525 1163 q 540 1156 535 1163 l 601 1081 q 610 1065 610 1069 q 604 1054 610 1060 l 563 1019 q 532 1006 550 1010 l 338 957 l 307 1004 l 518 1157 z "},"ń":{"ha":771,"x_min":125,"x_max":653,"o":"m 514 708 q 619 678 585 708 q 653 569 653 649 l 653 0 l 514 0 l 514 567 l 374 567 q 288 551 313 567 q 264 486 264 536 l 264 0 l 125 0 l 125 694 l 189 694 l 240 611 q 514 708 385 708 m 472 983 q 484 989 479 989 q 494 982 489 989 l 556 907 q 564 891 564 896 q 558 881 564 886 l 517 846 q 486 832 504 836 l 292 783 l 261 831 l 472 983 z "},"Ņ":{"ha":799,"x_min":97,"x_max":701,"o":"m 236 636 l 236 0 l 97 0 l 97 868 l 247 868 l 543 299 q 557 232 554 283 l 563 232 l 563 868 l 701 868 l 701 0 l 551 0 l 256 569 q 242 636 244 585 l 236 636 m 375 -240 q 324 -220 338 -237 q 311 -152 311 -203 q 329 -77 311 -101 q 399 -53 347 -53 q 468 -77 450 -53 q 486 -161 486 -101 q 461 -276 486 -221 l 418 -371 l 364 -354 l 375 -240 z "},"ņ":{"ha":771,"x_min":125,"x_max":653,"o":"m 514 708 q 619 678 585 708 q 653 569 653 649 l 653 0 l 514 0 l 514 567 l 374 567 q 288 551 313 567 q 264 486 264 536 l 264 0 l 125 0 l 125 694 l 189 694 l 240 611 q 514 708 385 708 m 361 -240 q 310 -220 324 -237 q 297 -152 297 -203 q 315 -77 297 -101 q 385 -53 333 -53 q 454 -77 436 -53 q 472 -161 472 -101 q 447 -276 472 -221 l 404 -371 l 350 -354 l 361 -240 z "},"Ň":{"ha":799,"x_min":97,"x_max":701,"o":"m 236 636 l 236 0 l 97 0 l 97 868 l 247 868 l 543 299 q 557 232 554 283 l 563 232 l 563 868 l 701 868 l 701 0 l 551 0 l 256 569 q 242 636 244 585 l 236 636 m 411 951 l 386 951 q 372 960 378 951 l 214 1121 l 269 1168 l 399 1079 l 528 1168 l 583 1121 l 425 960 q 411 951 419 951 z "},"ň":{"ha":771,"x_min":125,"x_max":653,"o":"m 514 708 q 619 678 585 708 q 653 569 653 649 l 653 0 l 514 0 l 514 567 l 374 567 q 288 551 313 567 q 264 486 264 536 l 264 0 l 125 0 l 125 694 l 189 694 l 240 611 q 514 708 385 708 m 411 778 l 386 778 q 372 786 378 778 l 214 947 l 269 994 l 399 906 l 528 994 l 583 947 l 425 786 q 411 778 419 778 z "},"ŉ":{"ha":771,"x_min":-46,"x_max":653,"o":"m 514 708 q 619 678 585 708 q 653 569 653 649 l 653 0 l 514 0 l 514 567 l 374 567 q 288 551 313 567 q 264 486 264 536 l 264 0 l 125 0 l 125 694 l 189 694 l 240 611 q 514 708 385 708 m 18 879 q -33 899 -19 882 q -46 967 -46 917 q -28 1042 -46 1018 q 42 1067 -10 1067 q 111 1042 93 1067 q 129 958 129 1018 q 104 843 129 899 l 61 749 l 7 765 l 18 879 z "},"Ŋ":{"ha":799,"x_min":97,"x_max":701,"o":"m 424 -229 l 424 -146 l 496 -132 q 563 -62 563 -119 l 563 -19 l 256 569 q 242 636 244 585 l 236 636 l 236 0 l 97 0 l 97 868 l 247 868 l 543 299 q 557 232 554 283 l 563 232 l 563 868 l 701 868 l 701 -28 q 658 -183 701 -136 q 529 -229 615 -229 l 424 -229 z "},"ŋ":{"ha":771,"x_min":125,"x_max":653,"o":"m 375 -229 l 375 -146 l 447 -132 q 514 -62 514 -119 l 514 567 l 374 567 q 288 551 313 567 q 264 486 264 536 l 264 0 l 125 0 l 125 694 l 189 694 l 240 611 q 514 708 385 708 q 619 678 585 708 q 653 569 653 649 l 653 -28 q 610 -183 653 -136 q 481 -229 567 -229 l 375 -229 z "},"Ō":{"ha":807,"x_min":69,"x_max":738,"o":"m 403 -21 q 303 -21 403 -21 q 136 71 203 -21 q 69 434 69 163 q 136 797 69 706 q 403 889 203 889 q 670 797 603 889 q 738 433 738 704 q 670 71 738 163 q 403 -21 603 -21 m 222 675 l 222 119 l 476 119 q 559 133 533 119 q 585 193 585 146 l 585 749 l 329 749 q 248 735 274 749 q 222 675 222 722 m 572 988 l 297 988 q 246 1001 257 988 q 235 1051 235 1014 l 235 1100 l 511 1100 q 562 1088 551 1100 q 572 1038 572 1075 l 572 988 z "},"ō":{"ha":764,"x_min":94,"x_max":669,"o":"m 154 65 q 124 108 154 65 q 94 347 94 151 q 154 629 94 543 q 382 715 214 715 q 610 629 550 715 q 669 347 669 543 q 610 65 669 151 q 382 -21 550 -21 q 154 65 214 -21 m 246 113 l 408 113 q 494 128 469 113 q 518 193 518 143 l 518 582 l 356 582 q 270 567 294 582 q 246 501 246 551 l 246 113 m 551 814 l 276 814 q 225 827 236 814 q 214 878 214 840 l 214 926 l 490 926 q 541 914 531 926 q 551 864 551 901 l 551 814 z "},"Ŏ":{"ha":807,"x_min":69,"x_max":738,"o":"m 403 -21 q 303 -21 403 -21 q 136 71 203 -21 q 69 434 69 163 q 136 797 69 706 q 403 889 203 889 q 670 797 603 889 q 738 433 738 704 q 670 71 738 163 q 403 -21 603 -21 m 222 675 l 222 119 l 476 119 q 559 133 533 119 q 585 193 585 146 l 585 749 l 329 749 q 248 735 274 749 q 222 675 222 722 m 358 1079 q 369 1071 358 1079 q 403 1063 379 1063 q 447 1079 426 1063 q 476 1126 468 1096 l 567 1111 q 506 999 549 1036 q 403 961 463 961 q 239 1111 271 961 l 329 1126 q 358 1079 338 1096 z "},"ŏ":{"ha":764,"x_min":94,"x_max":669,"o":"m 154 65 q 124 108 154 65 q 94 347 94 151 q 154 629 94 543 q 382 715 214 715 q 610 629 550 715 q 669 347 669 543 q 610 65 669 151 q 382 -21 550 -21 q 154 65 214 -21 m 246 113 l 408 113 q 494 128 469 113 q 518 193 518 143 l 518 582 l 356 582 q 270 567 294 582 q 246 501 246 551 l 246 113 m 338 906 q 348 897 338 906 q 382 889 358 889 q 426 906 406 889 q 456 953 447 922 l 546 938 q 485 825 528 863 q 382 788 442 788 q 218 938 250 788 l 308 953 q 338 906 317 922 z "},"Ő":{"ha":807,"x_min":69,"x_max":756,"o":"m 403 -21 q 303 -21 403 -21 q 136 71 203 -21 q 69 434 69 163 q 136 797 69 706 q 403 889 203 889 q 670 797 603 889 q 738 433 738 704 q 670 71 738 163 q 403 -21 603 -21 m 222 675 l 222 119 l 476 119 q 559 133 533 119 q 585 193 585 146 l 585 749 l 329 749 q 248 735 274 749 q 222 675 222 722 m 356 1157 q 367 1163 363 1163 q 378 1156 372 1163 l 439 1081 q 447 1065 447 1069 q 442 1054 447 1060 l 400 1019 q 369 1006 388 1010 l 201 964 l 171 1011 l 356 1157 m 664 1157 q 676 1163 671 1163 q 686 1156 681 1163 l 747 1081 q 756 1065 756 1069 q 750 1054 756 1060 l 708 1019 q 678 1006 696 1010 l 510 964 l 479 1011 l 664 1157 z "},"ő":{"ha":764,"x_min":94,"x_max":703,"o":"m 154 65 q 124 108 154 65 q 94 347 94 151 q 154 629 94 543 q 382 715 214 715 q 610 629 550 715 q 669 347 669 543 q 610 65 669 151 q 382 -21 550 -21 q 154 65 214 -21 m 246 113 l 408 113 q 494 128 469 113 q 518 193 518 143 l 518 582 l 356 582 q 270 567 294 582 q 246 501 246 551 l 246 113 m 303 983 q 315 989 310 989 q 325 982 319 989 l 386 907 q 394 891 394 896 q 389 881 394 886 l 347 846 q 317 832 335 836 l 149 790 l 118 838 l 303 983 m 611 983 q 623 989 618 989 q 633 982 628 989 l 694 907 q 703 891 703 896 q 697 881 703 886 l 656 846 q 625 832 643 836 l 457 790 l 426 838 l 611 983 z "},"Œ":{"ha":1121,"x_min":71,"x_max":1065,"o":"m 404 868 l 1058 868 l 1038 743 l 725 743 l 725 488 l 1003 488 l 1003 369 l 725 369 l 725 125 l 1065 125 l 1065 0 l 404 0 q 233 16 294 0 q 133 83 171 32 q 83 213 94 133 q 71 433 71 292 q 83 654 71 575 q 133 785 94 733 q 233 852 171 836 q 404 868 294 868 m 224 669 l 224 125 l 478 125 q 560 138 535 125 q 586 199 586 151 l 586 743 l 331 743 q 249 730 275 743 q 224 669 224 717 z "},"œ":{"ha":1164,"x_min":94,"x_max":1081,"o":"m 1057 28 q 794 -11 940 -11 q 590 44 647 -11 q 370 -21 526 -21 q 154 65 214 -21 q 94 347 94 151 q 154 629 94 543 q 369 715 214 715 q 590 650 525 715 q 808 715 651 715 q 1023 670 965 715 q 1081 486 1081 625 q 1065 366 1081 396 q 1037 320 1049 336 q 996 293 1025 304 q 942 276 967 282 q 869 267 918 271 q 671 263 803 263 l 671 125 q 824 110 735 110 q 1032 143 914 110 l 1057 28 m 246 113 l 408 113 q 494 128 469 113 q 518 193 518 143 l 518 582 l 356 582 q 270 567 294 582 q 246 501 246 551 l 246 113 m 939 583 l 781 583 q 695 568 719 583 q 671 503 671 553 l 671 379 l 829 379 q 915 394 890 379 q 939 460 939 410 l 939 583 z "},"Ŕ":{"ha":736,"x_min":97,"x_max":688,"o":"m 236 307 l 236 0 l 97 0 l 97 868 l 415 868 q 603 794 549 868 q 657 589 657 721 q 528 338 657 403 l 688 0 l 535 0 l 397 307 l 236 307 m 236 743 l 236 432 l 411 432 q 484 442 461 432 q 507 490 507 453 l 507 685 q 484 733 507 722 q 411 743 461 743 l 236 743 m 456 1157 q 467 1163 463 1163 q 478 1156 472 1163 l 539 1081 q 547 1065 547 1069 q 542 1054 547 1060 l 500 1019 q 469 1006 488 1010 l 275 957 l 244 1004 l 456 1157 z "},"ŕ":{"ha":469,"x_min":111,"x_max":442,"o":"m 125 694 l 189 694 l 238 585 q 428 715 354 689 l 442 579 q 349 545 400 571 q 263 490 297 519 l 263 0 l 125 0 l 125 694 m 322 983 q 334 989 329 989 q 344 982 339 989 l 406 907 q 414 891 414 896 q 408 881 414 886 l 367 846 q 336 832 354 836 l 142 783 l 111 831 l 322 983 z "},"Ŗ":{"ha":736,"x_min":97,"x_max":688,"o":"m 236 307 l 236 0 l 97 0 l 97 868 l 415 868 q 603 794 549 868 q 657 589 657 721 q 528 338 657 403 l 688 0 l 535 0 l 397 307 l 236 307 m 236 743 l 236 432 l 411 432 q 484 442 461 432 q 507 490 507 453 l 507 685 q 484 733 507 722 q 411 743 461 743 l 236 743 m 344 -240 q 294 -220 307 -237 q 281 -152 281 -203 q 299 -77 281 -101 q 368 -53 317 -53 q 438 -77 419 -53 q 456 -161 456 -101 q 431 -276 456 -221 l 388 -371 l 333 -354 l 344 -240 z "},"ŗ":{"ha":469,"x_min":104,"x_max":442,"o":"m 125 694 l 189 694 l 238 585 q 428 715 354 689 l 442 579 q 349 545 400 571 q 263 490 297 519 l 263 0 l 125 0 l 125 694 m 168 -240 q 117 -220 131 -237 q 104 -152 104 -203 q 122 -77 104 -101 q 192 -53 140 -53 q 261 -77 243 -53 q 279 -161 279 -101 q 254 -276 279 -221 l 211 -371 l 157 -354 l 168 -240 z "},"Ř":{"ha":736,"x_min":97,"x_max":688,"o":"m 236 307 l 236 0 l 97 0 l 97 868 l 415 868 q 603 794 549 868 q 657 589 657 721 q 528 338 657 403 l 688 0 l 535 0 l 397 307 l 236 307 m 236 743 l 236 432 l 411 432 q 484 442 461 432 q 507 490 507 453 l 507 685 q 484 733 507 722 q 411 743 461 743 l 236 743 m 381 951 l 356 951 q 342 960 347 951 l 183 1121 l 239 1168 l 368 1079 l 497 1168 l 553 1121 l 394 960 q 381 951 389 951 z "},"ř":{"ha":469,"x_min":78,"x_max":447,"o":"m 125 694 l 189 694 l 238 585 q 428 715 354 689 l 442 579 q 349 545 400 571 q 263 490 297 519 l 263 0 l 125 0 l 125 694 m 275 778 l 250 778 q 236 786 242 778 l 78 947 l 133 994 l 263 906 l 392 994 l 447 947 l 289 786 q 275 778 283 778 z "},"Ś":{"ha":697,"x_min":63,"x_max":642,"o":"m 88 147 q 321 115 215 115 q 489 124 426 115 l 489 350 l 364 360 q 131 426 188 374 q 75 622 75 479 q 131 826 75 764 q 324 889 186 889 q 594 863 463 889 l 574 736 q 363 757 444 757 q 228 750 282 757 l 228 517 l 369 507 q 594 428 540 496 q 632 348 622 392 q 642 235 642 304 q 626 117 642 165 q 589 44 611 69 q 524 5 567 18 q 446 -11 481 -8 q 306 -14 411 -14 q 63 14 201 -14 l 88 147 m 436 1157 q 448 1163 443 1163 q 458 1156 453 1163 l 519 1081 q 528 1065 528 1069 q 522 1054 528 1060 l 481 1019 q 450 1006 468 1010 l 256 957 l 225 1004 l 436 1157 z "},"ś":{"ha":633,"x_min":69,"x_max":571,"o":"m 74 501 q 307 715 74 715 q 528 682 422 715 l 503 553 q 300 583 403 583 q 213 578 271 583 l 213 436 q 497 351 422 406 q 571 189 571 296 q 522 33 571 83 q 331 -21 471 -21 q 69 14 192 -21 l 96 147 q 335 111 206 111 q 432 117 382 111 l 432 244 q 144 328 215 275 q 74 501 74 381 m 392 983 q 403 989 399 989 q 414 982 408 989 l 475 907 q 483 891 483 896 q 478 881 483 886 l 436 846 q 406 832 424 836 l 211 783 l 181 831 l 392 983 z "},"Ŝ":{"ha":697,"x_min":63,"x_max":642,"o":"m 88 147 q 321 115 215 115 q 489 124 426 115 l 489 350 l 364 360 q 131 426 188 374 q 75 622 75 479 q 131 826 75 764 q 324 889 186 889 q 594 863 463 889 l 574 736 q 363 757 444 757 q 228 750 282 757 l 228 517 l 369 507 q 594 428 540 496 q 632 348 622 392 q 642 235 642 304 q 626 117 642 165 q 589 44 611 69 q 524 5 567 18 q 446 -11 481 -8 q 306 -14 411 -14 q 63 14 201 -14 l 88 147 m 336 1163 l 361 1163 q 375 1154 369 1163 l 533 993 l 478 946 l 349 1035 l 219 946 l 164 993 l 322 1154 q 336 1163 328 1163 z "},"ŝ":{"ha":633,"x_min":69,"x_max":571,"o":"m 74 501 q 307 715 74 715 q 528 682 422 715 l 503 553 q 300 583 403 583 q 213 578 271 583 l 213 436 q 497 351 422 406 q 571 189 571 296 q 522 33 571 83 q 331 -21 471 -21 q 69 14 192 -21 l 96 147 q 335 111 206 111 q 432 117 382 111 l 432 244 q 144 328 215 275 q 74 501 74 381 m 310 989 l 335 989 q 349 981 342 989 l 507 819 l 451 772 l 322 861 l 193 772 l 138 819 l 296 981 q 310 989 303 989 z "},"Ş":{"ha":697,"x_min":63,"x_max":642,"o":"m 325 -92 l 325 -14 q 63 14 189 -11 l 88 147 q 321 115 215 115 q 489 124 426 115 l 489 350 l 364 360 q 131 426 188 374 q 75 622 75 479 q 131 826 75 764 q 324 889 186 889 q 594 863 463 889 l 574 736 q 363 757 444 757 q 228 750 282 757 l 228 517 l 369 507 q 594 428 540 496 q 632 348 622 392 q 642 231 642 304 q 625 108 642 158 q 574 32 608 57 q 500 -2 539 7 q 401 -12 461 -11 q 435 -109 435 -56 q 401 -196 435 -162 q 310 -229 367 -229 q 204 -207 254 -229 l 217 -136 l 265 -136 q 311 -128 297 -136 q 325 -92 325 -119 z "},"ş":{"ha":633,"x_min":69,"x_max":571,"o":"m 285 -92 l 285 -19 q 69 14 175 -15 l 96 147 q 335 111 206 111 q 432 117 382 111 l 432 244 q 144 328 215 275 q 74 501 74 381 q 307 715 74 715 q 528 682 422 715 l 503 553 q 300 583 403 583 q 213 578 271 583 l 213 436 q 497 351 422 406 q 571 185 571 296 q 517 29 571 74 q 367 -19 464 -15 q 394 -111 394 -60 q 360 -196 394 -162 q 270 -229 326 -229 q 164 -207 214 -229 l 176 -136 l 225 -136 q 271 -128 257 -136 q 285 -92 285 -119 z "},"Š":{"ha":697,"x_min":63,"x_max":642,"o":"m 88 147 q 321 115 215 115 q 489 124 426 115 l 489 350 l 364 360 q 131 426 188 374 q 75 622 75 479 q 131 826 75 764 q 324 889 186 889 q 594 863 463 889 l 574 736 q 363 757 444 757 q 228 750 282 757 l 228 517 l 369 507 q 594 428 540 496 q 632 348 622 392 q 642 235 642 304 q 626 117 642 165 q 589 44 611 69 q 524 5 567 18 q 446 -11 481 -8 q 306 -14 411 -14 q 63 14 201 -14 l 88 147 m 364 950 l 339 950 q 325 958 331 950 l 167 1119 l 222 1167 l 351 1078 l 481 1167 l 536 1119 l 378 958 q 364 950 372 950 z "},"š":{"ha":633,"x_min":69,"x_max":571,"o":"m 74 501 q 307 715 74 715 q 528 682 422 715 l 503 553 q 300 583 403 583 q 213 578 271 583 l 213 436 q 497 351 422 406 q 571 189 571 296 q 522 33 571 83 q 331 -21 471 -21 q 69 14 192 -21 l 96 147 q 335 111 206 111 q 432 117 382 111 l 432 244 q 144 328 215 275 q 74 501 74 381 m 346 778 l 321 778 q 307 786 313 778 l 149 947 l 204 994 l 333 906 l 463 994 l 518 947 l 360 786 q 346 778 353 778 z "},"Ţ":{"ha":683,"x_min":14,"x_max":556,"o":"m 289 -92 l 289 0 l 215 0 l 215 743 l 14 743 l 14 868 l 556 868 l 556 743 l 354 743 l 354 0 q 399 -105 399 -47 q 365 -196 399 -162 q 274 -229 331 -229 q 168 -207 218 -229 l 181 -136 l 229 -136 q 275 -128 261 -136 q 289 -92 289 -119 z "},"ţ":{"ha":471,"x_min":69,"x_max":429,"o":"m 297 -92 l 297 -12 q 196 22 225 -6 q 167 117 167 50 l 167 585 l 69 585 l 69 694 l 167 694 l 167 843 l 306 878 l 306 694 l 429 694 l 429 585 l 306 585 l 306 101 q 383 94 339 97 l 375 -14 q 407 -110 407 -57 q 373 -196 407 -162 q 283 -229 339 -229 q 176 -207 226 -229 l 189 -136 l 238 -136 q 283 -128 269 -136 q 297 -92 297 -119 z "},"Ť":{"ha":569,"x_min":14,"x_max":556,"o":"m 556 743 l 354 743 l 354 0 l 215 0 l 215 743 l 14 743 l 14 868 l 556 868 l 556 743 m 297 951 l 272 951 q 258 960 264 951 l 100 1121 l 156 1168 l 285 1079 l 414 1168 l 469 1121 l 311 960 q 297 951 304 951 z "},"ť":{"ha":492,"x_min":69,"x_max":557,"o":"m 306 694 l 403 694 l 403 585 l 306 585 l 306 101 q 383 94 339 97 l 375 -15 q 210 10 254 -15 q 167 117 167 36 l 167 585 l 69 585 l 69 694 l 167 694 l 167 843 l 306 878 l 306 694 m 446 736 q 395 756 408 739 q 382 824 382 774 q 400 899 382 875 q 469 924 418 924 q 539 899 521 924 q 557 815 557 875 q 532 700 557 756 l 489 606 l 435 622 l 446 736 z "},"Ŧ":{"ha":569,"x_min":14,"x_max":556,"o":"m 42 335 l 42 386 q 53 416 42 410 q 94 422 64 422 l 215 422 l 215 743 l 14 743 l 14 868 l 556 868 l 556 743 l 354 743 l 354 422 l 529 422 l 529 369 q 518 340 529 346 q 476 335 507 335 l 354 335 l 354 0 l 215 0 l 215 335 l 42 335 z "},"ŧ":{"ha":492,"x_min":69,"x_max":429,"o":"m 69 319 l 69 371 q 81 401 69 394 q 122 407 92 407 l 167 407 l 167 585 l 69 585 l 69 694 l 167 694 l 167 843 l 306 878 l 306 694 l 429 694 l 429 585 l 306 585 l 306 407 l 407 407 l 407 354 q 396 325 407 331 q 353 319 385 319 l 306 319 l 306 101 q 383 94 339 97 l 375 -15 q 210 10 254 -15 q 167 117 167 36 l 167 319 l 69 319 z "},"Ũ":{"ha":788,"x_min":90,"x_max":697,"o":"m 697 868 l 697 313 q 667 89 697 140 q 578 6 631 25 q 418 -21 504 -21 q 286 -13 332 -21 q 208 6 240 -6 q 153 42 175 18 q 119 88 132 65 q 100 150 107 111 q 90 313 90 217 l 90 868 l 229 868 l 229 119 l 400 119 q 524 133 490 119 q 558 193 558 146 l 558 868 l 697 868 m 554 1018 q 469 967 493 978 q 418 957 446 957 q 346 1000 390 957 l 325 1017 l 233 971 l 190 1042 l 232 1071 q 314 1122 290 1111 q 365 1132 338 1132 q 440 1089 393 1132 l 461 1072 l 553 1118 l 596 1047 l 554 1018 z "},"ũ":{"ha":771,"x_min":118,"x_max":646,"o":"m 646 0 l 581 0 l 544 69 q 286 -14 433 -14 q 162 19 206 -14 q 118 139 118 53 l 118 694 l 257 694 l 257 113 l 351 113 q 467 133 428 113 q 507 221 507 154 l 507 694 l 646 694 l 646 0 m 546 844 q 461 794 485 804 q 410 783 438 783 q 338 826 382 783 l 317 843 l 225 797 l 182 868 l 224 897 q 306 948 282 938 q 357 958 329 958 q 432 915 385 958 l 453 899 l 544 944 l 588 874 l 546 844 z "},"Ū":{"ha":788,"x_min":90,"x_max":697,"o":"m 697 868 l 697 313 q 667 89 697 140 q 578 6 631 25 q 418 -21 504 -21 q 286 -13 332 -21 q 208 6 240 -6 q 153 42 175 18 q 119 88 132 65 q 100 150 107 111 q 90 313 90 217 l 90 868 l 229 868 l 229 119 l 400 119 q 524 133 490 119 q 558 193 558 146 l 558 868 l 697 868 m 563 988 l 288 988 q 236 1001 247 988 q 225 1051 225 1014 l 225 1100 l 501 1100 q 552 1088 542 1100 q 563 1038 563 1075 l 563 988 z "},"ū":{"ha":771,"x_min":118,"x_max":646,"o":"m 646 0 l 581 0 l 544 69 q 286 -14 433 -14 q 162 19 206 -14 q 118 139 118 53 l 118 694 l 257 694 l 257 113 l 351 113 q 467 133 428 113 q 507 221 507 154 l 507 694 l 646 694 l 646 0 m 554 814 l 279 814 q 228 827 239 814 q 217 878 217 840 l 217 926 l 493 926 q 544 914 533 926 q 554 864 554 901 l 554 814 z "},"Ŭ":{"ha":788,"x_min":90,"x_max":697,"o":"m 697 868 l 697 313 q 667 89 697 140 q 578 6 631 25 q 418 -21 504 -21 q 286 -13 332 -21 q 208 6 240 -6 q 153 42 175 18 q 119 88 132 65 q 100 150 107 111 q 90 313 90 217 l 90 868 l 229 868 l 229 119 l 400 119 q 524 133 490 119 q 558 193 558 146 l 558 868 l 697 868 m 349 1079 q 359 1071 349 1079 q 393 1063 369 1063 q 438 1079 417 1063 q 467 1126 458 1096 l 557 1111 q 496 999 539 1036 q 393 961 453 961 q 229 1111 261 961 l 319 1126 q 349 1079 328 1096 z "},"ŭ":{"ha":771,"x_min":118,"x_max":646,"o":"m 646 0 l 581 0 l 544 69 q 286 -14 433 -14 q 162 19 206 -14 q 118 139 118 53 l 118 694 l 257 694 l 257 113 l 351 113 q 467 133 428 113 q 507 221 507 154 l 507 694 l 646 694 l 646 0 m 340 906 q 351 897 340 906 q 385 889 361 889 q 429 906 408 889 q 458 953 450 922 l 549 938 q 488 825 531 863 q 385 788 444 788 q 221 938 253 788 l 311 953 q 340 906 319 922 z "},"Ů":{"ha":788,"x_min":90,"x_max":697,"o":"m 697 868 l 697 313 q 667 89 697 140 q 578 6 631 25 q 418 -21 504 -21 q 286 -13 332 -21 q 208 6 240 -6 q 153 42 175 18 q 119 88 132 65 q 100 150 107 111 q 90 313 90 217 l 90 868 l 229 868 l 229 119 l 400 119 q 524 133 490 119 q 558 193 558 146 l 558 868 l 697 868 m 290 956 q 273 973 290 956 q 257 1060 257 990 q 290 1163 257 1129 q 394 1196 322 1196 q 499 1163 467 1196 q 531 1060 531 1129 q 499 956 531 990 q 394 922 467 922 q 290 956 322 922 m 335 1089 l 335 994 l 393 994 q 425 996 414 994 q 451 1031 451 1000 l 451 1124 l 397 1124 q 345 1114 356 1124 q 335 1089 335 1104 z "},"ů":{"ha":771,"x_min":118,"x_max":646,"o":"m 646 0 l 581 0 l 544 69 q 286 -14 433 -14 q 162 19 206 -14 q 118 139 118 53 l 118 694 l 257 694 l 257 113 l 351 113 q 467 133 428 113 q 507 221 507 154 l 507 694 l 646 694 l 646 0 m 281 783 q 265 800 281 783 q 249 886 249 817 q 281 989 249 956 q 386 1022 314 1022 q 490 989 458 1022 q 522 886 522 956 q 490 783 522 817 q 386 749 458 749 q 281 783 314 749 m 326 915 l 326 821 l 385 821 q 417 822 406 821 q 443 857 443 826 l 443 950 l 389 950 q 337 940 347 950 q 326 915 326 931 z "},"Ű":{"ha":788,"x_min":90,"x_max":746,"o":"m 697 868 l 697 313 q 667 89 697 140 q 578 6 631 25 q 418 -21 504 -21 q 286 -13 332 -21 q 208 6 240 -6 q 153 42 175 18 q 119 88 132 65 q 100 150 107 111 q 90 313 90 217 l 90 868 l 229 868 l 229 119 l 400 119 q 524 133 490 119 q 558 193 558 146 l 558 868 l 697 868 m 346 1160 q 358 1165 353 1165 q 368 1158 363 1165 l 429 1083 q 438 1067 438 1072 q 432 1057 438 1063 l 390 1022 q 360 1008 378 1013 l 192 967 l 161 1014 l 346 1160 m 654 1160 q 666 1165 661 1165 q 676 1158 671 1165 l 738 1083 q 746 1067 746 1072 q 740 1057 746 1063 l 699 1022 q 668 1008 686 1013 l 500 967 l 469 1014 l 654 1160 z "},"ű":{"ha":771,"x_min":118,"x_max":706,"o":"m 646 0 l 581 0 l 544 69 q 286 -14 433 -14 q 162 19 206 -14 q 118 139 118 53 l 118 694 l 257 694 l 257 113 l 351 113 q 467 133 428 113 q 507 221 507 154 l 507 694 l 646 694 l 646 0 m 306 983 q 317 989 313 989 q 328 982 322 989 l 389 907 q 397 891 397 896 q 392 881 397 886 l 350 846 q 319 832 338 836 l 151 790 l 121 838 l 306 983 m 614 983 q 626 989 621 989 q 636 982 631 989 l 697 907 q 706 891 706 896 q 700 881 706 886 l 658 846 q 628 832 646 836 l 460 790 l 429 838 l 614 983 z "},"Ų":{"ha":788,"x_min":90,"x_max":697,"o":"m 697 868 l 697 313 q 694 198 697 240 q 676 110 690 156 q 635 42 663 65 q 440 -19 572 -11 q 425 -62 425 -29 l 425 -92 q 465 -139 425 -139 q 485 -136 471 -139 l 511 -129 l 538 -200 q 435 -229 490 -229 q 347 -196 379 -229 q 315 -107 315 -162 q 351 -19 315 -51 q 153 40 217 -14 q 94 197 103 82 q 90 313 90 239 l 90 868 l 229 868 l 229 119 l 400 119 q 524 133 490 119 q 558 193 558 146 l 558 868 l 697 868 z "},"ų":{"ha":771,"x_min":118,"x_max":683,"o":"m 571 -62 l 571 -92 q 611 -139 571 -139 q 631 -136 617 -139 l 657 -129 l 683 -200 q 581 -229 636 -229 q 493 -196 525 -229 q 461 -113 461 -162 q 485 -33 461 -64 q 572 15 510 -1 l 544 69 q 286 -14 433 -14 q 162 19 206 -14 q 118 139 118 53 l 118 694 l 257 694 l 257 113 l 351 113 q 467 133 428 113 q 507 221 507 154 l 507 694 l 646 694 l 646 0 l 618 -7 q 580 -25 589 -15 q 571 -62 571 -35 z "},"Ŵ":{"ha":1057,"x_min":28,"x_max":1029,"o":"m 460 833 l 597 833 l 744 128 l 757 128 l 882 868 l 1029 868 l 860 0 l 649 0 l 533 540 l 524 540 l 408 0 l 197 0 l 28 868 l 175 868 l 300 128 l 313 128 l 460 833 m 515 1163 l 540 1163 q 554 1154 547 1163 l 713 993 l 657 946 l 528 1035 l 399 946 l 343 993 l 501 1154 q 515 1163 508 1163 z "},"ŵ":{"ha":978,"x_min":28,"x_max":950,"o":"m 171 0 l 28 694 l 169 694 l 282 118 l 297 118 l 431 653 l 547 653 l 671 118 l 686 118 l 808 694 l 950 694 l 794 0 l 586 0 l 490 410 l 479 410 l 378 0 l 171 0 m 476 989 l 501 989 q 515 981 508 989 l 674 819 l 618 772 l 489 861 l 360 772 l 304 819 l 463 981 q 476 989 469 989 z "},"Ŷ":{"ha":653,"x_min":14,"x_max":639,"o":"m 396 0 l 257 0 l 257 278 l 14 868 l 161 868 l 321 438 l 331 438 l 492 868 l 639 868 l 396 278 l 396 0 m 314 1163 l 339 1163 q 353 1154 346 1163 l 511 993 l 456 946 l 326 1035 l 197 946 l 142 993 l 300 1154 q 314 1163 306 1163 z "},"ŷ":{"ha":663,"x_min":22,"x_max":639,"o":"m 304 42 l 221 42 l 22 694 l 164 694 l 324 160 l 338 160 l 497 694 l 639 694 l 424 -21 q 324 -183 389 -136 q 150 -229 258 -229 l 33 -229 l 33 -146 l 164 -121 q 261 -85 229 -108 q 304 -19 293 -61 l 304 42 m 319 989 l 344 989 q 358 981 353 989 l 517 819 l 461 772 l 332 861 l 203 772 l 147 819 l 306 981 q 319 989 311 989 z "},"Ÿ":{"ha":653,"x_min":14,"x_max":639,"o":"m 396 0 l 257 0 l 257 278 l 14 868 l 161 868 l 321 438 l 331 438 l 492 868 l 639 868 l 396 278 l 396 0 m 142 988 q 135 996 142 988 q 128 1050 128 1004 q 142 1113 128 1096 q 199 1131 156 1131 q 257 1113 243 1131 q 271 1050 271 1096 q 257 988 271 1004 q 199 971 243 971 q 142 988 156 971 m 396 988 q 389 996 396 988 q 382 1050 382 1004 q 396 1113 382 1096 q 453 1131 410 1131 q 511 1113 497 1131 q 525 1050 525 1096 q 511 988 525 1004 q 453 971 497 971 q 396 988 410 971 z "},"Ź":{"ha":693,"x_min":42,"x_max":651,"o":"m 651 0 l 42 0 l 42 118 l 457 721 l 453 729 l 97 729 l 81 868 l 646 868 l 646 750 l 235 147 l 239 139 l 651 139 l 651 0 m 472 1157 q 484 1163 479 1163 q 494 1156 489 1163 l 556 1081 q 564 1065 564 1069 q 558 1054 564 1060 l 517 1019 q 486 1006 504 1010 l 292 957 l 261 1004 l 472 1157 z "},"ź":{"ha":667,"x_min":83,"x_max":597,"o":"m 589 694 l 589 601 l 274 136 l 278 128 l 597 128 l 597 0 l 83 0 l 83 106 l 403 558 l 399 567 l 113 567 l 97 694 l 589 694 m 444 983 q 456 989 451 989 q 467 982 461 989 l 528 907 q 536 891 536 896 q 531 881 536 886 l 489 846 q 458 832 476 836 l 264 783 l 233 831 l 444 983 z "},"Ż":{"ha":693,"x_min":42,"x_max":651,"o":"m 651 0 l 42 0 l 42 118 l 457 721 l 453 729 l 97 729 l 81 868 l 646 868 l 646 750 l 235 147 l 239 139 l 651 139 l 651 0 m 313 986 q 304 996 313 986 q 294 1058 294 1006 q 313 1132 294 1111 q 388 1153 332 1153 q 463 1132 444 1153 q 481 1058 481 1111 q 463 985 481 1004 q 388 967 444 967 q 313 986 332 967 z "},"ż":{"ha":667,"x_min":83,"x_max":597,"o":"m 589 694 l 589 601 l 274 136 l 278 128 l 597 128 l 597 0 l 83 0 l 83 106 l 403 558 l 399 567 l 113 567 l 97 694 l 589 694 m 306 813 q 297 822 306 813 q 288 885 288 832 q 306 958 288 938 q 381 979 325 979 q 456 958 438 979 q 474 884 474 938 q 456 812 474 831 q 381 793 438 793 q 306 813 325 793 z "},"Ž":{"ha":693,"x_min":42,"x_max":651,"o":"m 651 0 l 42 0 l 42 118 l 457 721 l 453 729 l 97 729 l 81 868 l 646 868 l 646 750 l 235 147 l 239 139 l 651 139 l 651 0 m 386 950 l 361 950 q 347 958 353 950 l 189 1119 l 244 1167 l 374 1078 l 503 1167 l 558 1119 l 400 958 q 386 950 394 950 z "},"ž":{"ha":667,"x_min":83,"x_max":597,"o":"m 589 694 l 589 601 l 274 136 l 278 128 l 597 128 l 597 0 l 83 0 l 83 106 l 403 558 l 399 567 l 113 567 l 97 694 l 589 694 m 367 778 l 342 778 q 328 786 333 778 l 169 947 l 225 994 l 354 906 l 483 994 l 539 947 l 381 786 q 367 778 375 778 z "},"ƒ":{"ha":582,"x_min":29,"x_max":554,"o":"m 171 -229 l 29 -229 l 29 -146 l 107 -122 q 160 -92 142 -111 q 179 -26 178 -72 l 197 399 l 90 399 l 90 478 l 200 478 l 207 615 q 258 822 214 754 q 385 890 301 890 q 554 864 468 890 l 526 760 l 456 760 q 377 729 404 760 q 346 594 350 699 l 340 478 l 497 478 l 489 399 l 338 399 l 321 0 q 171 -229 313 -229 z "},"Ǻ":{"ha":888,"x_min":25,"x_max":738,"o":"m 590 0 l 543 190 l 218 190 l 172 0 l 25 0 l 250 868 l 513 868 l 738 0 l 590 0 m 353 740 l 249 315 l 513 315 l 410 740 l 353 740 m 285 955 q 269 972 285 955 q 253 1058 253 989 q 285 1161 253 1128 q 390 1194 318 1194 q 458 1183 428 1194 l 553 1264 q 565 1269 560 1269 q 575 1263 569 1269 l 615 1213 q 624 1197 624 1201 q 618 1186 624 1192 l 576 1151 q 546 1138 564 1142 l 513 1132 q 526 1047 526 1104 q 494 955 526 989 q 390 921 463 921 q 285 955 318 921 m 331 1088 l 331 993 l 389 993 q 419 994 410 993 q 447 1029 447 999 l 447 1122 l 393 1122 q 341 1113 351 1122 q 331 1088 331 1103 z "},"ǻ":{"ha":806,"x_min":76,"x_max":622,"o":"m 217 113 l 375 113 q 460 128 436 113 q 485 193 485 143 l 485 317 l 326 317 q 241 301 265 317 q 217 236 217 286 l 217 113 m 279 -14 q 76 201 76 -14 q 158 380 76 326 q 396 433 239 433 l 485 433 l 485 572 q 381 578 442 578 q 156 549 239 578 l 139 665 q 387 708 268 708 q 564 669 506 708 q 622 513 622 629 l 622 0 l 558 0 l 521 69 q 279 -14 428 -14 m 281 783 q 265 800 281 783 q 249 886 249 817 q 281 989 249 956 q 386 1022 314 1022 q 454 1011 424 1022 l 549 1092 q 560 1097 556 1097 q 571 1090 565 1097 l 611 1040 q 619 1024 619 1029 q 614 1014 619 1019 l 572 979 q 542 965 560 969 l 508 960 q 522 874 522 932 q 490 783 522 817 q 386 749 458 749 q 281 783 314 749 m 326 915 l 326 821 l 385 821 q 417 822 406 821 q 443 857 443 826 l 443 950 l 389 950 q 337 940 347 950 q 326 915 326 931 z "},"Ǽ":{"ha":1022,"x_min":25,"x_max":988,"o":"m 860 488 l 860 369 l 642 369 l 704 125 l 988 125 l 988 0 l 590 0 l 543 190 l 218 190 l 172 0 l 25 0 l 250 868 l 918 868 l 897 743 l 544 743 l 611 488 l 860 488 m 353 740 l 249 315 l 513 315 l 410 740 l 353 740 m 621 1157 q 633 1163 628 1163 q 643 1156 638 1163 l 704 1081 q 713 1065 713 1069 q 707 1054 713 1060 l 665 1019 q 635 1006 653 1010 l 440 957 l 410 1004 l 621 1157 z "},"ǽ":{"ha":1115,"x_min":76,"x_max":1032,"o":"m 1008 28 q 776 -11 892 -11 q 606 6 660 -11 q 521 69 551 24 q 279 -14 428 -14 q 76 201 76 -14 q 158 380 76 326 q 396 433 239 433 l 485 433 l 485 572 q 381 578 442 578 q 156 549 239 578 l 139 665 q 389 708 268 708 q 564 649 510 708 q 772 715 626 715 q 974 670 917 715 q 1032 486 1032 625 q 1016 366 1032 396 q 988 320 1000 336 q 947 293 976 304 q 894 276 918 282 q 822 267 869 271 q 622 263 754 263 l 622 125 q 775 110 686 110 q 983 143 864 110 l 1008 28 m 890 583 l 732 583 q 648 569 674 583 q 622 513 622 554 l 622 379 l 781 379 q 866 394 842 379 q 890 460 890 410 l 890 583 m 217 113 l 375 113 q 460 128 436 113 q 485 193 485 143 l 485 317 l 326 317 q 241 301 265 317 q 217 236 217 286 l 217 113 m 658 983 q 670 989 665 989 q 681 982 675 989 l 742 907 q 750 891 750 896 q 744 881 750 886 l 703 846 q 672 832 690 836 l 478 783 l 447 831 l 658 983 z "},"Ǿ":{"ha":807,"x_min":69,"x_max":738,"o":"m 738 433 q 670 71 738 163 q 403 -21 603 -21 q 218 7 286 -21 l 204 -21 q 192 -40 197 -35 q 144 -56 176 -56 l 88 -56 l 143 61 q 69 428 69 150 q 136 797 69 706 q 403 889 203 889 q 538 876 481 889 l 544 889 q 557 908 551 903 q 604 924 572 924 l 661 924 l 622 842 q 712 703 686 799 q 738 433 738 608 m 585 749 l 576 749 l 272 119 l 476 119 q 559 133 533 119 q 585 193 585 146 l 585 749 m 222 675 l 222 222 l 476 749 l 329 749 q 248 735 274 749 q 222 675 222 722 m 490 1157 q 502 1163 497 1163 q 513 1156 507 1163 l 574 1081 q 582 1065 582 1069 q 576 1054 582 1060 l 535 1019 q 504 1006 522 1010 l 310 957 l 279 1004 l 490 1157 z "},"ǿ":{"ha":764,"x_min":94,"x_max":669,"o":"m 669 347 q 610 65 669 151 q 382 -21 550 -21 q 261 -6 314 -21 l 213 -107 q 200 -126 206 -121 q 153 -142 185 -142 l 96 -142 l 182 36 q 94 347 94 111 q 154 629 94 543 q 382 715 214 715 q 503 700 450 715 l 553 803 q 565 822 560 817 q 613 838 581 838 l 669 838 l 582 657 q 669 347 669 582 m 246 501 l 246 168 l 446 582 l 356 582 q 270 567 294 582 q 246 501 246 551 m 408 113 q 494 128 469 113 q 518 193 518 143 l 518 524 l 318 113 l 408 113 m 472 983 q 484 989 479 989 q 494 982 489 989 l 556 907 q 564 891 564 896 q 558 881 564 886 l 517 846 q 486 832 504 836 l 292 783 l 261 831 l 472 983 z "},"Ș":{"ha":697,"x_min":63,"x_max":642,"o":"m 88 147 q 321 115 215 115 q 489 124 426 115 l 489 350 l 364 360 q 131 426 188 374 q 75 622 75 479 q 131 826 75 764 q 324 889 186 889 q 594 863 463 889 l 574 736 q 363 757 444 757 q 228 750 282 757 l 228 517 l 369 507 q 594 428 540 496 q 632 348 622 392 q 642 235 642 304 q 626 117 642 165 q 589 44 611 69 q 524 5 567 18 q 446 -11 481 -8 q 306 -14 411 -14 q 63 14 201 -14 l 88 147 m 335 -240 q 284 -220 297 -237 q 271 -152 271 -203 q 289 -77 271 -101 q 358 -53 307 -53 q 428 -77 410 -53 q 446 -161 446 -101 q 421 -276 446 -221 l 378 -371 l 324 -354 l 335 -240 z "},"ș":{"ha":633,"x_min":69,"x_max":571,"o":"m 74 501 q 307 715 74 715 q 528 682 422 715 l 503 553 q 300 583 403 583 q 213 578 271 583 l 213 436 q 497 351 422 406 q 571 189 571 296 q 522 33 571 83 q 331 -21 471 -21 q 69 14 192 -21 l 96 147 q 335 111 206 111 q 432 117 382 111 l 432 244 q 144 328 215 275 q 74 501 74 381 m 286 -240 q 235 -220 249 -237 q 222 -152 222 -203 q 240 -77 222 -101 q 310 -53 258 -53 q 379 -77 361 -53 q 397 -161 397 -101 q 372 -276 397 -221 l 329 -371 l 275 -354 l 286 -240 z "},"Ț":{"ha":569,"x_min":14,"x_max":556,"o":"m 556 743 l 354 743 l 354 0 l 215 0 l 215 743 l 14 743 l 14 868 l 556 868 l 556 743 m 261 -240 q 210 -220 224 -237 q 197 -152 197 -203 q 215 -77 197 -101 q 285 -53 233 -53 q 354 -77 336 -53 q 372 -161 372 -101 q 347 -276 372 -221 l 304 -371 l 250 -354 l 261 -240 z "},"ț":{"ha":492,"x_min":69,"x_max":429,"o":"m 306 694 l 429 694 l 429 585 l 306 585 l 306 101 q 383 94 339 97 l 375 -15 q 210 10 254 -15 q 167 117 167 36 l 167 585 l 69 585 l 69 694 l 167 694 l 167 843 l 306 878 l 306 694 m 222 -240 q 172 -220 185 -237 q 158 -152 158 -203 q 176 -77 158 -101 q 246 -53 194 -53 q 315 -77 297 -53 q 333 -161 333 -101 q 308 -276 333 -221 l 265 -371 l 211 -354 l 222 -240 z "},"ˆ":{"ha":535,"x_min":82,"x_max":451,"o":"m 254 989 l 279 989 q 293 981 286 989 l 451 819 l 396 772 l 267 861 l 138 772 l 82 819 l 240 981 q 254 989 246 989 z "},"ˇ":{"ha":535,"x_min":82,"x_max":451,"o":"m 279 778 l 254 778 q 240 786 247 778 l 82 947 l 138 994 l 267 906 l 396 994 l 451 947 l 293 786 q 279 778 286 778 z "},"ˉ":{"ha":554,"x_min":108,"x_max":446,"o":"m 446 814 l 171 814 q 119 827 131 814 q 108 878 108 840 l 108 926 l 385 926 q 435 914 425 926 q 446 864 446 901 l 446 814 z "},"˘":{"ha":535,"x_min":103,"x_max":431,"o":"m 222 906 q 233 897 222 906 q 267 889 243 889 q 311 906 290 889 q 340 953 332 922 l 431 938 q 369 825 413 863 q 267 788 326 788 q 103 938 135 788 l 193 953 q 222 906 201 922 z "},"˙":{"ha":368,"x_min":90,"x_max":276,"o":"m 109 813 q 100 822 109 813 q 90 885 90 832 q 109 958 90 938 q 184 979 128 979 q 258 958 240 979 q 276 884 276 938 q 258 812 276 831 q 184 793 240 793 q 109 813 128 793 z "},"˚":{"ha":368,"x_min":47,"x_max":321,"o":"m 80 783 q 64 800 80 783 q 47 886 47 817 q 80 989 47 956 q 185 1022 113 1022 q 289 989 257 1022 q 321 886 321 956 q 289 783 321 817 q 185 749 257 749 q 80 783 113 749 m 125 915 l 125 821 l 183 821 q 214 822 204 821 q 242 857 242 826 l 242 950 l 188 950 q 135 940 146 950 q 125 915 125 931 z "},"˛":{"ha":383,"x_min":69,"x_max":292,"o":"m 179 -62 l 179 -92 q 219 -139 179 -139 q 239 -136 225 -139 l 265 -129 l 292 -200 q 189 -229 244 -229 q 101 -196 133 -229 q 69 -110 69 -162 q 102 -24 69 -57 q 219 24 135 10 l 254 29 l 254 0 l 226 -7 q 188 -25 197 -15 q 179 -62 179 -35 z "},"˜":{"ha":636,"x_min":115,"x_max":521,"o":"m 479 844 q 394 794 418 804 q 343 783 371 783 q 271 826 315 783 l 250 843 l 158 797 l 115 868 l 157 897 q 239 948 215 938 q 290 958 263 958 q 365 915 318 958 l 386 899 l 478 944 l 521 874 l 479 844 z "},"˝":{"ha":832,"x_min":153,"x_max":738,"o":"m 338 983 q 349 989 344 989 q 360 982 354 989 l 421 907 q 429 891 429 896 q 424 881 429 886 l 382 846 q 351 832 369 836 l 183 790 l 153 838 l 338 983 m 646 983 q 658 989 653 989 q 668 982 663 989 l 729 907 q 738 891 738 896 q 732 881 738 886 l 690 846 q 660 832 678 836 l 492 790 l 461 838 l 646 983 z "},"Δ":{"ha":921,"x_min":69,"x_max":851,"o":"m 375 868 l 546 868 l 851 72 l 825 0 l 96 0 l 69 72 l 375 868 m 629 111 q 669 143 669 111 q 667 163 669 156 l 456 715 l 439 715 l 203 111 l 629 111 z "},"Ω":{"ha":921,"x_min":63,"x_max":858,"o":"m 63 0 l 63 101 l 243 113 l 251 193 q 115 313 149 236 q 82 496 82 389 q 99 665 82 603 q 155 780 115 726 q 272 861 194 833 q 463 889 350 889 q 653 861 575 889 q 771 780 731 833 q 827 665 811 726 q 843 496 843 603 q 808 311 843 389 q 669 190 774 233 l 678 113 l 858 101 l 858 0 l 590 0 l 569 292 q 647 306 622 292 q 672 367 672 319 l 672 736 l 351 736 q 273 720 297 736 q 249 649 249 704 l 249 379 q 273 308 249 324 q 351 292 297 292 l 331 0 l 63 0 z "},"μ":{"ha":778,"x_min":125,"x_max":653,"o":"m 354 0 l 240 0 l 196 -229 l 125 -229 l 125 694 l 264 694 l 264 113 l 379 113 q 478 134 442 113 q 514 221 514 156 l 514 694 l 653 715 l 653 0 l 588 0 l 551 69 q 354 0 486 0 z "},"π":{"ha":857,"x_min":111,"x_max":785,"o":"m 690 556 l 690 101 q 754 94 738 96 l 746 -15 q 590 10 628 -15 q 551 117 551 35 l 551 556 l 403 556 q 351 544 368 556 q 328 503 333 532 l 250 0 l 136 0 l 171 578 l 111 594 l 111 694 l 656 694 q 664 744 661 718 l 785 735 q 765 594 785 632 q 690 556 746 556 z "},"Ẁ":{"ha":1057,"x_min":28,"x_max":1029,"o":"m 460 833 l 597 833 l 744 128 l 757 128 l 882 868 l 1029 868 l 860 0 l 649 0 l 533 540 l 524 540 l 408 0 l 197 0 l 28 868 l 175 868 l 300 128 l 313 128 l 460 833 m 382 1040 q 376 1051 376 1046 q 385 1067 376 1056 l 446 1142 q 456 1149 451 1149 q 468 1143 461 1149 l 679 990 l 649 943 l 454 992 q 424 1006 436 996 l 382 1040 z "},"ẁ":{"ha":978,"x_min":28,"x_max":950,"o":"m 171 0 l 28 694 l 169 694 l 282 118 l 297 118 l 431 653 l 547 653 l 671 118 l 686 118 l 808 694 l 950 694 l 794 0 l 586 0 l 490 410 l 479 410 l 378 0 l 171 0 m 329 867 q 324 877 324 872 q 332 893 324 882 l 393 968 q 403 975 399 975 q 415 969 408 975 l 626 817 l 596 769 l 401 818 q 371 832 383 822 l 329 867 z "},"Ẃ":{"ha":1057,"x_min":28,"x_max":1029,"o":"m 460 833 l 597 833 l 744 128 l 757 128 l 882 868 l 1029 868 l 860 0 l 649 0 l 533 540 l 524 540 l 408 0 l 197 0 l 28 868 l 175 868 l 300 128 l 313 128 l 460 833 m 615 1157 q 627 1163 622 1163 q 638 1156 632 1163 l 699 1081 q 707 1065 707 1069 q 701 1054 707 1060 l 660 1019 q 629 1006 647 1010 l 435 957 l 404 1004 l 615 1157 z "},"ẃ":{"ha":978,"x_min":28,"x_max":950,"o":"m 171 0 l 28 694 l 169 694 l 282 118 l 297 118 l 431 653 l 547 653 l 671 118 l 686 118 l 808 694 l 950 694 l 794 0 l 586 0 l 490 410 l 479 410 l 378 0 l 171 0 m 590 983 q 602 989 597 989 q 613 982 607 989 l 674 907 q 682 891 682 896 q 676 881 682 886 l 635 846 q 604 832 622 836 l 410 783 l 379 831 l 590 983 z "},"Ẅ":{"ha":1057,"x_min":28,"x_max":1029,"o":"m 460 833 l 597 833 l 744 128 l 757 128 l 882 868 l 1029 868 l 860 0 l 649 0 l 533 540 l 524 540 l 408 0 l 197 0 l 28 868 l 175 868 l 300 128 l 313 128 l 460 833 m 343 989 q 336 997 343 989 q 329 1051 329 1006 q 343 1115 329 1097 q 401 1132 357 1132 q 458 1115 444 1132 q 472 1051 472 1097 q 458 989 472 1006 q 401 972 444 972 q 343 989 357 972 m 597 989 q 590 997 597 989 q 583 1051 583 1006 q 597 1115 583 1097 q 655 1132 611 1132 q 713 1115 699 1132 q 726 1051 726 1097 q 713 989 726 1006 q 655 972 699 972 q 597 989 611 972 z "},"ẅ":{"ha":978,"x_min":28,"x_max":950,"o":"m 171 0 l 28 694 l 169 694 l 282 118 l 297 118 l 431 653 l 547 653 l 671 118 l 686 118 l 808 694 l 950 694 l 794 0 l 586 0 l 490 410 l 479 410 l 378 0 l 171 0 m 304 815 q 297 824 304 815 q 290 878 290 832 q 304 941 290 924 q 362 958 318 958 q 419 941 406 958 q 433 878 433 924 q 419 815 433 832 q 362 799 406 799 q 304 815 318 799 m 558 815 q 551 824 558 815 q 544 878 544 832 q 558 941 544 924 q 616 958 572 958 q 674 941 660 958 q 688 878 688 924 q 674 815 688 832 q 616 799 660 799 q 558 815 572 799 z "},"Ỳ":{"ha":653,"x_min":14,"x_max":639,"o":"m 396 0 l 257 0 l 257 278 l 14 868 l 161 868 l 321 438 l 331 438 l 492 868 l 639 868 l 396 278 l 396 0 m 181 1040 q 175 1051 175 1046 q 183 1067 175 1056 l 244 1142 q 255 1149 250 1149 q 267 1143 260 1149 l 478 990 l 447 943 l 253 992 q 222 1006 235 996 l 181 1040 z "},"ỳ":{"ha":663,"x_min":22,"x_max":639,"o":"m 304 42 l 221 42 l 22 694 l 164 694 l 324 160 l 338 160 l 497 694 l 639 694 l 424 -21 q 324 -183 389 -136 q 150 -229 258 -229 l 33 -229 l 33 -146 l 164 -121 q 261 -85 229 -108 q 304 -19 293 -61 l 304 42 m 185 867 q 179 877 179 872 q 188 893 179 882 l 249 968 q 259 975 254 975 q 271 969 264 975 l 482 817 l 451 769 l 257 818 q 226 832 239 822 l 185 867 z "},"–":{"ha":743,"x_min":46,"x_max":697,"o":"m 46 324 l 46 393 q 61 432 46 424 q 117 440 76 440 l 697 440 l 697 371 q 682 332 697 340 q 626 324 667 324 l 46 324 z "},"—":{"ha":1103,"x_min":46,"x_max":1057,"o":"m 46 324 l 46 393 q 61 432 46 424 q 117 440 76 440 l 1057 440 l 1057 371 q 1042 332 1057 340 q 986 324 1026 324 l 46 324 z "},"‘":{"ha":349,"x_min":83,"x_max":265,"o":"m 208 696 q 253 665 242 689 q 265 583 265 640 q 247 500 265 525 q 174 475 228 475 q 102 500 121 475 q 83 591 83 525 q 119 733 83 657 l 185 874 l 244 854 l 208 696 z "},"’":{"ha":349,"x_min":83,"x_max":265,"o":"m 140 653 q 95 684 107 660 q 83 766 83 708 q 102 849 83 824 q 174 874 121 874 q 247 849 228 874 q 265 758 265 824 q 229 615 265 692 l 164 475 l 104 494 l 140 653 z "},"‚":{"ha":307,"x_min":63,"x_max":244,"o":"m 119 -6 q 74 26 86 1 q 63 108 63 50 q 81 190 63 165 q 153 215 100 215 q 226 190 207 215 q 244 99 244 165 q 208 -43 244 33 l 143 -183 l 83 -164 l 119 -6 z "},"“":{"ha":615,"x_min":83,"x_max":532,"o":"m 208 696 q 253 665 242 689 q 265 583 265 640 q 247 500 265 525 q 174 475 228 475 q 102 500 121 475 q 83 591 83 525 q 119 733 83 657 l 185 874 l 244 854 l 208 696 m 475 696 q 520 665 508 689 q 532 583 532 640 q 513 500 532 525 q 441 475 494 475 q 369 500 388 475 q 350 591 350 525 q 386 733 350 657 l 451 874 l 511 854 l 475 696 z "},"”":{"ha":615,"x_min":83,"x_max":532,"o":"m 407 653 q 362 684 374 660 q 350 766 350 708 q 369 849 350 824 q 441 874 388 874 q 513 849 494 874 q 532 758 532 824 q 496 615 532 692 l 431 475 l 371 494 l 407 653 m 140 653 q 95 684 107 660 q 83 766 83 708 q 102 849 83 824 q 174 874 121 874 q 247 849 228 874 q 265 758 265 824 q 229 615 265 692 l 164 475 l 104 494 l 140 653 z "},"„":{"ha":574,"x_min":63,"x_max":511,"o":"m 386 -6 q 341 26 353 1 q 329 108 329 50 q 348 190 329 165 q 420 215 367 215 q 492 190 474 215 q 511 99 511 165 q 475 -43 511 33 l 410 -183 l 350 -164 l 386 -6 m 119 -6 q 74 26 86 1 q 63 108 63 50 q 81 190 63 165 q 153 215 100 215 q 226 190 207 215 q 244 99 244 165 q 208 -43 244 33 l 143 -183 l 83 -164 l 119 -6 z "},"†":{"ha":667,"x_min":69,"x_max":597,"o":"m 597 556 l 372 583 l 417 -69 l 250 -69 l 293 583 l 69 556 l 69 722 l 285 694 l 250 924 l 417 924 l 382 690 l 597 722 l 597 556 z "},"‡":{"ha":750,"x_min":111,"x_max":639,"o":"m 639 556 l 418 583 l 413 426 l 418 269 l 639 299 l 639 132 l 436 161 l 458 -69 l 292 -69 l 313 161 l 111 132 l 111 299 l 332 271 l 338 426 l 332 583 l 111 556 l 111 722 l 313 693 l 292 924 l 458 924 l 436 693 l 639 722 l 639 556 z "},"•":{"ha":392,"x_min":90,"x_max":301,"o":"m 196 335 q 165 335 196 335 q 112 357 133 335 q 90 437 90 379 q 112 517 90 494 q 196 540 133 540 q 280 517 258 540 q 301 436 301 493 q 280 357 301 379 q 196 335 258 335 z "},"…":{"ha":921,"x_min":63,"x_max":858,"o":"m 81 16 q 72 28 81 16 q 63 103 63 40 q 81 190 63 165 q 153 215 100 215 q 226 190 207 215 q 244 103 244 165 q 226 16 244 40 q 154 -8 208 -8 q 81 16 100 -8 m 388 16 q 379 28 388 16 q 369 103 369 40 q 388 190 369 165 q 460 215 407 215 q 533 190 514 215 q 551 103 551 165 q 533 16 551 40 q 461 -8 515 -8 q 388 16 407 -8 m 695 16 q 686 28 695 16 q 676 103 676 40 q 695 190 676 165 q 767 215 714 215 q 840 190 821 215 q 858 103 858 165 q 840 16 858 40 q 768 -8 822 -8 q 695 16 714 -8 z "},"‰":{"ha":1665,"x_min":50,"x_max":1613,"o":"m 861 53 q 838 86 861 53 q 815 268 815 119 q 861 483 815 417 q 1035 549 907 549 q 1214 481 1163 549 q 1392 549 1263 549 q 1567 483 1521 549 q 1613 268 1613 417 q 1567 53 1613 119 q 1391 -12 1521 -12 q 1214 56 1261 -12 q 1035 -12 1164 -12 q 861 53 907 -12 m 96 369 q 73 402 96 369 q 50 583 50 435 q 96 798 50 732 q 272 864 142 864 q 447 798 401 864 q 493 583 493 732 q 447 369 493 435 q 272 303 401 303 q 96 369 142 303 m 482 -56 l 411 -56 l 785 889 q 797 908 792 903 q 844 924 813 924 l 915 924 l 542 -21 q 529 -40 535 -35 q 482 -56 514 -56 m 1306 394 l 1306 83 l 1394 83 q 1457 94 1439 83 q 1475 140 1475 104 l 1475 451 l 1383 451 q 1322 442 1338 451 q 1306 394 1306 432 m 951 394 l 951 83 l 1040 83 q 1103 94 1085 83 q 1121 140 1121 104 l 1121 451 l 1029 451 q 967 442 983 451 q 951 394 951 432 m 186 710 l 186 399 l 275 399 q 338 409 319 399 q 356 456 356 419 l 356 767 l 264 767 q 202 757 218 767 q 186 710 186 747 z "},"‹":{"ha":328,"x_min":35,"x_max":293,"o":"m 35 403 l 244 617 l 293 579 l 160 347 l 293 115 l 244 78 l 35 290 l 35 403 z "},"›":{"ha":328,"x_min":35,"x_max":293,"o":"m 83 617 l 293 403 l 293 290 l 83 78 l 35 115 l 168 347 l 35 579 l 83 617 z "},"⁄":{"ha":699,"x_min":97,"x_max":601,"o":"m 168 -56 l 97 -56 l 471 889 q 483 908 478 903 q 531 924 499 924 l 601 924 l 228 -21 q 215 -40 221 -35 q 168 -56 200 -56 z "},"₀":{"ha":518,"x_min":38,"x_max":481,"o":"m 83 -95 q 60 -62 83 -95 q 38 119 38 -29 q 83 334 38 268 q 259 400 129 400 q 435 334 389 400 q 481 119 481 268 q 435 -95 481 -29 q 259 -161 389 -161 q 83 -95 129 -161 m 174 246 l 174 -65 l 263 -65 q 325 -55 307 -65 q 343 -8 343 -44 l 343 303 l 251 303 q 190 293 206 303 q 174 246 174 283 z "},"₁":{"ha":518,"x_min":82,"x_max":471,"o":"m 232 265 l 82 253 l 82 342 l 271 386 l 363 386 l 363 -53 l 471 -53 l 471 -149 l 82 -149 l 82 -53 l 232 -53 l 232 265 z "},"₂":{"ha":518,"x_min":56,"x_max":464,"o":"m 69 374 q 266 400 168 400 q 414 369 364 400 q 464 244 464 338 q 415 111 464 151 q 206 17 365 71 l 206 -53 l 456 -53 l 456 -149 l 56 -149 l 56 -53 q 114 78 56 33 q 258 156 165 115 l 329 186 l 329 285 q 228 292 292 292 q 89 275 164 292 l 69 374 z "},"₃":{"ha":518,"x_min":68,"x_max":469,"o":"m 68 -144 q 89 -32 81 -69 q 219 -50 161 -50 q 325 -44 276 -50 l 325 57 l 181 78 l 181 160 l 325 183 l 325 285 q 233 292 290 292 q 97 276 176 292 l 78 369 q 266 400 172 400 q 408 375 360 400 q 456 271 456 350 q 379 144 456 192 l 379 136 q 469 4 469 88 q 424 -121 469 -82 q 311 -158 386 -153 q 215 -161 283 -161 q 68 -144 146 -161 z "},"₄":{"ha":518,"x_min":38,"x_max":492,"o":"m 38 31 l 172 386 l 433 386 l 433 46 l 492 46 l 492 -51 l 433 -51 l 433 -149 l 313 -149 l 313 -51 l 38 -51 l 38 31 m 313 46 l 313 300 l 268 300 l 161 46 l 313 46 z "},"₅":{"ha":518,"x_min":64,"x_max":474,"o":"m 81 -36 q 219 -53 149 -53 q 338 -47 289 -53 l 338 58 l 264 67 q 122 97 163 78 q 82 168 82 117 q 90 386 82 172 l 440 386 l 426 272 l 217 285 l 217 175 l 278 169 q 430 120 386 160 q 474 4 474 81 q 428 -124 474 -83 q 317 -160 393 -156 q 219 -161 292 -161 q 64 -142 147 -161 l 81 -36 z "},"₆":{"ha":518,"x_min":56,"x_max":471,"o":"m 335 -26 l 335 89 l 254 89 q 204 81 218 89 q 190 42 190 72 l 190 -74 l 272 -74 q 322 -65 308 -74 q 335 -26 335 -57 m 447 382 l 428 281 q 289 292 339 292 q 190 282 239 292 l 190 182 l 244 182 q 411 148 351 182 q 471 14 471 114 q 417 -124 471 -86 q 253 -161 363 -161 q 100 -94 144 -161 q 56 121 56 -26 q 107 334 56 268 q 307 400 158 400 q 447 382 381 400 z "},"₇":{"ha":518,"x_min":65,"x_max":450,"o":"m 75 285 l 65 386 l 450 386 l 450 290 l 281 -149 l 142 -149 l 317 288 l 75 285 z "},"₈":{"ha":518,"x_min":50,"x_max":475,"o":"m 124 365 q 151 382 124 365 q 263 400 178 400 q 402 365 347 400 q 457 248 457 329 q 400 124 457 167 l 400 113 q 453 63 432 97 q 475 -7 475 29 q 263 -161 475 -161 q 50 -7 50 -161 q 72 63 50 29 q 125 113 93 97 l 125 124 q 69 247 69 164 q 124 365 69 329 m 211 83 q 190 57 190 83 l 190 -74 l 272 -74 q 322 -65 308 -74 q 335 -26 335 -57 l 335 26 l 232 76 q 211 83 214 83 m 289 160 q 308 156 297 156 q 327 163 319 156 q 335 182 335 171 l 335 307 l 254 307 q 217 306 229 307 q 190 261 190 300 l 190 213 l 289 160 z "},"₉":{"ha":518,"x_min":56,"x_max":469,"o":"m 189 265 l 189 147 l 272 147 q 320 156 307 147 q 333 194 333 164 l 333 313 l 251 313 q 202 305 215 313 q 189 265 189 297 m 333 64 l 279 64 q 99 102 142 64 q 56 233 56 140 q 110 363 56 325 q 272 400 164 400 q 424 333 379 400 q 469 119 469 265 q 424 -94 469 -26 q 267 -161 379 -161 q 72 -144 154 -161 l 90 -35 q 227 -53 163 -53 q 333 -46 292 -53 l 333 64 z "},"₣":{"ha":569,"x_min":14,"x_max":542,"o":"m 375 174 l 236 174 l 236 0 l 97 0 l 97 174 l 14 174 l 14 253 l 97 253 l 97 868 l 542 868 l 521 743 l 236 743 l 236 485 l 486 485 l 486 367 l 236 367 l 236 253 l 375 253 l 375 174 z "},"₤":{"ha":731,"x_min":83,"x_max":661,"o":"m 83 0 l 83 67 l 153 90 l 172 303 l 83 303 l 83 382 l 179 382 l 189 493 l 83 493 l 83 572 l 196 572 l 200 615 q 267 822 213 754 q 424 890 322 890 q 618 864 525 890 l 590 760 l 446 760 q 372 733 392 760 q 339 594 353 706 l 336 572 l 539 572 l 528 493 l 331 493 l 321 382 l 539 382 l 528 303 l 314 303 l 300 125 l 626 125 l 661 0 l 83 0 z "},"€":{"ha":699,"x_min":49,"x_max":615,"o":"m 388 104 q 601 138 504 104 l 614 15 q 415 -21 542 -21 q 194 53 258 -21 q 117 300 131 126 l 49 300 l 58 379 l 508 379 l 500 300 l 278 300 l 274 115 q 388 104 329 104 m 451 889 q 615 863 529 889 l 590 757 l 393 757 q 300 686 318 757 q 289 601 290 653 l 289 569 l 528 569 l 518 490 l 68 490 l 78 569 l 136 569 q 227 815 158 740 q 451 889 296 889 z "},"ℓ":{"ha":389,"x_min":125,"x_max":389,"o":"m 264 138 q 304 86 264 86 q 361 108 328 86 l 389 32 q 254 -15 317 -15 q 158 19 192 -15 q 125 117 125 53 l 125 868 l 264 889 l 264 138 z "},"™":{"ha":1158,"x_min":35,"x_max":1019,"o":"m 424 932 l 285 932 l 285 476 l 174 476 l 174 932 l 35 932 l 35 1017 l 424 1017 l 424 932 m 578 476 l 468 476 l 504 1017 l 656 1017 l 740 693 l 747 693 l 832 1017 l 983 1017 l 1019 476 l 910 476 l 888 843 l 882 843 l 793 518 l 694 518 l 606 843 l 600 843 l 578 476 z "},"Ω":{"ha":921,"x_min":63,"x_max":858,"o":"m 63 0 l 63 101 l 243 113 l 251 193 q 115 313 149 236 q 82 496 82 389 q 99 665 82 603 q 155 780 115 726 q 272 861 194 833 q 463 889 350 889 q 653 861 575 889 q 771 780 731 833 q 827 665 811 726 q 843 496 843 603 q 808 311 843 389 q 669 190 774 233 l 678 113 l 858 101 l 858 0 l 590 0 l 569 292 q 647 306 622 292 q 672 367 672 319 l 672 736 l 351 736 q 273 720 297 736 q 249 649 249 704 l 249 379 q 273 308 249 324 q 351 292 297 292 l 331 0 l 63 0 z "},"℮":{"ha":833,"x_min":61,"x_max":779,"o":"m 218 360 l 218 108 q 419 26 304 26 q 688 193 592 26 l 736 164 q 592 19 660 61 q 419 -24 525 -24 q 158 86 254 -24 q 61 364 61 196 q 158 638 61 532 q 422 743 254 743 q 680 637 589 743 q 779 360 771 531 l 218 360 m 218 410 l 622 410 l 622 611 q 417 694 535 694 q 218 611 300 694 l 218 410 z "},"∂":{"ha":682,"x_min":51,"x_max":629,"o":"m 629 443 q 533 69 629 178 q 310 -21 454 -21 q 109 34 167 -21 q 51 192 51 89 q 67 364 51 296 q 122 489 83 432 q 410 604 199 604 q 497 603 483 604 l 511 704 l 265 794 l 265 868 l 397 868 q 629 443 629 768 m 339 113 q 387 115 369 113 q 420 132 404 118 q 439 171 436 146 l 481 474 l 328 474 q 257 463 281 474 q 229 415 233 453 l 188 113 l 339 113 z "},"∆":{"ha":921,"x_min":69,"x_max":851,"o":"m 375 868 l 546 868 l 851 72 l 825 0 l 96 0 l 69 72 l 375 868 m 629 111 q 669 143 669 111 q 667 163 669 156 l 456 715 l 439 715 l 203 111 l 629 111 z "},"∏":{"ha":1056,"x_min":108,"x_max":954,"o":"m 108 868 l 825 868 q 833 918 831 892 l 954 908 q 928 769 954 810 q 846 729 903 729 l 846 -208 l 707 -208 l 707 729 l 465 729 q 404 715 425 729 q 381 660 383 700 l 313 -208 l 192 -208 l 215 742 l 108 768 l 108 868 z "},"∑":{"ha":797,"x_min":61,"x_max":719,"o":"m 321 692 q 329 660 321 675 l 504 335 l 239 -50 l 250 -69 l 714 -69 l 689 -208 l 88 -208 l 61 -136 l 354 293 l 101 796 l 128 868 l 719 868 l 700 764 l 382 729 q 321 692 321 722 z "},"−":{"ha":792,"x_min":149,"x_max":642,"o":"m 149 378 l 149 489 l 642 489 l 642 378 l 149 378 z "},"∕":{"ha":699,"x_min":97,"x_max":601,"o":"m 168 -56 l 97 -56 l 471 889 q 483 908 478 903 q 531 924 499 924 l 601 924 l 228 -21 q 215 -40 221 -35 q 168 -56 200 -56 z "},"√":{"ha":700,"x_min":28,"x_max":768,"o":"m 621 836 l 410 0 l 253 0 l 28 694 l 204 694 l 350 194 l 361 194 l 514 903 l 768 903 l 753 836 l 621 836 z "},"∞":{"ha":1201,"x_min":111,"x_max":1090,"o":"m 799 35 q 600 60 679 35 q 569 76 569 69 l 600 156 l 586 163 q 350 35 506 35 q 153 119 199 35 q 119 214 128 163 q 111 347 111 265 q 178 583 111 506 q 393 660 244 660 q 600 635 519 660 q 631 618 631 625 l 599 539 l 613 532 q 858 660 699 660 q 1028 607 972 660 q 1086 456 1076 561 q 1090 347 1090 413 q 1022 112 1090 189 q 799 35 953 35 m 933 240 l 933 513 q 769 502 807 513 q 717 454 731 492 l 625 182 l 838 182 q 910 192 888 182 q 933 240 933 203 m 268 454 l 268 182 q 433 192 394 182 q 485 240 471 203 l 576 513 l 364 513 q 291 502 314 513 q 268 454 268 492 z "},"∫":{"ha":463,"x_min":-7,"x_max":451,"o":"m 307 613 l 271 -57 q 247 -135 268 -103 q 200 -183 226 -167 q 133 -208 174 -199 q 1 -219 79 -219 l -7 -119 q 119 -64 93 -108 q 139 -17 135 -39 q 144 46 143 6 l 179 715 q 202 793 182 761 q 247 841 222 825 q 313 867 272 857 q 443 878 365 878 l 451 778 q 331 722 354 767 q 307 613 310 683 z "},"≈":{"ha":792,"x_min":149,"x_max":642,"o":"m 149 351 q 248 299 196 299 q 394 351 300 299 q 542 403 489 403 q 642 351 594 403 l 642 240 q 542 292 594 292 q 394 240 489 292 q 248 188 300 188 q 149 240 196 188 l 149 351 m 149 626 q 248 574 196 574 q 394 626 300 574 q 542 678 489 678 q 642 626 594 678 l 642 515 q 542 567 594 567 q 394 515 489 567 q 248 463 300 463 q 149 515 196 463 l 149 626 z "},"≠":{"ha":792,"x_min":131,"x_max":704,"o":"m 643 626 l 643 515 l 506 515 l 426 351 l 643 351 l 643 240 l 374 240 l 247 -21 q 235 -40 240 -35 q 188 -56 219 -56 l 131 -56 l 274 240 l 150 240 l 150 351 l 326 351 l 406 515 l 150 515 l 150 626 l 460 626 l 588 889 q 600 908 594 903 q 647 924 615 924 l 704 924 l 560 626 l 643 626 z "},"≤":{"ha":833,"x_min":167,"x_max":667,"o":"m 169 31 l 169 142 l 663 142 l 663 31 l 169 31 m 167 460 l 167 572 l 614 806 l 667 701 l 300 524 l 300 508 l 667 331 l 614 226 l 167 460 z "},"≥":{"ha":833,"x_min":167,"x_max":667,"o":"m 169 31 l 169 142 l 663 142 l 663 31 l 169 31 m 667 572 l 667 460 l 219 226 l 167 331 l 533 508 l 533 524 l 167 701 l 219 806 l 667 572 z "},"◊":{"ha":917,"x_min":99,"x_max":818,"o":"m 544 -208 l 374 -208 l 99 329 l 374 868 l 544 868 l 818 329 l 544 -208 m 253 331 l 449 -57 l 469 -57 l 663 328 l 469 724 l 449 724 l 253 331 z "},"":{"ha":258,"x_min":42,"x_max":217,"o":"m 106 -240 q 55 -220 68 -237 q 42 -152 42 -203 q 60 -77 42 -101 q 129 -53 78 -53 q 199 -77 181 -53 q 217 -161 217 -101 q 192 -276 217 -221 l 149 -371 l 94 -354 l 106 -240 z "},"":{"ha":1282,"x_min":139,"x_max":1143,"o":"m 818 -124 l 786 -122 q 742 -139 767 -122 q 706 -156 718 -156 l 642 -142 q 609 -150 631 -142 q 576 -158 588 -158 q 542 -141 564 -158 q 501 -124 519 -124 l 468 -126 q 422 -103 447 -126 l 397 -76 q 363 -67 381 -68 q 332 -58 344 -65 q 310 -26 319 -50 q 292 5 300 -1 q 265 19 285 11 q 238 39 246 26 q 228 72 231 51 q 219 101 225 92 q 200 119 214 110 q 169 172 169 144 l 174 207 q 156 244 174 219 q 139 281 139 268 q 147 313 139 293 q 156 345 156 333 q 147 375 156 357 q 139 406 139 393 q 156 447 139 418 q 174 488 174 475 l 172 522 q 195 563 172 543 q 222 590 218 583 q 228 619 225 597 q 236 650 231 642 q 263 667 242 658 q 292 682 285 675 q 308 710 299 689 q 327 740 318 732 q 363 753 336 747 q 397 763 389 758 q 425 790 404 767 q 465 815 446 814 l 501 813 q 541 828 519 813 q 578 844 563 844 l 639 828 l 701 844 q 742 827 719 844 q 781 810 764 810 l 819 814 q 860 791 842 814 q 887 763 878 768 q 917 754 896 758 q 948 743 938 750 q 965 717 958 736 q 980 690 972 697 q 1015 669 988 683 q 1049 643 1043 654 q 1056 610 1056 632 q 1060 581 1057 588 q 1088 555 1064 575 q 1111 513 1111 535 l 1110 478 q 1126 434 1110 460 q 1143 396 1143 408 q 1135 365 1143 383 q 1128 338 1128 347 q 1135 308 1128 328 q 1142 276 1143 288 q 1125 248 1142 265 q 1108 211 1108 231 l 1111 167 q 1089 126 1111 144 q 1063 101 1067 108 q 1053 68 1060 94 q 1040 33 1047 42 q 1015 16 1032 24 q 990 1 997 8 q 971 -28 983 -6 q 949 -58 958 -51 q 915 -72 939 -65 q 883 -82 890 -78 q 858 -105 876 -86 q 818 -124 839 -124 m 642 -8 l 688 -18 q 711 -8 696 -18 q 749 6 732 6 l 769 4 q 799 18 786 4 q 816 35 811 32 q 839 42 821 38 q 865 53 857 47 q 881 74 872 58 q 895 95 890 90 q 913 106 900 100 q 931 117 925 111 q 940 143 936 124 q 948 168 944 163 q 967 186 951 174 q 982 218 982 199 l 981 246 q 992 274 981 261 q 1006 296 1004 288 l 994 340 l 1006 379 q 993 410 1006 390 q 981 442 981 429 l 982 465 q 965 496 982 482 q 946 515 949 510 q 942 537 943 521 q 938 560 942 553 q 913 578 933 568 q 888 594 893 589 q 876 614 882 600 q 864 633 871 628 q 842 642 857 639 q 819 648 826 644 q 800 668 813 651 q 771 685 788 685 l 743 682 q 715 694 731 682 q 686 707 700 707 l 640 694 l 596 707 q 568 695 585 707 q 538 683 551 683 l 514 685 q 484 667 499 685 q 463 647 469 650 q 439 640 457 643 q 414 631 421 636 q 400 610 407 625 q 388 589 393 594 q 367 578 382 583 q 347 565 353 572 q 342 544 344 560 q 336 522 339 528 q 317 502 333 517 q 300 472 300 488 l 301 450 q 290 418 301 439 q 278 386 278 397 l 289 344 l 278 299 q 290 270 278 288 q 301 242 301 253 l 299 219 q 316 188 299 204 q 336 167 333 172 q 341 147 339 161 q 349 123 343 132 q 368 108 354 114 q 388 98 382 103 q 401 75 393 93 q 417 51 408 57 q 438 46 425 46 q 460 42 451 46 q 484 20 468 38 q 515 3 500 3 l 536 4 q 567 -8 550 4 q 592 -21 583 -19 l 642 -8 m 475 510 q 510 545 475 510 q 642 579 544 579 q 808 510 739 579 q 878 343 878 442 q 808 176 878 244 q 642 107 739 107 q 475 176 544 107 q 406 343 406 244 q 475 510 406 442 m 701 406 l 774 406 l 774 500 l 508 500 l 508 406 l 583 406 l 583 163 l 701 163 l 701 406 z "},"ﬀ":{"ha":925,"x_min":69,"x_max":925,"o":"m 768 694 l 879 694 l 879 583 l 768 583 l 768 0 l 629 0 l 629 583 l 306 583 l 306 0 l 167 0 l 167 583 l 69 583 l 69 694 l 167 694 l 176 778 q 229 905 188 872 q 333 938 271 938 q 463 924 396 938 l 447 811 l 306 822 l 306 694 l 629 694 l 639 778 q 692 905 650 872 q 796 938 733 938 q 925 924 858 938 l 910 811 l 768 822 l 768 694 z "},"ﬁ":{"ha":851,"x_min":69,"x_max":743,"o":"m 306 583 l 306 0 l 167 0 l 167 583 l 69 583 l 69 694 l 167 694 l 176 778 q 229 905 188 872 q 333 938 271 938 q 463 924 396 938 l 447 811 l 306 822 l 306 694 l 651 694 l 726 706 l 726 0 l 588 0 l 588 583 l 306 583 m 658 799 q 632 799 658 799 q 590 817 607 799 q 572 881 572 835 q 590 947 572 928 q 658 965 607 965 q 726 947 708 965 q 743 881 743 928 q 726 817 743 835 q 658 799 708 799 z "},"ﬂ":{"ha":851,"x_min":69,"x_max":790,"o":"m 306 694 l 417 694 l 417 583 l 306 583 l 306 0 l 167 0 l 167 583 l 69 583 l 69 694 l 167 694 l 176 778 q 229 905 188 872 q 333 938 271 938 q 463 924 396 938 l 447 811 l 306 822 l 306 694 m 588 117 l 588 903 l 726 924 l 726 101 q 790 94 774 96 l 782 -15 q 626 10 664 -15 q 588 117 588 35 z "},"ﬃ":{"ha":1314,"x_min":69,"x_max":1206,"o":"m 306 583 l 306 0 l 167 0 l 167 583 l 69 583 l 69 694 l 167 694 l 176 778 q 229 905 188 872 q 333 938 271 938 q 463 924 396 938 l 447 811 l 306 822 l 306 694 l 629 694 l 639 778 q 692 905 650 872 q 796 938 733 938 q 925 924 858 938 l 910 811 l 768 822 l 768 694 l 1114 694 l 1189 706 l 1189 0 l 1050 0 l 1050 583 l 768 583 l 768 0 l 629 0 l 629 583 l 306 583 m 1120 799 q 1095 799 1120 799 q 1052 817 1069 799 q 1035 881 1035 835 q 1052 947 1035 928 q 1120 965 1069 965 q 1188 947 1171 965 q 1206 881 1206 928 q 1188 817 1206 835 q 1120 799 1171 799 z "},"ﬄ":{"ha":1314,"x_min":69,"x_max":1253,"o":"m 306 694 l 417 694 l 417 583 l 306 583 l 306 0 l 167 0 l 167 583 l 69 583 l 69 694 l 167 694 l 176 778 q 229 905 188 872 q 333 938 271 938 q 463 924 396 938 l 447 811 l 306 822 l 306 694 m 768 694 l 879 694 l 879 583 l 768 583 l 768 0 l 629 0 l 629 583 l 532 583 l 532 694 l 629 694 l 639 778 q 692 905 650 872 q 796 938 733 938 q 925 924 858 938 l 910 811 l 768 822 l 768 694 m 1050 117 l 1050 903 l 1189 924 l 1189 101 q 1253 94 1236 96 l 1244 -15 q 1088 10 1126 -15 q 1050 117 1050 35 z "}}}
